<svg xmlns="http://www.w3.org/2000/svg" viewBox="0 0 105.2 104.95"><defs><style>.cls-1{fill:#0c63ee;}.cls-2{fill:#ffda00;}.cls-3{fill:#fff;}</style></defs><title>Experiencia </title><g id="Camada_2" data-name="Camada 2"><g id="Camada_2-2" data-name="Camada 2"><ellipse class="cls-1" cx="58.31" cy="47.39" rx="40.65" ry="41.93"/><path class="cls-2" d="M1.51,65c5.18,20.18,22.74,36.23,43.35,39.36a52.14,52.14,0,0,0,34.6-6.92,55.09,55.09,0,0,0,20.76-22.89c9.43-19.34,5.06-43.42-9.62-59a53.1,53.1,0,0,0-5.82-5.29,1.79,1.79,0,0,1-.41-.46,2,2,0,0,1-1.26-.35c-18-12.65-43.55-12.75-61.42.21C4.87,21.91-3.67,44.85,1.51,65ZM56,33.81A9.59,9.59,0,0,1,45.91,31.7a9.76,9.76,0,0,1-2.26-9.85,9.75,9.75,0,0,1,9.62-6.33,2.87,2.87,0,0,1,2.12,1.18h.08A8.84,8.84,0,0,1,62,24.83,9.36,9.36,0,0,1,56,33.81Zm34.29,3.11a6.91,6.91,0,0,1-6.58,5.63,7.84,7.84,0,0,1-7.14-4.47A10.58,10.58,0,0,1,76.65,29a6.87,6.87,0,0,1,4.06-3.56,5.61,5.61,0,0,1,2.37-.24,6,6,0,0,1,3.14,1.34,2.31,2.31,0,0,1,2,1.2C89.73,30.6,91,33.62,90.31,36.92Zm-47,11.22c1.25-3.48,4.18-6.38,8-6.5,4.79-.14,7.65,3.75,11.34,6a13.21,13.21,0,0,0,9.21,1.77c.68-.12,1.27-.54,2-.62a3.29,3.29,0,0,1,2.52.68c3.16,1.79,3.78,5.08,3.11,8.5-.7,3.64-3.3,6.87-5.55,9.71C69.38,73.5,62.69,78,55,76.75c-8-1.29-11.51-9.2-12.26-16.42C42.35,56.44,42,51.89,43.33,48.14Z"/><path class="cls-3" d="M57.13,49.7a20,20,0,0,0,8.27,4.46,19,19,0,0,0,5.26.46s1.7-.12,3.23-.32c0,0-3.41,10-13.25,7.17S52,48.68,52.43,46.72C54.19,47.1,55.89,48.68,57.13,49.7Z"/></g></g></svg>