<svg xmlns="http://www.w3.org/2000/svg" viewBox="0 0 134.7 151.73"><defs><style>.cls-1{fill:#0c63ee;}.cls-2{fill:#ffda00;}.cls-3{fill:#1b5396;}</style></defs><title>Formacao </title><g id="Camada_2" data-name="Camada 2"><g id="Camada_2-2" data-name="Camada 2"><ellipse class="cls-1" cx="93.72" cy="102.7" rx="35.82" ry="26.02"/><path class="cls-2" d="M131.28,79.88A50.77,50.77,0,0,0,128,72.75a1.67,1.67,0,0,1-.2-.58,2,2,0,0,1-1-.81C115,52.77,91.41,42.85,69.93,48,49.72,52.75,33,70.64,30.05,91.25s7.07,42.18,24.89,53a52.19,52.19,0,0,0,34.61,6.9,55.18,55.18,0,0,0,28-13.14C133.65,123.77,138.87,99.87,131.28,79.88Zm-19.39,7a2.68,2.68,0,0,1,1.62-1,9.19,9.19,0,0,1,9.58,5,8.75,8.75,0,0,1-1.11,9.13l0,0a24.23,24.23,0,0,0-13.15-.88,8.44,8.44,0,0,1-1.31-4.08A9.43,9.43,0,0,1,111.89,86.9ZM75.12,89.63a9.68,9.68,0,0,1,9.49-4.16,2.6,2.6,0,0,1,1.46.75,8.68,8.68,0,0,1,4.85,3.46,9.08,9.08,0,0,1,.3,9.91,30.43,30.43,0,0,0-15.51,1.25l-.25-.29A9.74,9.74,0,0,1,75.12,89.63Zm36.46,20.85A12.18,12.18,0,0,1,90,108.17a2.5,2.5,0,1,1,4.62-1.9c.09.23.18.45.28.68,0,0,.14.26.19.37a4.09,4.09,0,0,1,.22.35l.36.49.39.47.09.11.05.05a10.08,10.08,0,0,0,.94.79c.16.13.33.24.5.36l.12.08,0,0a8.52,8.52,0,0,0,1.1.52c.19.08.39.14.58.21l.11,0h.07a9.83,9.83,0,0,0,1.21.19l.45,0,.45,0c.4,0,.79-.1,1.19-.17l.15,0a6.17,6.17,0,0,0,.61-.19c.38-.14.74-.31,1.1-.48l.13-.07c.18-.11.37-.23.55-.36s.63-.48.94-.74l.09-.08,0,0,.4-.45a9.59,9.59,0,0,0,.69-1,2.5,2.5,0,1,1,3.94,3.08Z"/><path class="cls-3" d="M104.7,35.47,30.43,45.14l2.85,11.51c.93,3.78,1.54,8,3.48,11.45,1.66,2.94,4.65,4.7,7.7,5.91a34.25,34.25,0,0,0,4.09,1.33c1.24.31,2.52.58,3.84.8.6.09,1.2.19,1.81.26a60.37,60.37,0,0,0,20-1.47,99.9,99.9,0,0,0,20.31-6.7c5.22-2.42,10.27-5.82,13.66-10.53l.06-.13Z"/><path class="cls-1" d="M133.14,22.46a2.47,2.47,0,0,0-1.52-2.3L79,5.22,64.46,1.09,64.38,1A2.56,2.56,0,0,0,60.87.48L16.77,28.19,4.32,36c-2,1.27-.74,4.09,1.2,4.48A269.2,269.2,0,0,1,31.77,47.2c8.46,2.63,16.62,5.91,24.9,9,3.77,1.42,7.8,2.53,11.86,2,.27,0,.53-.1.79-.15l1.39.42,2.81-1.73c2.19-.94,4.27-2.16,6.35-3.31L104.1,40l27.52-15.23A2.57,2.57,0,0,0,133.14,22.46Z"/><path class="cls-2" d="M63.6,21.71a2.55,2.55,0,0,0-3.5-.49L39.33,34.49c-3.21,2.06-6.75,3.93-9.57,6.52-3.09,2.82-4.5,6.34-5.09,10.43-.56,3.91-.94,7.82-1.78,11.69a84.52,84.52,0,0,1-3.24,11.25,67,67,0,0,1-4.46,10.16c-1.39,2.43-3.64,4.72-6.68,4-2.63-.66-4.69-4.13-3-6.57a2.25,2.25,0,0,1,2.64-.87,1.09,1.09,0,0,1,.59,1c0-.09,0,.36,0,.51,0,0-.28.35-.06.15a2.58,2.58,0,0,0-.49,3.51,2.53,2.53,0,0,0,3.51.48,6.16,6.16,0,0,0-1.29-10C6.56,74.66,1.83,77,.49,81A9.67,9.67,0,0,0,4.24,92a10,10,0,0,0,10.23.43,1.94,1.94,0,0,1,.29.21l.28.24-.19-.19c.2.11.34.43.47.6l.06.06s0,0,0,.05c.09.2.18.4.26.62l.07.17a.11.11,0,0,0,0,0c0,.19.07.37.09.57l0,.35c0,.24,0,.48-.06.72s-.07.44-.11.67a.45.45,0,0,0,0,.13l-.06.19a12.63,12.63,0,0,1-.55,1.37c-.11.24-.23.48-.36.71l-.12.23-.05.08c-.27.41-.56.8-.85,1.2a.35.35,0,0,0-.06.09l-.07,0a1.89,1.89,0,0,0-.29.22l-.14.06-.12,0h-.33l-.31-.13-.06-.06-.06,0h0a1.47,1.47,0,0,0-.1-.13.21.21,0,0,0,0-.07.41.41,0,0,0,0-.1c0-.1,0-.2,0-.3v0c0-.06,0-.12.05-.18a1.34,1.34,0,0,1,.07-.18,1.09,1.09,0,0,1,.13-.17,2.5,2.5,0,0,0-3.94-3.08A6,6,0,0,0,8,103.27a5.91,5.91,0,0,0,6.64,2.31c2.37-.67,3.79-3,4.84-5a11,11,0,0,0,1.24-6.91A8.52,8.52,0,0,0,18.21,89a38.16,38.16,0,0,0,4.31-8.28A94.51,94.51,0,0,0,27.1,67a107,107,0,0,0,2.38-13.78A15.29,15.29,0,0,1,31.2,46.9a14.41,14.41,0,0,1,4.33-4C40,39.82,44.65,37,49.2,34.1l13.92-8.89A2.52,2.52,0,0,0,63.6,21.71ZM8.73,82.53v0A.08.08,0,0,0,8.73,82.53ZM13,100.88h0Zm-1-.9h0C12,100.2,12,100.12,12,100Zm.65.87c-.07,0-.12,0-.12,0Zm.33,0h0Z"/></g></g></svg>