<svg xmlns="http://www.w3.org/2000/svg" viewBox="0 0 151.58 154.34"><defs><style>.cls-1{fill:#ffda00;}.cls-2{fill:#fff;}.cls-3{fill:#48b700;}.cls-4{fill:#0c63ee;}</style></defs><title>Idiomas </title><g id="Camada_2" data-name="Camada 2"><g id="Camada_2-2" data-name="Camada 2"><path class="cls-1" d="M28.08,108.8l-1.42-9.11s-13.56,2.9-14.39,5,12.65,6.9,12.65,6.9Z"/><path class="cls-2" d="M3,18.86a526.24,526.24,0,0,1,14,73q1.24,10.43,2.07,20.9a2.5,2.5,0,0,0,4.95-.75A526.56,526.56,0,0,0,13,38.51q-2.29-10.26-5-20.4A2.58,2.58,0,0,0,5.09,16,2.52,2.52,0,0,0,3,18.86Z"/><path class="cls-3" d="M95.47,28.51,92,15.05,90.25,8.33c-.53-2.07-.87-4.46-2.26-6.15C85.17-1.23,80.27.22,76.58.85L62.87,3.21,35.19,8,4.08,13.3a2.63,2.63,0,0,0-.6.18A4.07,4.07,0,0,0,.34,16.06C-.61,18.44.68,21,1.41,23.22a109.12,109.12,0,0,1,3.74,15A114.36,114.36,0,0,1,6.8,53.77c.09,2.48,0,4.95.06,7.43A13.41,13.41,0,0,0,8,67a7.4,7.4,0,0,0,5.13,3.92c2.28.5,4.74,0,7-.28l16.07-1.93,32.15-3.85,17.8-2.14C91.62,62,97,61.16,101.58,58a2.38,2.38,0,0,0,.9-2.32Q99,42.09,95.47,28.51ZM3.93,18.24l.09,0v0a.9.9,0,0,1-.21-.08Z"/><path class="cls-1" d="M91.27,27.5a87.73,87.73,0,0,1-18.43-7.18C67,17.3,61.39,13.94,55.53,11c-3.13-1.58-6.6-3.46-10.24-2.68s-5.78,3.81-8.12,6.39A157.61,157.61,0,0,1,23.28,27.54c-5.41,4.68-10.92,9.34-15.59,14.77a2.22,2.22,0,0,0-.46,1.74,2.12,2.12,0,0,0,1.4,2l.08,0,.07,0c13.94,4.8,28,9.38,40.67,17.07a2.61,2.61,0,0,0,3.06-.07L91.92,31.77C93.25,30.71,93.14,28,91.27,27.5Z"/><path class="cls-4" d="M66.8,27.65a14.2,14.2,0,0,0-8.95-9.47,31.18,31.18,0,0,0-15.47-.44,2.5,2.5,0,0,0-2,2.91A16.52,16.52,0,0,0,28.88,33.94c-1.27,7.94,3.37,15.64,10.37,19.21s16.19,1.91,21.89-3.4A21.58,21.58,0,0,0,66.8,27.65Z"/><path class="cls-2" d="M72.3,31.88a2.56,2.56,0,0,0-2.19-2.78,60.63,60.63,0,0,0-25.86-.39C36.7,30.27,28.63,32.9,24.66,40c-.37.67.63,4.63,1.67,5a2.57,2.57,0,0,0,3.25-1.4C31,41,33.73,39.32,36.42,38.14a45.75,45.75,0,0,1,10.19-3,56.94,56.94,0,0,1,23.18.67c1.32.3,1.82-.1,2-1.33.07-.6.76-2,.49-2.39C72.26,32.05,72.29,32,72.3,31.88Z"/><ellipse class="cls-4" cx="100.38" cy="102.77" rx="38.5" ry="39.29"/><path class="cls-1" d="M47.89,114.4c5.18,20.18,22.74,36.23,43.35,39.37a52.2,52.2,0,0,0,34.6-6.93A55.13,55.13,0,0,0,146.6,124c9.43-19.35,5.06-43.42-9.62-59a52.2,52.2,0,0,0-5.82-5.3,1.79,1.79,0,0,1-.41-.46,2,2,0,0,1-1.26-.35c-18-12.64-43.55-12.75-61.42.21C51.25,71.3,42.71,94.24,47.89,114.4Zm38.9-22.93a9.57,9.57,0,0,1-10.11-2.11A9.49,9.49,0,0,1,84,73.18a2.87,2.87,0,0,1,2.12,1.18h.08a8.85,8.85,0,0,1,6.56,8.12A9.36,9.36,0,0,1,86.79,91.47Zm37.42-3.6c-.63,3.19-5.06,5.25-8.32,5.33a7.84,7.84,0,0,1-7.14-4.47,10.58,10.58,0,0,1,.06-9.08,6.9,6.9,0,0,1,4.06-3.56,6.78,6.78,0,0,1,2.51-.57c1.23.15,2.52-.46,3.49.3a8.4,8.4,0,0,1,3.89,2.29A14.9,14.9,0,0,1,124.21,87.87ZM69.7,107c1.19-3.82,3.28-8.67,9.25-9.4,3.87-.47,8.35,2,14.44,3.07,4.57.8,15.41,0,20.13-1.49,1-.33,1.83-.93,2.84-1.23a7.27,7.27,0,0,1,4-.13c5.18.75,6.8,3.77,6.48,7.33-.32,3.78-2.38,11.77-4.75,15.6-5.64,9.1-12.84,11.29-26.11,10.63-12.49-.61-16.63-4-22.09-11.42C71.53,116.78,68.43,111.08,69.7,107Z"/><path class="cls-2" d="M79.56,120s2.72-9.09,16.23-8,15.23.66,20.64,9.1c0,0-4.81,5.67-14.24,5.87S81.21,123.53,79.56,120Z"/><path class="cls-1" d="M38.85,102A14.33,14.33,0,0,0,31.72,95a6.68,6.68,0,0,0-5.5,0c-1.6.82-3.27,1.55-3.35,3.3a3,3,0,0,1-.85,2.23,1.44,1.44,0,0,1-.5.25l-2.86.22-1.15-.21c-2.29-.44-5-1.38-7.39-1-1.78.3-3.27,2.27-3.95,3.83a6.86,6.86,0,0,0,0,5.56,28.83,28.83,0,0,0,1.73,2.57,3.14,3.14,0,0,0,.14.36c.05.19.11.35.14.53a12.61,12.61,0,0,1,.22,1.5A16.06,16.06,0,0,0,10,120.4a23.13,23.13,0,0,0,4.51,5.17A15.31,15.31,0,0,0,21,129.36c4.43,1.09,9.34-.87,13.31-2.7a13.42,13.42,0,0,0,5.53-4.2,12.6,12.6,0,0,0,2.14-6,21.52,21.52,0,0,0-.79-7.44A38.39,38.39,0,0,0,38.85,102Zm-18.71-.58c-.1,0-.15,0,0,0Z"/><path class="cls-1" d="M31.94,98.67,26.06,95s-8.25,1.19-6,11,8.25,9.84,11.89,8.23S31.94,98.67,31.94,98.67Z"/><path class="cls-4" d="M32.77,98.27c-.1-.38-.12-.7-.49-.6s-.21.53-.11.91c1.45,5.53,1.38,13.94-.75,14.89a6.55,6.55,0,0,1-5.68-.07c-2.3-1.16-3.93-3.79-4.86-7.84-1.13-4.94.42-7.77,1.9-9.22l-.2-1.68c-2.06,1.46-4.58,4.65-3.08,11.22,1,4.47,2.91,7.43,5.61,8.78a8.26,8.26,0,0,0,3.52,1A9,9,0,0,0,32.4,115C36.39,113.2,33.4,100.69,32.77,98.27Z"/></g></g></svg>