<svg xmlns="http://www.w3.org/2000/svg" viewBox="0 0 286.87 189.59"><defs><style>.cls-1{fill:#fff;}</style></defs><title>Logo Vertical </title><g id="Camada_2" data-name="Camada 2"><g id="Camada_2-2" data-name="Camada 2"><path class="cls-1" d="M217,15.05c0,5.78-2.84,10.68-7.15,13l8.27,12.1H206l-6-10h-7.08v10h-9.68V0h19.41C210.82,0,217,6.31,217,15.05ZM192.94,9V21.19h8.32A6.11,6.11,0,0,0,201.32,9Z"/><path class="cls-1" d="M244.58,33.87H225.23l-2.66,6.26H212.3L229.48,0h10.8l17.23,40.13H247.18ZM241.22,26,235,11l-6.37,15Z"/><path class="cls-1" d="M235,87.66H215.6l-2.66,6.26H202.67l17.18-40.13h10.8l17.23,40.13H237.55Zm-3.37-7.91-6.25-15-6.38,15Z"/><polygon class="cls-1" points="205.85 71.96 192.94 71.96 192.94 62.76 209.79 62.76 213.63 53.79 183.26 53.79 183.26 93.92 192.94 93.92 192.94 80.87 202.04 80.87 205.85 71.96"/><path class="cls-1" d="M214,107.57v9H192.94v6.91h17.58v8.38H192.94v6.9H214v9H183.26V107.57Z"/><path class="cls-1" d="M228,138.73h21.07v9H218.33V107.57H228Z"/><path class="cls-1" d="M273.94,141.45H254.58l-2.65,6.25H241.66l17.17-40.13h10.8l17.24,40.13H276.54Zm-3.36-7.91-6.26-15-6.37,15Z"/><path class="cls-1" d="M184,184.71a2.25,2.25,0,0,1,1.59-.69,2.22,2.22,0,0,1,1.62.69,2.28,2.28,0,0,1,.69,1.69,2.17,2.17,0,0,1-.69,1.66,2.26,2.26,0,0,1-1.62.65,2.29,2.29,0,0,1-1.59-.65,2.12,2.12,0,0,1-.72-1.66A2.23,2.23,0,0,1,184,184.71Z"/><path class="cls-1" d="M202.9,189.18a11.36,11.36,0,0,1-10-5.82,13.26,13.26,0,0,1,0-12.5,10.91,10.91,0,0,1,4.31-4.16,12.38,12.38,0,0,1,5.94-1.46,12.12,12.12,0,0,1,6.29,1.75,10.71,10.71,0,0,1,4.3,4.57l-.47,1.17V154.4h2.58v34.31h-2.58v-7.08l.53,1.23a11.52,11.52,0,0,1-4.39,4.57A12.4,12.4,0,0,1,202.9,189.18Zm.65-2.22a9.67,9.67,0,0,0,8.22-4.33,9.1,9.1,0,0,0,1.49-4.51v-2.81a8.84,8.84,0,0,0-1.84-4.07A10.85,10.85,0,0,0,208,168.4a9.45,9.45,0,0,0-4.42-1.05,9.72,9.72,0,0,0-4.89,1.25,9.32,9.32,0,0,0-3.48,3.46,9.79,9.79,0,0,0-1.29,5.06,9.57,9.57,0,0,0,1.29,4.95,9.92,9.92,0,0,0,3.51,3.54A9.18,9.18,0,0,0,203.55,187Z"/><path class="cls-1" d="M231.08,189.18a12.36,12.36,0,0,1-6.26-1.58,11.38,11.38,0,0,1-4.3-4.27,11.94,11.94,0,0,1-1.55-6.09,11.52,11.52,0,0,1,1.63-6.06,12.58,12.58,0,0,1,4.4-4.36,11.78,11.78,0,0,1,6.14-1.64,10,10,0,0,1,6.79,2.37,13.33,13.33,0,0,1,4,6.18l-20,7.78-.76-1.87,18.44-7.26-.52.82a10.61,10.61,0,0,0-3.08-4.13,7.56,7.56,0,0,0-5-1.72,8.86,8.86,0,0,0-4.77,1.31,10,10,0,0,0-3.43,3.52,9.56,9.56,0,0,0-1.29,4.94,10.11,10.11,0,0,0,1.2,4.83,9.48,9.48,0,0,0,3.4,3.63,9.3,9.3,0,0,0,5.06,1.38,9.66,9.66,0,0,0,3.63-.71,10.51,10.51,0,0,0,3.1-1.87l1.29,1.87a13.16,13.16,0,0,1-3.72,2.11A12,12,0,0,1,231.08,189.18Z"/><path class="cls-1" d="M252.67,189.59l-11.41-23.65h2.92l9.6,20.9-1.58-.06,9.25-20.84h2.81L253,189.59Z"/><path class="cls-1" d="M84.94,172.7a70.64,70.64,0,0,1-5.32,4.93A13.7,13.7,0,0,1,73,180.1a72,72,0,0,1-7.2.52,28.08,28.08,0,0,1-4-.44c-.73-.08-1.46-.16-2.18-.26-3.28-.44-6.53-1.08-9.82-1.25a17.65,17.65,0,0,0-6.49.43A54.39,54.39,0,0,1,36,180.87a62.32,62.32,0,0,1-6.42.66,14.11,14.11,0,0,1-2.75-.16,11.2,11.2,0,0,1-5-2.25,12.65,12.65,0,0,1-5.57-7.8,7.8,7.8,0,0,1-.2-1.79c0-.73-.37-1-1-1.17a4.74,4.74,0,0,1-3.79-3.92c-.1-.49-.26-1-.39-1.46a1.57,1.57,0,0,1,1.49-2.08,3.28,3.28,0,0,1,.7,0A1.61,1.61,0,0,0,15,159.71c.42-1.27,1-2.49.23-3.88-.51-.88-.77-1.9-1.21-2.82-.63-1.29-1.69-1.36-3-1.27a11.35,11.35,0,0,1-4.4-.62,7.41,7.41,0,0,1-3.47-3.2,20.62,20.62,0,0,1-2.13-4c-1.19-3.43-1.7-6.91.5-10.21a6.72,6.72,0,0,1,3.35-2.61c.53-.19,1-.4,1.61-.62-.63-1.89-1.32-3.66-1.79-5.5a25.14,25.14,0,0,1-.84-8,68,68,0,0,1,.64-6.86,29.81,29.81,0,0,1,2.69-8.72c1.37-2.62,2.79-5.22,4.13-7.86.62-1.2,1.09-2.48,1.72-4a15.72,15.72,0,0,0-2.12.68A2.94,2.94,0,0,1,8.13,90a1,1,0,0,1-.52-.73c0-.25.39-.52.67-.65C9.61,88,11,87.41,12.42,86.77a21.89,21.89,0,0,1-2-1c-.6-.38-1-1-.36-1.6a6.11,6.11,0,0,0,1.74-6c-.34-1.87-.69-3.75-.88-5.63-.29-2.7,1-4.7,3.09-6.25a9.84,9.84,0,0,1,8.81-1.8,5.11,5.11,0,0,0,2.34-.21c.93-.23,1.14-.73.74-1.57a3.32,3.32,0,0,0-2.45-2A4.4,4.4,0,0,1,20,56.82a10.79,10.79,0,0,1,1-6.34,12.79,12.79,0,0,1,2.14-3.25,22.09,22.09,0,0,1,6.31-5.32c1.76-.95,3.64-1.67,5.5-2.5,0-.9,0-1.87.17-2.82.28-1.92,1.57-3.3,2.75-4.71a19.29,19.29,0,0,1,1.51-1.62,3.11,3.11,0,0,1,4-.34c-.15,1.2-.34,2.4-.46,3.61-.1,1,.08,1.14,1,.88a9.47,9.47,0,0,0,5-3.7c1.64-2.11,3.07-4.38,4.71-6.48A15.24,15.24,0,0,1,59.35,20a19.77,19.77,0,0,1,5.21-2,41.26,41.26,0,0,1,5.56-.29,9.48,9.48,0,0,1,4.44,1.1,1.2,1.2,0,0,0,.94-.08,9.55,9.55,0,0,0,2.06-1.42c1.94-2,4.41-3.06,6.85-4.23A17.06,17.06,0,0,1,93,11.45a17.8,17.8,0,0,1,7,2.09c2.67,1.37,4.48,3.65,6.74,5.43,1.45,1.15,2.58,2.71,4,3.83a3.53,3.53,0,0,0,3.09,1,2.28,2.28,0,0,1,1.27,0,37.26,37.26,0,0,1,3.53,1.29,45.57,45.57,0,0,1,4.59,2.28,9.37,9.37,0,0,1,1.87,1.9,37.86,37.86,0,0,1,3.45,3.84A24.54,24.54,0,0,1,132,40.69c.07-.37.13-.74.2-1.11a24.41,24.41,0,0,1,.74-3.31,1.53,1.53,0,0,1,1.3-.63,1.6,1.6,0,0,1,1.13.91,9.06,9.06,0,0,1-.16,4.76c0,.22-.12.43-.24.86a9.84,9.84,0,0,1,1.15-.41c.9-.21,1.82-.36,2.73-.58a10.52,10.52,0,0,0,2.45-.73,10.63,10.63,0,0,1,5.86-1.5,5.3,5.3,0,0,1,1.88.6c.63.32.71.88,0,1.21a17.09,17.09,0,0,1-2.43.86c-1,.3-2,.55-3,.83-.61.17-.8.51-.7,1.2a2.75,2.75,0,0,1-2.52,3c-1.38.09-2.64-1.33-2.29-3.27l-3.6,2.21.08.29a17.09,17.09,0,0,1,2.17.49,21,21,0,0,1,6.17,3.87,23.62,23.62,0,0,1,4.68,6,20,20,0,0,1,1.75,4.39,23.93,23.93,0,0,1,.73,10.63c-.42,3.1-1.2,6.14-1.73,9.23-.22,1.26-.05,2.6-.31,3.85a6.4,6.4,0,0,0,.61,3.75c.29.73.66.79,1.14.14.35-.48.58-1,.91-1.56a2.15,2.15,0,0,1,3.3-.08,18.13,18.13,0,0,1,1.44,3.28c.76,2.07.13,4.08-.33,6.1a1.1,1.1,0,0,0,.19.77,2.94,2.94,0,0,0,.67.74c2.15,1.78,1.14,4.76-.37,6.11a2.4,2.4,0,0,0-.64,1.23,8.64,8.64,0,0,0-.36,2.65,5.12,5.12,0,0,0,.88,2.17c1.17,1.83,2.48,3.56,3.63,5.4a9.94,9.94,0,0,1,1.69,7.23,6.8,6.8,0,0,1-1.91,3.33c-.48.55-1.06,1-1.63,1.57.8.65,1.61,1.22,2.32,1.89,3.42,3.25,4.24,7.53,1.55,11.61a63.06,63.06,0,0,0-3.45,5.53,37,37,0,0,0-2.51,6,33.26,33.26,0,0,0-1.33,6.17,15.94,15.94,0,0,0,.43,3.65c.26,2,.58,4.09.72,6.15s-1.76,4.69-3.74,5.52a13.45,13.45,0,0,1-6.52.73,23.47,23.47,0,0,0-8.2.75c-2.53.64-4.87,2.07-7.6,2-1.56-.08-3.12.1-4.6-.72a25.94,25.94,0,0,0-2.62-.87c-1-.44-1.74.16-2.5.58a27.51,27.51,0,0,1-9.36,3.16,38.88,38.88,0,0,1-7.07.43,22.43,22.43,0,0,1-9.16-2.34c-1.83-.88-3.71-1.66-5.51-2.6A36,36,0,0,1,84.94,172.7Zm26.68-78.76c.16-.24.3-.42.43-.61a17,17,0,0,1,8.66-6.68,27.19,27.19,0,0,1,8.76-1.55c1.07,0,2.13-.13,3.2-.2a3.07,3.07,0,0,0,0-.38c-.36-2.54-.66-5.09-1.1-7.61a20.05,20.05,0,0,0-1.07-4,2.41,2.41,0,0,1,2.37-3.49c1.27.06,1.85.5,2.06,1.49.31,1.43.69,2.84,1,4.28.39,2,.74,4.12,1.06,6.19.18,1.09.25,2.19.43,3.28a.8.8,0,0,0,.47.54c2,.55,4.1,1.06,6,1.55,0-1.19-.06-2.36,0-3.52a43.69,43.69,0,0,1,.48-5.12c.5-2.89,1.39-5.72,1.71-8.63a20.7,20.7,0,0,0-1.9-11.61,19.69,19.69,0,0,0-4.29-5.61A12.94,12.94,0,0,0,133.84,49c-.48-.11-1.13,0-1,.6.25,1.67-.68,3-1.1,4.48-.33,1.13-1.17,2.1-1.52,3.22-.86,2.77-2.89,4.27-5.42,5.2a23.76,23.76,0,0,1-4.27,1,47.18,47.18,0,0,1-10.2.92,20.18,20.18,0,0,1-3.43-.59c-.43-.1-1-.75-1.17-.63-1,.56-1.75-.23-2.51-.55a1.48,1.48,0,0,0-1.94.39c-1.68,1.91-4,2.87-6.22,4a29.07,29.07,0,0,1-5.74,2,22.26,22.26,0,0,1-4.76.54c-1.1,0-1.48-1-1.72-1.84a1.6,1.6,0,0,1,.31-1.42,15.4,15.4,0,0,1,3.22-1.55c1.45-.5,3-.81,4.44-1.19a6.53,6.53,0,0,0,2-.51A22.15,22.15,0,0,0,96.58,60a47.7,47.7,0,0,0,3.76-4.92c.86-1.23,1.6-2.54,2.36-3.84a1.22,1.22,0,0,1,1.56-.55c.67.19.76.68.71,1.35a6,6,0,0,1-1,2.81c-.54.86-.94,1.8-1.39,2.7A35.84,35.84,0,0,0,107,59a30.71,30.71,0,0,0,6.24.67,52,52,0,0,0,6.53-.88,32.52,32.52,0,0,0,3.82-.7,3.33,3.33,0,0,0,1.75-1.17c.71-1,1.13-2.25,1.78-3.32a9.88,9.88,0,0,0,1.26-5.39q0-2.16,0-4.32a2.38,2.38,0,0,0-.13-.88,57.78,57.78,0,0,0-2.39-5.6,19.24,19.24,0,0,0-2.72-3.55,18.08,18.08,0,0,0-2.2-1.87,14.83,14.83,0,0,0-4.88-2.83c-.56-.18-1.1-.44-1.67-.57a26.15,26.15,0,0,1-3.56-.75c-3.41-1.29-5.74-4-8.11-6.6-1.91-2.06-3.63-4.34-6.13-5.68a11.38,11.38,0,0,0-4.45-1.3,13.73,13.73,0,0,0-5.8,1.21,28.72,28.72,0,0,0-8.69,5.64c-.59.52-1.07,1.18-1.68,1.68s-1.56,1-2.3,1.55c-1.66,1.25-3.23,2.63-4.94,3.8S65.45,30,63.79,31a30.69,30.69,0,0,1-3.28,1.68,1.78,1.78,0,0,1-2.08-.82c-.25-.87.47-1.18,1-1.52,2.32-1.43,4.72-2.75,7-4.29,2-1.34,3.76-2.93,5.63-4.41L72,21.34a31.65,31.65,0,0,0-4.44-.3,29.22,29.22,0,0,0-4,.9,12.69,12.69,0,0,0-6.31,3.52A30.89,30.89,0,0,0,53.21,31a16.29,16.29,0,0,1-6.06,5.83,8.25,8.25,0,0,1-2,.83c-1.49.35-3,.47-4.25-.71-.7-.67-1.32-1.42-2-2.18A6,6,0,0,0,38,38.5a2.24,2.24,0,0,0,.25,1.06c.68,1.18.39,1.95-.89,2.39-5.16,1.75-9.66,4.37-12.47,9.29a7.61,7.61,0,0,0-1.31,4.52,2,2,0,0,0,1.32,1.93A8,8,0,0,1,29,61c.95,1.51,1.32,3.76-.37,5.26a5.68,5.68,0,0,1-4,1.61c-1.26-.06-2.51-.24-3.77-.38-2.8-.32-4.76,1-6.24,3.21a2.07,2.07,0,0,0-.4,1.29c.25,2.06.51,4.12.93,6.15.36,1.74.58,3.38-.57,4.91-.07.1,0,.29,0,.46,2.11-.47,2.62-.17,2.87,2a7.56,7.56,0,0,1-.36,2.73,54.14,54.14,0,0,1-1.78,5.63c-.66,1.63-1.67,3.1-2.4,4.7-1,2.17-1.84,4.4-2.79,6.59a25.19,25.19,0,0,0-1.88,8.75,57.5,57.5,0,0,0,0,7.19,20.8,20.8,0,0,0,1,4.85,37.66,37.66,0,0,0,2.27,6c1.05,2,1.64,3.95,1,6.21a4.69,4.69,0,0,1-3.19,3.31c-1.61.55-2.81-.36-3.75-1.51a1.86,1.86,0,0,1-.36-1.59,2.31,2.31,0,0,1,1.42-1.06,6.49,6.49,0,0,1,2,.09A7.8,7.8,0,0,0,9,135.93c.1-1.24-.57-2.11-1.43-2a4.85,4.85,0,0,0-3.51,6.12c.35,1,.6,2,.87,3a7.85,7.85,0,0,0,3.4,4.88c1,.65,2.07.4,3.11.41a5.86,5.86,0,0,1,4.86,2c1.92,2.47,3.38,5.15,2.9,8.51a7.11,7.11,0,0,1-2.12,4.44,15.64,15.64,0,0,1-2.35,1.43,17.67,17.67,0,0,0,2.46.8c1.75.27,2.26.78,2.32,2.53,0,.17.05.33.07.5a9.81,9.81,0,0,0,2.1,5.24,10.67,10.67,0,0,0,4.64,3.56c2.36.89,4.93.35,7.37.07A28,28,0,0,0,38.59,176a28.5,28.5,0,0,1,8.28-1.43c2.16,0,4.32.07,6.48.25s4.46.53,6.69.82c1.81.24,3.61.66,5.43.72a39.73,39.73,0,0,0,5.76-.32c.89-.09,1.73-.59,2.62-.77a10.4,10.4,0,0,0,5.89-3.76,13.44,13.44,0,0,0,1.16-1.94c-.91-.24-1.6-.46-2.3-.59-1.61-.28-3.24-.44-4.84-.77s-3-.76-4.46-1.18a47.57,47.57,0,0,1-11-4.81c-1.78-1.06-3.4-2.39-5.31-3.75-.17,1-.34,1.75-.43,2.53-.15,1.37-.23,2.74-.39,4.11-.12,1.06-.93,1.69-1.8,1.39a2.48,2.48,0,0,1-1.94-1.94c-.14-.85-.33-1.7-.41-2.55a10,10,0,0,1,1.4-6.32c1.09-1.74,1.48-3.73,2.35-5.54a7.2,7.2,0,0,0-.11-5.94c-1.45-3.41-3.19-6.7-4.84-10a21.33,21.33,0,0,0-1.32-2.12c-.78-1.18,1.11-3,2.29-3.05a21.7,21.7,0,0,0,2.47-.44c-.79-.27-1.44-.3-1.77-.63-1.06-1.07-2-2.32-1.7-3.91a16.46,16.46,0,0,1,1.77-5.38,37.86,37.86,0,0,0,3-6.38,2.22,2.22,0,0,0,.12-1.17c-.24-1.65-.52-3.3-.83-4.94a1.59,1.59,0,0,0-.48-.88c-2.16-1.88-2.38-4.16-.58-6.32a2.15,2.15,0,0,1,.18-.24,1.34,1.34,0,0,0,.21-1.89c-.56-1-1-2-1.51-3s-1-2.24-1.64-3.31a2.91,2.91,0,0,1,.27-3.5C49,85,50.75,82.92,52.44,80.81A25.09,25.09,0,0,0,55,77.14c1.48-2.73,2.82-5.54,4.16-8.34A8.31,8.31,0,0,0,59.6,67l-.38-.25-3.15,2.21c-.88.61-1.72,1.27-2.64,1.8a1.12,1.12,0,0,1-1-.2,1.13,1.13,0,0,1-.16-1,7.9,7.9,0,0,1,1.22-1.9,10.48,10.48,0,0,1,7.74-3.85,32.35,32.35,0,0,1,4.71-.11c2,.24,3.89.92,5.86,1.25a42.59,42.59,0,0,0,4.67.35A4.48,4.48,0,0,1,79.12,67a2,2,0,0,1-1.18,2.75A7.43,7.43,0,0,1,75,70c-3.59-.47-7.16-1.08-10.88-1.66a18.28,18.28,0,0,1-.67,2c-1,2.18-1.94,4.4-3.09,6.49a73.54,73.54,0,0,1-4.27,6.87c-1.32,1.88-2.89,3.6-4.39,5.35-.56.65-.6,1.1.15,1.63a4.13,4.13,0,0,1,1,1.2c.45.74.83,1.51,1.27,2.33.75-.85,1.46-1.68,2.2-2.48a16.32,16.32,0,0,1,6.51-4.15A24.5,24.5,0,0,1,70.45,86Q74,85.89,77.61,86a25.44,25.44,0,0,1,3.79.44A19.66,19.66,0,0,1,88,88.78a22.48,22.48,0,0,1,3.42,2.57c1,.89,1.78,2,2.69,3l.46-.4a12.93,12.93,0,0,1,7.06-3.1c1.29-.16,1.29,0,1.21-1.36a1.52,1.52,0,0,1,.94-1.7,1.38,1.38,0,0,1,1.77.5,2.85,2.85,0,0,1,.72,1.41,2.27,2.27,0,0,0,1.82,2,5.91,5.91,0,0,1,1.28.58C110.1,92.79,110.83,93.36,111.62,93.94ZM50,132.12c1.18,1.81,2.27,3.69,3.54,5.44a20.64,20.64,0,0,1,3,7.34,13.1,13.1,0,0,1-.82,8c-.17.41-.42.94-.29,1.29s.67.69,1,1a7,7,0,0,0,.62.49A25.6,25.6,0,0,0,60.31,158a58.46,58.46,0,0,0,6.53,3,60.13,60.13,0,0,0,8,2.54c2.71.61,5.52.78,8.28,1.14.7.09,1.4.2,2.1.23,3.07.15,6.08,1,9.19.62,1.85-.21,3.73-.13,5.58-.29,3-.27,5.93-.58,8.88-1A38.79,38.79,0,0,0,118,162c.43-.17.94-.14,1.35-.34,2.58-1.27,5.14-2.57,7.7-3.87a10.1,10.1,0,0,0,1.5-.77c1.66-1.23,3.35-2.43,4.93-3.76a24.43,24.43,0,0,0,6-6.68,41.41,41.41,0,0,0,2.72-5,34.22,34.22,0,0,0,2.11-7.5,36.76,36.76,0,0,0,.34-8c-1.42.76-2.71,1.56-4.08,2.18a15.24,15.24,0,0,1-4.24,1.5c-2.27.28-4.59.09-6.89.23-2.83.18-5.2-1.13-7.55-2.29a18.62,18.62,0,0,1-5.77-4.45c-1.07-1.23-2-2.57-3-3.88-.54-.73-1-1.52-1.57-2.38a7.33,7.33,0,0,1-3.53,3.47,1.47,1.47,0,0,0-.42.28c-1.12,1-2.59,1-3.92,1.18a8.59,8.59,0,0,1-3.36-.41,5.92,5.92,0,0,1-2.27-1.32,1.39,1.39,0,0,1-.09-1.94,1.85,1.85,0,0,1,1.93-.76,22,22,0,0,0,3.8.36c2.35,0,4.15-1.49,4.07-3.53a38.54,38.54,0,0,0-.82-4.94,17,17,0,0,1-2,.58c-.26,0-.56-.18-.84-.29.17-.21.31-.52.53-.61a7.36,7.36,0,0,1,1.27-.31c1.17-.26.68-1.13.59-1.79s-.45-1.1-1.27-.82a10.3,10.3,0,0,1-2,.5c-.3,0-.63-.22-.94-.34.21-.26.37-.64.64-.76a8.64,8.64,0,0,1,1.74-.49c1.3-.27,1.47-.53,1.11-1.83a5.72,5.72,0,0,0-.25-.68c-1.86-.51-3.4,1.23-5.2.22a2.71,2.71,0,0,1,1.08-.67c1-.3,2-.58,3-.8,1.2-.26.77-1.08.59-1.72-.23-.8-.84-.39-1.34-.27a5.21,5.21,0,0,1-3.37-.17,27.12,27.12,0,0,1,3.13-.9c.55-.14,1.32-.09,1.1-1-.32-1.35-.44-1.4-1.56-1.14a3.33,3.33,0,0,1-2.77-.13l.66-.7a10.27,10.27,0,0,0-4.61,2.91c-.1.09,0,.42,0,.64.28,1.3.67,2.58.85,3.9a17.15,17.15,0,0,1-.28,5.84c-.55,2.77-.73,5.62-2.1,8.17-.82,1.53-1.54,3.13-2.5,4.57-.77,1.15-1.88,2.08-2.76,3.17a17.82,17.82,0,0,1-7.57,5.19,37.34,37.34,0,0,1-6.64,1.44,6.27,6.27,0,0,1-2,.09c-1.81-.25-3.63-.51-5.41-.94-.94-.23-1.76-1-2.7-1.24a13.79,13.79,0,0,1-5.55-3.66,21.17,21.17,0,0,1-4.5-5.46,7.87,7.87,0,0,0-.91-1.22c-1.21,1.57-2.51,3-2.82,5.09,1.57-.85,3.76-.54,4,1.35a5.3,5.3,0,0,1-.34,2.56A8.33,8.33,0,0,1,50,132.12ZM73.77,89.45c-1,0-2,0-2.92,0a15.24,15.24,0,0,0-11.43,5c-1.09,1.22-1.74,2.82-2.76,4.12a3.58,3.58,0,0,0-.62,3.29,21.76,21.76,0,0,1,.68,3.81c.05,1.53-.19,3.07-.28,4.61a7.73,7.73,0,0,0,0,2.2,18,18,0,0,0,3.12,6.36c1.39,1.89,2.66,4,4.85,5.13,1.23.66,2.34,1.54,3.57,2.2,1.66.89,3.52.67,5.32.84a15,15,0,0,0,12.56-4.62,26.13,26.13,0,0,0,6.15-11,55.66,55.66,0,0,0,.86-5.6,11.93,11.93,0,0,0-1.14-6.84A22.87,22.87,0,0,0,88,93.75,11.66,11.66,0,0,0,81.55,90,51.12,51.12,0,0,0,73.77,89.45Zm79.7,24.46a6.9,6.9,0,0,0-.57.93,22.63,22.63,0,0,1-3.75,6.58,1.23,1.23,0,0,0-.14.82c.13,1.6.37,3.19.4,4.79,0,1.89,0,3.79-.18,5.68a22.81,22.81,0,0,1-.53,3.77c-.39,1.61-1,3.16-1.43,4.77-.81,3.24-2.66,6-4.34,8.75a25.72,25.72,0,0,1-4.89,5.59,81.39,81.39,0,0,1-7.19,5.46,28.77,28.77,0,0,1-3.77,2.17c-1.34.68-2.82,1.11-4.11,1.86a23,23,0,0,1-6.08,2.31c-3.32.85-6.7,1.49-10.08,2.06-2.1.36-4.25.43-6.38.65-.67.07-1.33.28-2,.29-2.05,0-4.11,0-6.16-.08-.6,0-1.19-.09-1.79-.14l-3.3-.26,0,.32c6.28,4,12.84,7.12,20.6,6.09A27.34,27.34,0,0,0,118,173.06l-1.62-1.9a6.28,6.28,0,0,1,1-.17,19.28,19.28,0,0,1,6.79,1.23,7.05,7.05,0,0,0,4.57.72c1.57-.41,3.18-.69,4.76-1.09,1.39-.35,2.78-.74,4.13-1.22,2.13-.78,4.33-.51,6.51-.51,1.42,0,2.86.24,4.26.09a2.83,2.83,0,0,0,2.41-3.18c-.09-.72-.21-1.44-.32-2.17-.22-1.41-.52-2.82-.63-4.25a27.88,27.88,0,0,1,1.62-11.22,31.85,31.85,0,0,1,5.3-9.27c1.31-1.67,2.28-3.45,1.64-5.71a3.29,3.29,0,0,1-3.87,1.93c-4.7-1.52-5.22-6.36-2.59-9.62a23.83,23.83,0,0,1,3.64-3.29,3.56,3.56,0,0,0,1.15-4.17,35.09,35.09,0,0,0-2.73-4.94C153.91,114.18,153.74,114.11,153.47,113.91Zm-21.71,12.22c2.16-.09,4.42.17,6.39-1,1.78-1,3.47-2.25,5.2-3.38.89-.57.73-1.38.4-2.13-1.27-2.84-2.47-5.72-3.94-8.45a40.25,40.25,0,0,0-3.63-5.12c-.58-.75-1.37-1.34-2-2.06s-.87-1.29-.17-2.06a1.24,1.24,0,0,0,.22-.83c-.3-3.88-.63-7.76-.92-11.64-.06-.73-.41-.88-1-.86a36.86,36.86,0,0,0-8.18.62,12.07,12.07,0,0,0-5,2.55,20.26,20.26,0,0,0-3.07,3.4,15.43,15.43,0,0,0-2.31,3.92,15.07,15.07,0,0,0-.63,7.59c.54,3.08,1.12,6.18,2.83,8.92a25.4,25.4,0,0,0,6.09,7.31C125,125.15,128,126.51,131.76,126.13Zm17.6-28.37c-2.5-4.57-5.89-8-11.39-9,0,.69,0,1.29.11,1.88.17,1.39.42,2.76.54,4.15.1,1.06.08,2.14.08,3.21a14.91,14.91,0,0,1-.11,3.21,1.94,1.94,0,0,0,.6,2,25.05,25.05,0,0,1,3.65,4.09c1.59,2.64,2.83,5.49,4.22,8.25a3.3,3.3,0,0,0,.45.51,19.37,19.37,0,0,0,2.62-7.92c0-.15-.1-.32-.17-.47a11.8,11.8,0,0,1-1.13-6.59,1.69,1.69,0,0,0,0-.89C148.37,99.21,148.82,98.52,149.36,97.76Zm5.29,32.4c-.25,1.19-.14,1.94.72,2.19a12.91,12.91,0,0,0,2.36.27Zm-2.78-36.62.2-2.5C150.48,91.89,150.47,92,151.87,93.54Zm-43.36,3.62.58,2.34C109.47,98.63,109.77,97.78,108.51,97.16Z"/><path class="cls-1" d="M22.14,126c-2.15.32-4.74-1.8-5.5-4.42a23,23,0,0,1-.59-11.75c.49-2.15.8-4.33,1.39-6.45a36.76,36.76,0,0,1,1.94-5.15c1.1-2.43,2.31-4.81,3.54-7.18a14.16,14.16,0,0,1,1.37-1.84c.35-.46.51-.84-.14-1.23-2.17-1.31-2.51-2.49-1.32-4.88a15.64,15.64,0,0,1,4.11-5c2.3-1.88,4.67-3.7,7.13-5.36a13.79,13.79,0,0,1,3.81-1.51c.35-.1.86.38,1.3.59a3.66,3.66,0,0,1-.68,1c-2.67,2-5.46,3.76-8,5.83a43.32,43.32,0,0,0-4.15,4.3,1,1,0,0,0-.28.41c-.21.82-.4,1.64-.59,2.47a18.24,18.24,0,0,0,2.22-.12,27.29,27.29,0,0,0,8.89-3.81,4.51,4.51,0,0,1,2.85-.71c.77.08.94.47.58,1a5.74,5.74,0,0,1-1.78,1.85c-2.37,1.22-4.82,2.29-7.26,3.38a5.8,5.8,0,0,1-1.64.46,2.68,2.68,0,0,0-2.21,1.81c-1.09,2.33-2.32,4.58-3.43,6.9-.86,1.8-1.72,3.6-2.41,5.47a44.16,44.16,0,0,0-2.33,9.77,21.65,21.65,0,0,0,.64,9.34,6,6,0,0,0,.83,1.71c1,1.4,2.43,1.48,3.83.34s2.21-2.89,3.12-4.48c.77-1.33,1.59-2.63,2.49-3.88.22-.31.8-.38,1.21-.55a4.75,4.75,0,0,1,.27,1.08,10.32,10.32,0,0,1-1.63,5,13.62,13.62,0,0,1-3.84,4.69A5.09,5.09,0,0,1,22.14,126Z"/><path class="cls-1" d="M72.74,30.48c1.73.42,3.67.91,5.62,1.34A9.51,9.51,0,0,0,84,31.67c3-1.2,6-2.66,9.06-3.77a11.75,11.75,0,0,1,8.06,0,7.42,7.42,0,0,1,3.95,4,27.19,27.19,0,0,0,1.67,2.85c.35.55.82,1,.16,1.67a1.61,1.61,0,0,1-2.2-.07c-.77-.87-1.45-1.84-2.14-2.78s-1.15-1.81-1.86-2.61c-1.39-1.58-3.27-1.37-5-1-3.39.67-6.25,2.65-9.38,4A12.29,12.29,0,0,1,75.85,34a5.82,5.82,0,0,0-2.62-.54c-2,.1-4,.07-5.58,1.54-.7.63-1.55,1.12-2.23,1.78-.49.49-.34,1,.45.91,1-.1,1.95-.39,2.94-.49a11.14,11.14,0,0,1,2.45.06,1,1,0,0,1,.61.69,1,1,0,0,1-.59.69,27.63,27.63,0,0,1-3,.93c-1.66.4-3.28.81-5-.09a2.32,2.32,0,0,1-1-3.5A11.38,11.38,0,0,1,70.2,31C71,30.9,71.7,30.7,72.74,30.48Z"/><path class="cls-1" d="M118,72.79c3.5-.38,6.41,1.33,9.41,2.6a5.41,5.41,0,0,1,3.33,3.5,4,4,0,0,1-2.05,4.51,9.84,9.84,0,0,1-4.6.67,16.84,16.84,0,0,1-7-1.79,7.85,7.85,0,0,1-3.8-3.27c-1.22-2.29.17-4.38,1.91-5.31A15.83,15.83,0,0,1,118,72.79Zm7.19,7.71a2,2,0,0,0,.74,0c.36-.11.84-.28,1-.56a1.52,1.52,0,0,0-.2-1.11,2.4,2.4,0,0,0-.76-.64,16.4,16.4,0,0,0-5.41-2.27,8.83,8.83,0,0,0-3.07.06,1.28,1.28,0,0,0-.84.81,1.51,1.51,0,0,0,.44,1.12,4.53,4.53,0,0,0,1.65,1.26A16.13,16.13,0,0,0,125.19,80.5Z"/><path class="cls-1" d="M91.77,77.44a6.07,6.07,0,0,1-2,3.35,15.19,15.19,0,0,1-5.47,2.65c-2.7.73-5.44,1.13-8.18.06-1.66-.66-3.2-3.22-2.15-5.13a6.93,6.93,0,0,1,3.33-3.06c1.53-.67,3.09-1.29,4.67-1.84a9.48,9.48,0,0,1,7.32.22A4.16,4.16,0,0,1,91.77,77.44ZM79.57,80.5a12.44,12.44,0,0,0,8-2.59A1.55,1.55,0,0,0,88,76.68c0-.27-.48-.62-.8-.72-2.38-.75-4.47.33-6.57,1.15a9.62,9.62,0,0,0-2.48,1.52,1.59,1.59,0,0,0-.38,1.31c0,.25.67.42,1,.55A2.68,2.68,0,0,0,79.57,80.5Z"/><path class="cls-1" d="M131.44,62.36c-.14.26-.3.91-.71,1.2a14.76,14.76,0,0,1-3.31,2,2.55,2.55,0,0,1-1.91-.52,1.14,1.14,0,0,1-.3-1.75,8.57,8.57,0,0,1,4.59-2.63C130.64,60.41,131.44,61.2,131.44,62.36Z"/><path class="cls-1" d="M129.29,69.17a2.26,2.26,0,0,1-1.9-1.39c-.22-1,.07-1.36,1.1-1.82s1.83-1,2.74-1.49a1.75,1.75,0,0,1,2.18.37,1.4,1.4,0,0,1,0,2A7.68,7.68,0,0,1,129.29,69.17Z"/><path class="cls-1" d="M95.39,127.53c2.46,1.05,4.86,1.83,7.5,1.13a15,15,0,0,0,2.81-.71,37.33,37.33,0,0,0,3.91-2.37,2.36,2.36,0,0,1,3.1.4,2,2,0,0,1-.57,2.51,16.78,16.78,0,0,1-3.75,2.84,21.78,21.78,0,0,1-5.86,1.5,13.58,13.58,0,0,1-4.88-.27,28.69,28.69,0,0,1-5.13-2.17c-.76-.37-1.35-.93-2.36-.82-1.36.15-2-1-1.5-2.29.6-1.51,2-2,3.29-2.59a14.77,14.77,0,0,1,1.63-.53,2,2,0,0,1,2.41.63c.65.92.24,1.65-.37,2.35A4,4,0,0,0,95.39,127.53Z"/><path class="cls-1" d="M80.58,98.56c2.89-.31,4.85,2.87,4.7,5.31a4.74,4.74,0,0,1-5.22,4.39c-2.51-.07-4.46-2.53-4.37-5.5A4.77,4.77,0,0,1,80.58,98.56Z"/><path class="cls-1" d="M124.8,103.38c.07,2.43-2.51,5-5.52,4.82-1.68-.08-4.28-3-4.16-4.67a5,5,0,0,1,5.33-4.94A5.18,5.18,0,0,1,124.8,103.38Z"/></g></g></svg>