<svg xmlns="http://www.w3.org/2000/svg" viewBox="0 0 301.45 90.79"><defs><style>.cls-1{fill:#fff;}</style></defs><title>Logo Horizontal </title><g id="Camada_2" data-name="Camada 2"><g id="Camada_2-2" data-name="Camada 2"><path class="cls-1" d="M120.29,28.71c0,4.91-2.4,9.07-6.05,11l7,10.26H111l-5.11-8.46h-6V50H91.71V16h16.47C115.09,16,120.29,21.3,120.29,28.71ZM99.92,23.56V33.92H107a5.18,5.18,0,0,0,0-10.36Z"/><path class="cls-1" d="M143.73,44.68H127.31L125.06,50h-8.71l14.56-34h9.17l14.61,34h-8.76ZM140.88,38l-5.31-12.72L130.16,38Z"/><path class="cls-1" d="M200.22,44.68H183.8L181.54,50h-8.71L187.4,16h9.16l14.62,34h-8.76ZM197.36,38l-5.3-12.72L186.65,38Z"/><polygon class="cls-1" points="175.53 31.37 164.57 31.37 164.57 23.56 178.87 23.56 182.13 15.95 156.36 15.95 156.36 49.99 164.57 49.99 164.57 38.93 172.29 38.93 175.53 31.37"/><path class="cls-1" d="M239.64,16v7.61H221.76v5.85h14.92v7.11H221.76v5.86h17.88V50H213.55V16Z"/><path class="cls-1" d="M286.83,16h-9.16L266.35,42.38H251.52V16h-8.21V50h28.5l2.25-5.31h16.42l2.2,5.31h8.77Zm-9.92,22,5.41-12.72L287.63,38Z"/><path class="cls-1" d="M253.55,73.77a1.33,1.33,0,0,1,.94-.4,1.31,1.31,0,0,1,1,.4,1.38,1.38,0,0,1,.41,1,1.28,1.28,0,0,1-.41,1,1.34,1.34,0,0,1-1,.39,1.36,1.36,0,0,1-.94-.39,1.28,1.28,0,0,1-.44-1A1.37,1.37,0,0,1,253.55,73.77Z"/><path class="cls-1" d="M264.84,76.44a6.76,6.76,0,0,1-3.5-.92A6.85,6.85,0,0,1,258.85,73a7.91,7.91,0,0,1,0-7.46A6.59,6.59,0,0,1,261.43,63a7.37,7.37,0,0,1,3.55-.87,7.23,7.23,0,0,1,3.75,1.05,6.33,6.33,0,0,1,2.57,2.72l-.28.7V55.7h1.53V76.17H271V71.94l.31.73a6.79,6.79,0,0,1-2.62,2.73A7.34,7.34,0,0,1,264.84,76.44Zm.38-1.32a5.79,5.79,0,0,0,2.85-.7,5.85,5.85,0,0,0,2.06-1.89,5.48,5.48,0,0,0,.89-2.69V68.17a5.39,5.39,0,0,0-1.1-2.43,6.46,6.46,0,0,0-2.06-1.69,5.65,5.65,0,0,0-2.64-.63,5.8,5.8,0,0,0-2.92.75,5.6,5.6,0,0,0-2.07,2.06,5.78,5.78,0,0,0-.77,3,5.65,5.65,0,0,0,.77,3,6,6,0,0,0,2.09,2.11A5.47,5.47,0,0,0,265.22,75.12Z"/><path class="cls-1" d="M281.65,76.44a7.37,7.37,0,0,1-3.74-.94A6.81,6.81,0,0,1,275.35,73a7.11,7.11,0,0,1-.93-3.63,6.86,6.86,0,0,1,1-3.61A7.44,7.44,0,0,1,278,63.1a7,7,0,0,1,3.66-1,6,6,0,0,1,4.06,1.42,8,8,0,0,1,2.37,3.68l-11.94,4.65-.46-1.12,11-4.33-.31.49a6.38,6.38,0,0,0-1.83-2.46,4.53,4.53,0,0,0-3-1,5.35,5.35,0,0,0-2.85.78,6,6,0,0,0-2,2.1,5.74,5.74,0,0,0-.77,3,6,6,0,0,0,.72,2.88,5.55,5.55,0,0,0,5,3,5.78,5.78,0,0,0,2.17-.42,6.4,6.4,0,0,0,1.85-1.12l.77,1.12A8.23,8.23,0,0,1,284.25,76,7.34,7.34,0,0,1,281.65,76.44Z"/><path class="cls-1" d="M294.53,76.69l-6.81-14.11h1.75l5.72,12.47-.94,0,5.52-12.43h1.68l-6.71,14.11Z"/><path class="cls-1" d="M53.73,44.86a4.49,4.49,0,0,1,1.44-.5c.21-.06.53,0,.4-.36s.07-.86-.57-.77a1.47,1.47,0,0,1-.72,0c-.09,0-.22,0-.21-.18a.27.27,0,0,1,.18-.16,2.52,2.52,0,0,1,.54-.14c.42-.06.58-.26.41-.67a1.51,1.51,0,0,1-.09-1,.7.7,0,0,1,1.19-.38,1.65,1.65,0,0,1,.48.77c.38,1.31.68,2.65,1.13,3.93.54,1.53.68,3.13,1.1,4.68a37,37,0,0,1,.77,3.91,3.73,3.73,0,0,1-1.69,3.77,6,6,0,0,1-2.26.86A5.44,5.44,0,0,1,53,58.28a1.06,1.06,0,0,1-.67-1.12.84.84,0,0,1,.78-.71,4.61,4.61,0,0,1,1.27.16,3.25,3.25,0,0,0,2.69-.51A2,2,0,0,0,57.68,54c-.08-.53-.27-1-.35-1.55,0-.32-.17-.37-.44-.29a2.39,2.39,0,0,0-.74.2.19.19,0,0,1-.27-.06c-.07-.15,0-.23.14-.28l.53-.2c.6-.18.64-.29.46-1-.11-.47-.42-.46-.79-.38l-1,.21c-.18,0-.38.06-.43-.16s.16-.29.32-.34a5.35,5.35,0,0,1,1-.25c.51,0,.63-.33.54-.77,0-.2-.12-.39-.17-.59s-.14-.19-.33-.18c-.66,0-1.25.36-1.89.45-.18,0-.42.07-.46-.18s.19-.24.36-.29c.61-.16,1.22-.34,1.83-.49.27-.06.33-.19.27-.43s-.06-.38-.12-.56-.37-.29-.59-.18a3.51,3.51,0,0,1-1.15.19.25.25,0,0,1-.3-.14c0-.16.1-.2.21-.24a4.18,4.18,0,0,1,1.1-.25c.29,0,.59-.12.5-.54-.15-.73-.26-.83-.79-.7C54.34,45.12,54.13,45.12,53.73,44.86Z"/><path class="cls-1" d="M54.07,64.65a9.39,9.39,0,0,1-4.62-1.43,1.85,1.85,0,0,0-1.25-.45c-.68,0-1-.49-.7-1.11a1.91,1.91,0,0,1,1-1,10.24,10.24,0,0,1,1.76-.7,1,1,0,0,1,1.13.43.81.81,0,0,1-.18,1.07c-.32.33,0,.46.2.54a6.66,6.66,0,0,0,3.85.41,5.88,5.88,0,0,0,2.29-.82c.39-.31.81-.58,1.21-.85a1.28,1.28,0,0,1,1.5.23,1,1,0,0,1-.2,1.23,7.11,7.11,0,0,1-2.13,1.59A8.67,8.67,0,0,1,54.07,64.65Z"/><path class="cls-1" d="M84.46,62.14c-.56-.36-.57-.37-.09-.84.16-.16.33-.3.47-.47a4,4,0,0,0,1-1.76,5.26,5.26,0,0,0-.91-3.79c-.7-1.17-1.6-2.21-2.28-3.41-.12-.22-.27-.44-.16-.67a4.3,4.3,0,0,0,.18-1.42A.93.93,0,0,1,83,49.1,2.09,2.09,0,0,0,83.27,46a2.42,2.42,0,0,0-.49-.52c-.1-.06-.17-.15-.08-.25.31-.4.21-.89.32-1.33a4.64,4.64,0,0,0-.61-3.45,1.09,1.09,0,0,0-1-.68c-.51,0-.87.09-1,.61a2.2,2.2,0,0,1-.23.46c-.11.17-.23.37-.47.35s-.27-.22-.34-.4a7.19,7.19,0,0,1-.09-4c.23-1.35.59-2.67.8-4a15,15,0,0,0-.21-6.3,10,10,0,0,0-1-2.52,12.23,12.23,0,0,0-2.74-3.42,13.24,13.24,0,0,0-2.67-1.69c-.49-.23-1-.26-1.55-.47A3.42,3.42,0,0,1,73,17.42c.5-.29.53-.26.65.3a.78.78,0,0,0,0,.14,1.25,1.25,0,0,0,1.59.86,1.34,1.34,0,0,0,.95-1.47c-.07-.42.11-.57.43-.74a9.65,9.65,0,0,1,2-.5c.42-.12.91-.19,1-.71,0-.26-.64-.57-1.21-.6a6,6,0,0,0-3.41,1,1.87,1.87,0,0,1-1.08.26,2.89,2.89,0,0,0-1.5.3c-.13.07-.27.23-.41.12s0-.28,0-.43a6.14,6.14,0,0,0,.1-2.49.6.6,0,0,0-.62-.51c-.29,0-.65,0-.71.37a6.83,6.83,0,0,0-.37,1.85,3.48,3.48,0,0,1-.13.78c-.65-2.3-1.38-4.39-3.19-5.92a3.5,3.5,0,0,1-.9-.9,3.33,3.33,0,0,0-1.45-1.18,22.49,22.49,0,0,0-3.46-1.29.9.9,0,0,0-.56,0A1.89,1.89,0,0,1,59.06,6c-.78-.59-1.45-1.34-2.17-2a16.3,16.3,0,0,0-3.56-2.87A9,9,0,0,0,49.24,0,9.42,9.42,0,0,0,45,.93c-.83.43-1.69.8-2.49,1.31-.53.33-.94.79-1.44,1.15A1.79,1.79,0,0,1,39,3.66a7.24,7.24,0,0,0-4.25-.23A13.06,13.06,0,0,0,30.3,5.3,12.15,12.15,0,0,0,27,9.06c-.94,1.38-1.87,2.75-3.63,3.23-.46.13-.48-.07-.45-.39.05-.52.08-1.07.18-1.57s-.19-.63-.55-.73a1.68,1.68,0,0,0-.86.06c-.68.19-1,.77-1.46,1.24a4.46,4.46,0,0,0-1.51,3.82c0,.19-.06.25-.22.33-.7.33-1.42.59-2.13.87a10.7,10.7,0,0,0-3.06,2.13A8.41,8.41,0,0,0,11,21.34a5.59,5.59,0,0,0-.34,2.91,2.28,2.28,0,0,0,1.92,1.93,1.84,1.84,0,0,1,1.26,1.37c0,.25,0,.49-.3.58a2.69,2.69,0,0,1-1.46.1A5.51,5.51,0,0,0,7.33,29.3a3.45,3.45,0,0,0-1.5,3.19c.12,1,.29,2.06.45,3.09a3.38,3.38,0,0,1-.79,3.05c-.41.44-.39.74.14,1,.31.18.64.31,1,.5-.8.32-1.48.7-2.24.93-.2.07-.4.17-.41.4a.42.42,0,0,0,.34.41c.46.14.92.42,1.41.07.3-.21.69-.16,1-.32a5.33,5.33,0,0,1-.87,2.2C5.36,45,4.6,46.06,4.08,47.22a17.54,17.54,0,0,0-1.47,4.25c-.1.59-.34,1.15-.4,1.73a30,30,0,0,0-.14,4.92,8.84,8.84,0,0,0,.15,1.37,27,27,0,0,0,1.12,3.62c.11.26.08.38-.2.49a4.82,4.82,0,0,0-1.65.82A4.51,4.51,0,0,0,.08,68.73a8.6,8.6,0,0,0,1.58,4.06,4.5,4.5,0,0,0,2.63,2,5.44,5.44,0,0,0,2.05,0,.86.86,0,0,1,.94.42,4.4,4.4,0,0,1,1,3.17c-.09.84-.5,1.31-1.33,1.33a3.46,3.46,0,0,0-.46,0c-.45.06-.83.52-.7.9s.13.64.21,1a2.56,2.56,0,0,0,1.89,2,.82.82,0,0,1,.69.86,5.6,5.6,0,0,0,.94,2.79,8.79,8.79,0,0,0,2.37,2.3,6.81,6.81,0,0,0,3.5,1.22A13.55,13.55,0,0,0,19,90.36a43.08,43.08,0,0,1,4.32-1,8,8,0,0,1,1.51-.19c.85.08,1.7,0,2.55.11a19.65,19.65,0,0,1,3.35.4,23.83,23.83,0,0,0,2.62.43,16.59,16.59,0,0,0,2.55.1,14.77,14.77,0,0,0,5.27-.87A8.46,8.46,0,0,0,45,86.13c.15-.2.2-.25.42-.1a19.49,19.49,0,0,0,2.17,1.34,34.24,34.24,0,0,0,3.51,1.54,14,14,0,0,0,7.18.65,16.73,16.73,0,0,0,5.84-2,.66.66,0,0,1,.58-.14c.59.2,1.19.39,1.77.61a6.9,6.9,0,0,0,2.84.29,17.33,17.33,0,0,0,3.58-1,12.28,12.28,0,0,1,4.3-.42,7.15,7.15,0,0,0,3.66-.43,3.47,3.47,0,0,0,1.87-3,25.29,25.29,0,0,0-.39-3.25,6.38,6.38,0,0,1,0-3,.34.34,0,0,0,0-.1,13.41,13.41,0,0,1,1.12-3.93,21.27,21.27,0,0,1,2.12-3.51,10.47,10.47,0,0,0,1.11-2.09C87.39,65.46,86,63.17,84.46,62.14ZM81.57,41.59a6.13,6.13,0,0,1,.26,2.81,5.43,5.43,0,0,0-1.36-1.88C81.18,42.21,81.07,40.6,81.57,41.59Zm-2,4.25c0,.09.14.19.06.28-.48.48-.15,1.07-.21,1.6a6.69,6.69,0,0,0,.62,3.63.62.62,0,0,1,.07.29,9.13,9.13,0,0,1-1.52,4.15,11.69,11.69,0,0,0-1.34-2.86,10.85,10.85,0,0,0-2.61-3.62,1.58,1.58,0,0,1-.72-1.7,12.31,12.31,0,0,0,0-2.64c-.05-1.14-.19-2.27-.25-3.4,0-.31.06-.33.35-.27a7.15,7.15,0,0,1,4.14,2.46A6.12,6.12,0,0,1,79.6,45.84Zm-7.92,3.57c.56.49.95,1.13,1.46,1.64A12.52,12.52,0,0,1,75,53.84a18,18,0,0,1,1.84,4.33.45.45,0,0,1-.2.57,24.09,24.09,0,0,1-2.42,1.72,5.59,5.59,0,0,1-2.51.69A15.17,15.17,0,0,1,68,61a5.74,5.74,0,0,1-2.35-1.21c-.34-.27-.71-.47-1-.72a9.1,9.1,0,0,1-1.77-2.05,12.2,12.2,0,0,1-2.2-5,12.49,12.49,0,0,1-.35-2.7A7.6,7.6,0,0,1,61,46a10,10,0,0,1,2.61-3.25,6.93,6.93,0,0,1,3.64-1.46c.72-.07,1.43-.1,2.15-.13.47,0,.93,0,1.39,0,.28,0,.36.09.38.35a11.85,11.85,0,0,0,.15,1.89c.21,1.08.09,2.17.27,3.25.07.42,0,.88.08,1.32a.47.47,0,0,1-.11.33C71.22,48.75,71.25,49,71.68,49.41Zm-28.58,35a2.92,2.92,0,0,1-.41.83,5.69,5.69,0,0,1-3.18,2.12,16.5,16.5,0,0,1-1.64.51,22,22,0,0,1-4.8-.09c-1.14-.14-2.27-.38-3.4-.59a5.12,5.12,0,0,0-.56,0A9.07,9.07,0,0,1,27,87,1.5,1.5,0,0,0,26,87c-.38.17-.72-.13-1.1-.09a27.48,27.48,0,0,0-3.39.53c-1.11.25-2.2.62-3.29,1a16.09,16.09,0,0,1-2.08.2,3.89,3.89,0,0,1-2.62-.42,6.23,6.23,0,0,1-2.61-2.72,5.4,5.4,0,0,1-.49-2c0-.9-.33-1.22-1.24-1.29a2.23,2.23,0,0,1-.92-.31c-.11,0-.23-.1-.23-.24s.16-.15.26-.18a3.07,3.07,0,0,0,2-2.58A5.61,5.61,0,0,0,9,74.51,3.25,3.25,0,0,0,5.87,73c-1.6.15-2.41-.77-3-2a7.79,7.79,0,0,1-.78-3.16,2.2,2.2,0,0,1,1.66-2.43c.57-.16.85,0,1,.55a1.7,1.7,0,0,1,0,.71c-.09.31-.22.46-.58.39a1.2,1.2,0,0,0-1,.09c-.81.63-.6,1.2.22,1.75a2.13,2.13,0,0,0,3.27-1.35,4.17,4.17,0,0,0-.48-3.24,20.45,20.45,0,0,1-1.54-4.17A13.16,13.16,0,0,1,4.23,56a23.46,23.46,0,0,1,1-6,35.38,35.38,0,0,1,1.6-3.54c.42-.87.89-1.73,1.29-2.61a14.55,14.55,0,0,0,1.12-4,2.91,2.91,0,0,0-.11-1c-.08-.4-.62-.6-1.1-.44-.11,0-.22.13-.33,0s0-.22,0-.32a2.74,2.74,0,0,0,.28-2.23c-.31-1.1-.32-2.24-.55-3.34a1.16,1.16,0,0,1,.19-.88,3.19,3.19,0,0,1,3.42-1.74,8.23,8.23,0,0,0,2.09.16,2.74,2.74,0,0,0,2.39-1.36,2.27,2.27,0,0,0-.24-2.34,4.17,4.17,0,0,0-2.14-1.69.86.86,0,0,1-.63-.74,2.68,2.68,0,0,1,.29-2,3.92,3.92,0,0,0,.48-1,4.69,4.69,0,0,1,1.36-1.72,12.14,12.14,0,0,1,2.33-1.75A12.26,12.26,0,0,1,20,16.23c.66-.18.79-.66.39-1.18a.45.45,0,0,1-.11-.17,3.12,3.12,0,0,1,.54-2.57c.22.39.26.76.6,1.07a2.81,2.81,0,0,0,3.24.37,6.85,6.85,0,0,0,3.06-2.42c.64-.92,1.24-1.88,1.89-2.8A8,8,0,0,1,33,5.9a11.16,11.16,0,0,1,2.74-.71,9.16,9.16,0,0,1,2.75.16,22.76,22.76,0,0,1-3,2.46,36.66,36.66,0,0,1-3.79,2.33c-.28.14-.59.33-.46.7a.77.77,0,0,0,.79.48A1.9,1.9,0,0,0,33.14,11c1.08-.81,2.36-1.29,3.46-2.08.92-.65,1.81-1.35,2.68-2.07a3.36,3.36,0,0,1,1.17-.79c.49-.14.61-.67,1-1a17.34,17.34,0,0,1,4.51-2.91,8.57,8.57,0,0,1,3.2-.73,4.54,4.54,0,0,1,2.55.79,7.06,7.06,0,0,1,1.51,1.1c.46.56,1,1,1.44,1.6a15.52,15.52,0,0,0,1.94,2,7.65,7.65,0,0,0,2,1.46,5.35,5.35,0,0,0,2.58.68c.35,0,.63.24,1,.34a7.29,7.29,0,0,1,2.25,1.28c.34.29.72.52,1,.82a8.53,8.53,0,0,1,2.46,3.69c.1.28.28.5.38.78a11.83,11.83,0,0,1,.28,4.27,4.53,4.53,0,0,1-.54,2.11c-.34.62-.63,1.27-1,1.88a1.24,1.24,0,0,1-.87.58c-1.1.21-2.21.39-3.31.57-.76.12-1.52.25-2.28.32A8.9,8.9,0,0,1,58,25.58c-1.05-.19-2-.65-3.05-.88-.24-.05-.24-.16-.09-.31.53-.52.61-1.29,1-1.87A2,2,0,0,0,56,21.36c0-.25-.25-.35-.47-.42a.51.51,0,0,0-.63.2c-.33.52-.66,1-1,1.57A26.11,26.11,0,0,1,52,25.34a7.21,7.21,0,0,1-1.22,1.31,4.49,4.49,0,0,1-2,1.09c-.8.13-1.54.57-2.36.67a4.37,4.37,0,0,0-1.6.52c-.36.2-.75.41-.67.93a1.23,1.23,0,0,0,1,1.15,5.45,5.45,0,0,0,2.57-.31,14.27,14.27,0,0,0,2.9-1,11.85,11.85,0,0,0,3.5-2.25.64.64,0,0,1,.78-.18,8,8,0,0,0,1.51.45,9.74,9.74,0,0,1,1.79.44,6.9,6.9,0,0,0,2.75.09A16.22,16.22,0,0,0,64,27.78a10,10,0,0,0,3.34-.91,4.09,4.09,0,0,0,2.05-2.38c.13-.49.56-.88.75-1.39a14.77,14.77,0,0,1,.66-1.94,1,1,0,0,0,0-.6c0-.46.16-.64.6-.54a7,7,0,0,1,3.24,1.75,12.29,12.29,0,0,1,2.17,2.77,5.18,5.18,0,0,1,.67,1.86c.1.62.35,1.21.42,1.84a8.37,8.37,0,0,1-.09,3.19,20.87,20.87,0,0,0-.39,2.12c-.08.43-.2.86-.25,1.3-.1.84-.35,1.67-.43,2.51a6.16,6.16,0,0,0,.1,2.83l-3.34-.86c-.23-.06-.27-.21-.3-.41-.09-.62-.06-1.25-.2-1.84-.26-1-.29-2.08-.54-3.11A18.68,18.68,0,0,1,72,31.73c-.08-.66-1-1-1.74-.68a1.11,1.11,0,0,0-.69,1.43,25.65,25.65,0,0,1,1,4.59c.08.58.14,1.17.25,1.75.06.31,0,.41-.34.42-.55,0-1.1.08-1.64.08a14.46,14.46,0,0,0-4.42.82,9.57,9.57,0,0,0-3.88,2.57,4.66,4.66,0,0,0-.7.95c-.19.35-.36.4-.64.11A5.32,5.32,0,0,0,56,42.33a6.41,6.41,0,0,0-2.38.13,7.8,7.8,0,0,0-2.83,1.28c-.21.15-.33.55-.63.42s-.31-.39-.48-.58A9.71,9.71,0,0,0,46.34,41a12.56,12.56,0,0,0-5.19-1.21A25.76,25.76,0,0,0,36,40a17,17,0,0,0-2.42.66A9.41,9.41,0,0,0,29,44l-.18.21c-.22-.42-.43-.77-.59-1.14a1.93,1.93,0,0,0-.73-.91c-.28-.18-.3-.37-.07-.62A34.65,34.65,0,0,0,31,36.94a29.51,29.51,0,0,0,2-3.52,19.24,19.24,0,0,0,1.11-2.9c.06-.21.12-.37.38-.25a18.11,18.11,0,0,0,3.41.7,13.61,13.61,0,0,0,3,.33,1.24,1.24,0,0,0,1.31-1,1.59,1.59,0,0,0-1.58-1.51,11.41,11.41,0,0,1-2.54-.26c-.69-.13-1.37-.31-2.06-.38-.43,0-.76-.33-1.19-.31-.78,0-1.57.1-2.36.12a6.21,6.21,0,0,0-4.37,2.38,1.88,1.88,0,0,0-.36.9c-.06.31.27.54.63.45a3.94,3.94,0,0,0,1.51-1,13.29,13.29,0,0,1,1.41-.94c.12-.08.29-.19.42-.08s.09.29,0,.43c-.49,1.15-1,2.28-1.56,3.4a35.51,35.51,0,0,1-2.45,3.9,25.43,25.43,0,0,1-2.41,2.87,1.68,1.68,0,0,0-.33,2,22.18,22.18,0,0,0,1,2c.25.44.47.88.71,1.32a.87.87,0,0,1-.12,1.13,1.56,1.56,0,0,0-.16.2,2,2,0,0,0,.24,3,1.28,1.28,0,0,1,.52,1.08,10.54,10.54,0,0,0,.27,1.87,4.22,4.22,0,0,1-.28,1.78c-.34,1.38-1.41,2.37-1.84,3.69a4.09,4.09,0,0,0-.22,2.9,1.61,1.61,0,0,0,1.67,1.13,2.39,2.39,0,0,1-1.37.44c-.72.1-1.42.84-1.23,1.4a7,7,0,0,0,.62,1c.83,1.56,1.71,3.09,2.41,4.71a6.57,6.57,0,0,1,.55,3.69.57.57,0,0,1-.11.28,7.45,7.45,0,0,0-.79,2,7.13,7.13,0,0,1-.52.87,7,7,0,0,0-.57,4.9,1.47,1.47,0,0,0,1.16,1,.71.71,0,0,0,.79-.7A14.35,14.35,0,0,0,28,79.65a2.69,2.69,0,0,1,.31-1.1c1.05.22,1.58,1.15,2.44,1.63A26.8,26.8,0,0,0,37,82.93a12.93,12.93,0,0,0,2.2.57A22,22,0,0,0,42,84c.31,0,.62.19,1,.16C43.11,84.14,43.17,84.23,43.1,84.38ZM30.2,50.22a7.62,7.62,0,0,0-.32-2,2.74,2.74,0,0,1,.53-2.23,8.45,8.45,0,0,1,3.82-3.59,8.82,8.82,0,0,1,3.18-.75h1.08q.9,0,1.8-.06a9.3,9.3,0,0,1,4,.57,7.28,7.28,0,0,1,3.33,2.55,18.66,18.66,0,0,1,1.18,1.72,4.38,4.38,0,0,1,.55,1.68c0,.4.22.75.21,1.16a19.77,19.77,0,0,1-.32,3.25,13.63,13.63,0,0,1-2,4.84,9.74,9.74,0,0,1-4.68,3.94,8.76,8.76,0,0,1-3.34.38c-.43,0-.86,0-1.29,0a5.48,5.48,0,0,1-2.42-.75,18.56,18.56,0,0,1-1.69-1.15,7.52,7.52,0,0,1-1.46-1.57,13.79,13.79,0,0,1-1.64-2.52,3.85,3.85,0,0,1-.67-2.93A9.2,9.2,0,0,0,30.2,50.22Zm12.26,31.3c-.75-.16-1.55-.19-2.31-.35a33,33,0,0,1-4.26-1.24c-1.25-.45-2.35-1.17-3.57-1.65A9.28,9.28,0,0,1,30.54,77c-.34-.25-.64-.56-1-.82s-.15-.27,0-.44a5.87,5.87,0,0,0,.75-3,6.24,6.24,0,0,0-.42-2.64,11.66,11.66,0,0,0-1-2.39,26.69,26.69,0,0,0-2.12-3.15c-.14-.15-.17-.22.08-.31A4.22,4.22,0,0,0,29.28,62a2.7,2.7,0,0,0,.2-1.41c-.07-1-1.37-1.27-2.14-.62a4.6,4.6,0,0,1,1-2.09l.11-.1c.21-.17.26-.63.51-.57s.39.4.51.65a11.11,11.11,0,0,0,2.74,3.23,6.78,6.78,0,0,0,2.6,1.6c.55.16,1,.55,1.63.7a10.69,10.69,0,0,0,4.36.27,13.26,13.26,0,0,0,2.41-.44,8,8,0,0,0,.81-.32,14.07,14.07,0,0,0,2.85-1.79,20.07,20.07,0,0,0,1.69-1.76A11.19,11.19,0,0,0,50,57.17c.19-.34.32-.73.51-1.07a12.7,12.7,0,0,0,1.05-4,13.82,13.82,0,0,0,.28-2,11.13,11.13,0,0,0-.38-2.76,7.13,7.13,0,0,0-.18-.8.41.41,0,0,1,.16-.45,4.73,4.73,0,0,1,3.62-1.53,4.25,4.25,0,0,1,2.62.94,1.48,1.48,0,0,1,.56,1.78,5.27,5.27,0,0,0,.09,2.43c.28,1.35.64,2.68.83,4.06A7,7,0,0,0,60,57a16.36,16.36,0,0,0,2.74,3.29A11,11,0,0,0,65.6,62.2c.7.28,1.4.59,2.11.86a8.35,8.35,0,0,0,2.49.21,13.58,13.58,0,0,0,1.56-.08,8.11,8.11,0,0,0,3.59-1.08c.6-.33,1.22-.66,1.88-1.06a16.39,16.39,0,0,1-.14,4.09,19.55,19.55,0,0,1-.47,2.25,18.64,18.64,0,0,1-2.14,4.7,18,18,0,0,1-3.28,3.63,18.46,18.46,0,0,1-2.59,1.92,15.24,15.24,0,0,1-2.22,1.2c-.64.27-1.27.58-1.89.89a8.59,8.59,0,0,1-1.62.62,21,21,0,0,1-3.18.92c-1.43.19-2.83.57-4.28.65a25.35,25.35,0,0,0-2.6.23c-.69.11-1.4-.1-2.09,0-1.63.33-3.22-.17-4.82-.23A21.4,21.4,0,0,1,42.46,81.52Zm41.27-13a17.4,17.4,0,0,0-2.87,5A16,16,0,0,0,80,79.49a5.54,5.54,0,0,0,.23,1.16c.16.73.12,1.49.28,2.23a1.5,1.5,0,0,1-1.3,1.79,7.24,7.24,0,0,1-2.08,0,10.1,10.1,0,0,0-3.11.08,20.32,20.32,0,0,0-2.6.77,7.86,7.86,0,0,1-3.83.64,3.69,3.69,0,0,1-1.19-.33,10.13,10.13,0,0,0-3.6-.72c-.17,0-.39-.06-.48.11s.1.35.22.49c.5.55.5.55-.24.88A14.92,14.92,0,0,1,56.11,88a12.18,12.18,0,0,1-4.33-.71,27.49,27.49,0,0,1-5.38-2.67A2.75,2.75,0,0,1,48,84.55a16.38,16.38,0,0,0,2.7.16c.35,0,.72-.06,1.07,0a15.15,15.15,0,0,0,2.6-.24,15.85,15.85,0,0,0,1.82,0A18.58,18.58,0,0,1,58.52,84c1.17-.14,2.25-.59,3.4-.74.61-.07,1.12-.44,1.7-.55a10.34,10.34,0,0,0,2.08-.89c.68-.28,1.36-.54,2-.87a28.62,28.62,0,0,0,2.92-1.76,19.64,19.64,0,0,0,3.52-2.84,14.21,14.21,0,0,0,2.08-2.46,20.13,20.13,0,0,0,2.36-4.76c.22-.88.53-1.76.78-2.64a8.5,8.5,0,0,0,.26-1.82c.06-1.07.13-2.15.1-3.22a10.93,10.93,0,0,0-.21-2.35.55.55,0,0,1,.14-.6,10.36,10.36,0,0,0,1.75-3,.39.39,0,0,1,0-.14c.14-.26.15-.7.51-.69s.34.44.51.66a7,7,0,0,1,1.06,1.91c.36,1.16.33,1.65-.52,2.44a15,15,0,0,0-2,1.87c-1.17,1.61-1,4.33,1.52,5a1.76,1.76,0,0,0,2-1A3.32,3.32,0,0,1,83.73,68.56Zm.28-4h-.9a.67.67,0,0,1-.64-.51c-.06-.17-.1-.41,0-.54s.3.06.46.12C83.43,63.79,83.67,64.19,84,64.56Z"/><path class="cls-1" d="M11.62,61a3,3,0,0,1-2.76-2.37,12.76,12.76,0,0,1-.34-6.23,27.63,27.63,0,0,1,1.64-5.8,30.37,30.37,0,0,1,1.75-3.58,12,12,0,0,1,1-1.59c.26-.32.21-.58-.2-.76-.86-.39-1-.71-.83-1.61a5.89,5.89,0,0,1,1.65-2.77,19.76,19.76,0,0,1,3.08-2.62,11,11,0,0,1,3.27-1.8.78.78,0,0,1,.45-.05c.21.06.46.12.53.36s-.17.35-.34.45a38.09,38.09,0,0,0-3.85,2.71A10.58,10.58,0,0,0,14,38.09a3.3,3.3,0,0,0-.48,1.18c-.06.34.08.49.41.46A9,9,0,0,0,16,39.26a15.16,15.16,0,0,0,3.61-1.78,2.35,2.35,0,0,1,1.57-.29c.31,0,.28.24.19.45a2.28,2.28,0,0,1-1.12,1.09,28.26,28.26,0,0,1-3.52,1.66c-.51.16-1,.25-1.54.39a.58.58,0,0,0-.43.31c-.48,1.08-1.21,2-1.66,3.12a34.8,34.8,0,0,0-1.57,3.59c-.27.93-.69,1.83-.94,2.76a23.19,23.19,0,0,0-.49,2.51,16,16,0,0,0-.12,3,7.14,7.14,0,0,0,.78,3,1.25,1.25,0,0,0,2.14.44,7.66,7.66,0,0,0,1.92-2.81,8,8,0,0,1,1.13-1.69c.17-.19.4-.35.61-.29s.17.33.17.54A6,6,0,0,1,15.82,58a7.54,7.54,0,0,1-2,2.52A2.9,2.9,0,0,1,11.62,61Z"/><path class="cls-1" d="M38.62,10.29a11.36,11.36,0,0,1,3.14.6,5.81,5.81,0,0,0,3-.07c1.29-.42,2.45-1.12,3.71-1.62a8,8,0,0,1,5.09-.52,3.54,3.54,0,0,1,1.73,1.15A31.12,31.12,0,0,1,57.1,12.7c.24.34,0,.67-.38.76a1,1,0,0,1-1.1-.47c-.48-.71-1-1.39-1.46-2.11-.77-1.19-1.8-1.25-3.18-1a20.8,20.8,0,0,0-4.72,2,6.82,6.82,0,0,1-5.9.1,4.1,4.1,0,0,0-2.17-.21,5,5,0,0,0-3.25,1.66c-.11.13-.29.24-.2.44s.29.13.46.15a4.58,4.58,0,0,0,1.51-.27,3,3,0,0,1,1.12,0c.24,0,.5.14.52.42s-.24.37-.44.44c-.67.21-1.36.34-2,.53a2.8,2.8,0,0,1-2.09-.17,1.21,1.21,0,0,1-.52-1.84,6.12,6.12,0,0,1,4.17-2.63A4,4,0,0,1,38.62,10.29Z"/><path class="cls-1" d="M49,35.18A3.77,3.77,0,0,1,47.9,37a8.45,8.45,0,0,1-3,1.44,6.29,6.29,0,0,1-4.46-.07A2,2,0,0,1,39.39,37a2.19,2.19,0,0,1,1.29-2.49,11.06,11.06,0,0,1,4.48-1.66,3.93,3.93,0,0,1,3.07.84A2.52,2.52,0,0,1,49,35.18ZM42.5,36.85v0h.2a6.87,6.87,0,0,0,4-1.38.66.66,0,0,0,.25-.68c0-.25-.22-.35-.46-.42C45.22,34,44.09,34.6,43,35a6.53,6.53,0,0,0-1.15.65.69.69,0,0,0-.34.84c.1.34.4.33.68.33Z"/><path class="cls-1" d="M63.16,32.79a7.72,7.72,0,0,1,4.07,1,8,8,0,0,1,1.29.61,3,3,0,0,1,1.34,1.79,2.52,2.52,0,0,1-1.15,2.13,5.57,5.57,0,0,1-3.22.31,8.6,8.6,0,0,1-3-.92,3.77,3.77,0,0,1-2.14-2.15,1.76,1.76,0,0,1,.35-1.68A3.33,3.33,0,0,1,63.16,32.79Zm3.44,4.06h.51c.27,0,.54,0,.65-.32a.61.61,0,0,0-.25-.72,2.91,2.91,0,0,0-.46-.32,12.83,12.83,0,0,0-2.14-1,4.07,4.07,0,0,0-2.21-.14.58.58,0,0,0-.3,1,3.68,3.68,0,0,0,1,.74A8.07,8.07,0,0,0,66.6,36.85Z"/><path class="cls-1" d="M70.09,27c0,.91-1.81,2.15-2.66,1.82s-.91-.86-.32-1.49a5.19,5.19,0,0,1,1.81-1A.78.78,0,0,1,70.09,27Z"/><path class="cls-1" d="M69.22,30.78A1.2,1.2,0,0,1,68,30a.61.61,0,0,1,.41-.78A8.27,8.27,0,0,0,70,28.33a.92.92,0,0,1,1.27.23A.77.77,0,0,1,71,29.72C70.39,30.14,69.84,30.73,69.22,30.78Z"/><path class="cls-1" d="M45.46,49.08a2.39,2.39,0,0,1-2.38,2.54,2.61,2.61,0,0,1-2.68-2.41,2.52,2.52,0,0,1,2.4-2.76A2.48,2.48,0,0,1,45.46,49.08Z"/><path class="cls-1" d="M66.57,49.11a2.76,2.76,0,0,1-2.37,2.43c-1.38,0-2.81-1.23-2.76-2.36a2.57,2.57,0,1,1,5.13-.07Z"/></g></g></svg>