<svg xmlns="http://www.w3.org/2000/svg" viewBox="0 0 112.89 105"><defs><style>.cls-1{fill:#0c63ee;}.cls-2{fill:#ffda00;}.cls-3{fill:#1b5396;}.cls-4{fill:#fff;}</style></defs><title>Portfolio </title><g id="Camada_2" data-name="Camada 2"><g id="Camada_2-2" data-name="Camada 2"><circle class="cls-1" cx="53.62" cy="60.74" r="32.57"/><path class="cls-2" d="M104.32,23.15a50.69,50.69,0,0,0-4.77-6.26,1.92,1.92,0,0,1-.32-.53,2,2,0,0,1-1.17-.57C82.64.1,57.53-4.62,37.61,4.9c-18.75,9-31.29,30-29.83,50.75S23.6,95.39,43.31,102.2a52.14,52.14,0,0,0,35.28-.57,55.13,55.13,0,0,0,24.55-18.75C115.91,65.55,116,41.08,104.32,23.15ZM65.57,52.3c.4-.49,1.63-.52,2.26-.62a9.18,9.18,0,0,1,9.59,5,8.76,8.76,0,0,1-1.1,9.13s0,0,0,0c-3.59,2.12-8.21,3.59-13-.38a8.56,8.56,0,0,1-2-4.69A9.72,9.72,0,0,1,65.57,52.3ZM23.9,55.7a6.79,6.79,0,0,1,6.77-4.56,1.86,1.86,0,0,1,1.15.61,6.77,6.77,0,0,1,4,2.92,10.64,10.64,0,0,1,1.71,5.7A10.3,10.3,0,0,1,36.84,64c-2.7,5.14-8,4.49-11.53,2.24-.07-.09-.15-.16-.21-.25A11.17,11.17,0,0,1,23.9,55.7ZM58.11,77.9a12.2,12.2,0,0,1-21.73-.19,2.5,2.5,0,1,1,4.42-2.35c.11.22.22.43.35.65,0,0,.16.24.22.34l.25.33c.13.16.27.31.41.46s.29.29.43.43l.1.1.06,0a8.66,8.66,0,0,0,1,.7c.17.11.35.21.53.31l.13.07h0a10,10,0,0,0,1.16.41c.2.06.39.11.59.15l.12,0h.07a9.87,9.87,0,0,0,1.22.06l.45,0,.45-.06c.39-.07.77-.18,1.16-.29l.15,0a6.14,6.14,0,0,0,.59-.25c.36-.18.7-.38,1-.59l.12-.07c.18-.13.35-.27.52-.41s.58-.55.86-.84l.08-.08,0-.06c.12-.16.24-.32.35-.49a10.62,10.62,0,0,0,.6-1,2.52,2.52,0,0,1,3.45-.77A2.55,2.55,0,0,1,58.11,77.9Z"/><path class="cls-3" d="M4.59,52c2.34.15,2.51-3.88,4.85-3.75,9,.51,18.09.89,27.15,1.49l-2.27-1.62c.5,2,1,3.92,1.32,5.89A40.37,40.37,0,0,1,36,58.72c.11,4-.87,8.29-3.87,10.5-2.72,2-7.18,1.92-10.67,1.12s-7.36-2.68-9.66-5.79A17.84,17.84,0,0,1,9.2,48c.38-1.08-.3-1.28-1.46-1.93-1-.55-2.51-.31-2.85.79a22.76,22.76,0,0,0,2.2,18.1c2.66,4.66,7.06,7.52,11.86,9.18,4.38,1.52,9.76,1.72,13.76,0,4.5-1.9,7.14-6.85,7.52-11.85a40.88,40.88,0,0,0-.18-7.49,60.72,60.72,0,0,0-1.71-7.89,2.54,2.54,0,0,0-2.26-1.63c-11.4-.76-22.77-1.15-34.17-1.92A1.93,1.93,0,0,0,0,45.56C.16,46.82,4.59,52,4.59,52Z"/><path class="cls-3" d="M83.27,52.5c-2.54.16-2.8-4.48-5.34-4.34-10.52.59-21.07,1-31.58,1.71L48.55,48a61.51,61.51,0,0,0,0,6.65,45.37,45.37,0,0,0,.89,5.38c.94,4.51,3.22,9.35,7.3,11.85,3.69,2.26,8.85,2.17,12.69,1.26s7.83-3,9.69-6.54c2.69-5.1,2.32-12-.76-17.5a14.19,14.19,0,0,1-1.51-2.91c0-.72,1.32-.08,2-.51a2.7,2.7,0,0,1,3.53.9c3.65,6.57,4.56,13.91,2.26,20.43-1.84,5.26-6.19,8.49-11.32,10.37a24.27,24.27,0,0,1-16,0c-5.73-2.14-10.13-7.73-11.89-13.38a46.89,46.89,0,0,1-1.8-8.46,63,63,0,0,1-.11-8.9c0-1.12,1.2-1.77,2.19-1.84C58.8,44,71.91,43.56,85,42.7a2.92,2.92,0,0,1,2.8,2.5C87.92,46.63,83.27,52.5,83.27,52.5Z"/><path class="cls-4" d="M48,49.55a7.66,7.66,0,0,0-2.27.13,2.58,2.58,0,0,0-1-.31l-.2,0c-.59-.06-2.65-.22-3.28-.22a2.45,2.45,0,0,0-.78.14l-.13,0-.3.16a1.28,1.28,0,0,0-.2.11,2.61,2.61,0,0,0-1-.26h-.21A2.22,2.22,0,0,0,37,49.8a2.74,2.74,0,0,0-1.77-.31c-1.41.08-.69.84-.45,2.26l.23,6.41c.15.84-.14,1.63.56,2.06a2.81,2.81,0,0,0,1.64.45,2.38,2.38,0,0,0,1-.29,2.73,2.73,0,0,0,1.15.33h.21a2.24,2.24,0,0,0,1.57-.54c.41.23.52.56,1,.56,0,0,.58.08.75-.19s.52-.08.76-.17a2.67,2.67,0,0,0,1,.33l.2,0a2.31,2.31,0,0,0,1.72-.53c.47.33.54.76,1.13.76,1.42,0,2.28-.46,2.11-1.88V54.73l-.07-2.81C50.31,49.92,49.38,49.55,48,49.55Z"/></g></g></svg>