<svg xmlns="http://www.w3.org/2000/svg" viewBox="0 0 707.54 508.54"><defs><style>.cls-1{fill:#fff;}</style></defs><title>Rafaela Vertical </title><g id="Camada_2" data-name="Camada 2"><g id="Camada_2-2" data-name="Camada 2"><path class="cls-1" d="M495.12,497.91a5,5,0,0,1,3.46-1.49,4.87,4.87,0,0,1,3.54,1.49,5,5,0,0,1,1.49,3.69,4.78,4.78,0,0,1-1.49,3.62,5,5,0,0,1-3.54,1.41,5.07,5.07,0,0,1-3.46-1.41,4.64,4.64,0,0,1-1.57-3.62A4.89,4.89,0,0,1,495.12,497.91Z"/><path class="cls-1" d="M536.3,507.65A24.65,24.65,0,0,1,514.46,495a28.82,28.82,0,0,1,.06-27.2,23.68,23.68,0,0,1,9.36-9,26.91,26.91,0,0,1,12.93-3.18,26.38,26.38,0,0,1,13.7,3.82,23.08,23.08,0,0,1,9.36,9.94l-1,2.54V432h5.61v74.66h-5.61V491.22l1.15,2.67a24.94,24.94,0,0,1-9.55,9.94A27,27,0,0,1,536.3,507.65Zm1.41-4.84a21.23,21.23,0,0,0,10.38-2.55,21,21,0,0,0,7.52-6.88,19.88,19.88,0,0,0,3.24-9.81v-6.11a19.33,19.33,0,0,0-4-8.85,23.37,23.37,0,0,0-7.52-6.18,20.44,20.44,0,0,0-9.61-2.3,21.05,21.05,0,0,0-10.64,2.74,20.33,20.33,0,0,0-7.58,7.52,21.35,21.35,0,0,0-2.81,11,20.84,20.84,0,0,0,2.81,10.76,21.62,21.62,0,0,0,7.64,7.71A20,20,0,0,0,537.71,502.81Z"/><path class="cls-1" d="M597.63,507.65A26.81,26.81,0,0,1,584,504.21a24.87,24.87,0,0,1-9.36-9.3,26,26,0,0,1-3.38-13.25,25,25,0,0,1,3.57-13.18,27.21,27.21,0,0,1,9.55-9.49,25.62,25.62,0,0,1,13.38-3.57,21.87,21.87,0,0,1,14.78,5.16A29.09,29.09,0,0,1,621.2,474L577.63,491,576,486.89l40.13-15.8L615,472.87a23.18,23.18,0,0,0-6.69-9,16.53,16.53,0,0,0-10.89-3.76A19.43,19.43,0,0,0,587,463a21.81,21.81,0,0,0-7.45,7.64,20.89,20.89,0,0,0-2.8,10.77,22,22,0,0,0,2.61,10.51,20.68,20.68,0,0,0,7.39,7.9,20.35,20.35,0,0,0,11,3,21.07,21.07,0,0,0,7.9-1.53,23.37,23.37,0,0,0,6.75-4.07l2.8,4.07a29.26,29.26,0,0,1-8.09,4.59A26.26,26.26,0,0,1,597.63,507.65Z"/><path class="cls-1" d="M644.61,508.54l-24.84-51.46h6.37L647,502.56l-3.44-.13,20.13-45.35h6.12l-24.46,51.46Z"/><path class="cls-1" d="M285.68,253.09c2.32-1.68,5.09-1.87,7.63-2.65,1.1-.33,2.83-.14,2.12-1.9-.62-1.53.4-4.56-3.05-4.11-1.25.17-2.5.63-3.78.17-.5-.18-1.21-.27-1.12-.95,0-.34.54-.74.92-.88a16,16,0,0,1,2.9-.73c2.23-.32,3.07-1.38,2.15-3.58a8.34,8.34,0,0,1-.48-5.1,3.74,3.74,0,0,1,6.34-2,8.4,8.4,0,0,1,2.57,4.13c2,6.95,3.62,14.05,6,20.88,2.85,8.11,3.6,16.65,5.82,24.89A197.32,197.32,0,0,1,317.85,302c1,6.72-1.66,16.19-9,20.07-3.92,2.06-7.81,4.25-12,4.53-5,.34-10.38.24-15.12-2.16-2.24-1.14-4-3.09-3.54-5.94a4.41,4.41,0,0,1,4.16-3.79,25.47,25.47,0,0,1,6.73.82c5.15,1.06,10,.52,14.29-2.66,3.9-2.9,3.89-7.15,3.28-11.37-.4-2.78-1.41-5.46-1.83-8.23-.26-1.7-.93-2-2.36-1.55s-2.71.3-3.93,1.06a1,1,0,0,1-1.44-.32c-.38-.76.15-1.21.78-1.47.93-.38,1.87-.75,2.82-1,3.15-1,3.36-1.56,2.42-5.58-.59-2.54-2.25-2.46-4.21-2-1.78.4-3.57.73-5.36,1.09-.93.18-2,.3-2.27-.85s.85-1.56,1.67-1.81a29.36,29.36,0,0,1,5.58-1.31c2.76-.25,3.38-1.76,2.91-4.1-.21-1.07-.67-2.08-.9-3.15s-.77-1-1.76-.93c-3.5.23-6.63,1.87-10.05,2.36-1,.14-2.26.37-2.45-1-.16-1.1,1-1.28,1.92-1.52,3.24-.86,6.46-1.82,9.72-2.59,1.44-.34,1.75-1,1.41-2.33-.26-1-.32-2-.62-2.94-.55-1.75-1.94-1.56-3.12-1-2,1-4.1.69-6.14,1-.64.11-1.39,0-1.58-.77s.51-1,1.12-1.26a21.9,21.9,0,0,1,5.83-1.3c1.58-.15,3.14-.64,2.68-2.9-.79-3.86-1.4-4.43-4.19-3.73C288.88,254.51,287.8,254.48,285.68,253.09Z"/><path class="cls-1" d="M287.48,358.31c-8.74-.71-17.16-2.52-24.57-7.62-2-1.38-3.88-2.58-6.67-2.38-3.6.25-5.16-2.61-3.71-5.88a10.29,10.29,0,0,1,5.17-5.38,48.93,48.93,0,0,1,9.37-3.69,5.12,5.12,0,0,1,6,2.25c1.32,2.07.72,4-.91,5.71s-.27,2.44,1.06,2.87c6.65,2.16,13.24,4.05,20.47,2.18,4.25-1.1,8.66-1.65,12.16-4.4,2.08-1.63,4.28-3,6.45-4.51s6.33-.8,8,1.25c1.15,1.43.75,4.74-1.08,6.53-3.4,3.32-7,6.7-11.33,8.46C301.41,356.34,294.74,358.77,287.48,358.31Z"/><path class="cls-1" d="M449.06,345c-3-1.94-3.07-2-.52-4.49a33.05,33.05,0,0,0,2.53-2.49c2.27-2.83,4.62-5.58,5.31-9.37,1.37-7.46-1.1-13.93-4.83-20.12s-8.52-11.79-12.11-18.14c-.66-1.15-1.46-2.36-.9-3.57,1.14-2.45.71-5,1-7.54a4.91,4.91,0,0,1,1.86-3.64c5.57-4.78,6-11.05,1.31-16.71a11.8,11.8,0,0,0-2.59-2.78c-.51-.32-.88-.78-.43-1.35,1.66-2.11,1.13-4.72,1.71-7.08,1.63-6.6-.12-12.57-3.22-18.32-1.19-2.21-2.75-3.6-5.58-3.62s-4.67.5-5.6,3.25a13.11,13.11,0,0,1-1.21,2.43c-.58.94-1.23,2-2.49,1.87s-1.48-1.19-1.85-2.14c-2.74-7-1.67-14.11-.47-21.15s3.14-14.16,4.26-21.32c1.74-11.19,1.86-22.39-1.09-33.5a52.62,52.62,0,0,0-5.23-13.37c-4-6.69-8.37-13.18-14.59-18.18a68.22,68.22,0,0,0-14.17-9c-2.61-1.21-5.5-1.4-8.27-2.5a18.87,18.87,0,0,1,6.22-5c2.66-1.54,2.85-1.36,3.46,1.58a4.18,4.18,0,0,0,.31.76q2.41,6,8.45,4.59a7.18,7.18,0,0,0,5-7.82c-.35-2.24.58-3,2.29-4,3.42-1.84,7.28-1.58,10.84-2.64,2.21-.65,4.86-1,5.43-3.8.29-1.38-3.4-3-6.43-3.17-6.62-.32-12.57,1.76-18.15,5.08a9.88,9.88,0,0,1-5.74,1.4,15.14,15.14,0,0,0-7.95,1.58c-.68.36-1.45,1.24-2.2.66s-.05-1.51.1-2.29c.87-4.39,1.49-8.78.54-13.26a3.18,3.18,0,0,0-3.31-2.69c-1.53,0-3.43,0-3.77,2-.59,3.29-2.25,6.35-2,9.85a19.19,19.19,0,0,1-.66,4.15c-3.47-12.26-7.38-23.34-17-31.46-1.67-1.4-3.65-2.85-4.75-4.81-1.77-3.18-4.85-4.63-7.72-6.27-5.74-3.27-12.27-4.55-18.41-6.83a4.28,4.28,0,0,0-3-.12c-3.9,1.3-7-1.06-9.54-3-4.12-3.18-7.71-7.14-11.53-10.66-5.92-5.43-11.38-11.51-18.93-15.28-7-3.49-14-6.17-21.74-6.14s-15.51,1.32-22.62,4.94c-4.45,2.27-9,4.23-13.27,6.94-2.81,1.79-5,4.21-7.64,6.14-3.58,2.62-6.43,3.45-11,1.45-7.11-3.15-15.05-2.6-22.56-1.24-8.52,1.53-16.26,5.41-23.63,10-7.92,4.9-12.67,12.58-17.73,20s-10,14.59-19.32,17.15c-2.45.67-2.55-.36-2.4-2.06.26-2.79.41-5.69.93-8.35.62-3.15-1-3.35-2.89-3.86a8.75,8.75,0,0,0-4.59.3c-3.6,1-5.45,4.07-7.76,6.57-5.3,5.73-9.31,12-8,20.31.16,1-.28,1.32-1.17,1.74-3.69,1.77-7.55,3.15-11.31,4.68-6.35,2.58-11.42,7-16.28,11.29a45.36,45.36,0,0,0-12.1,17.5,29.57,29.57,0,0,0-1.82,15.47,12.19,12.19,0,0,0,10.24,10.25c2.88.53,6.41,4.37,6.67,7.27.12,1.35-.06,2.61-1.58,3.13a15.16,15.16,0,0,1-7.78.53c-9.25-1.79-17.69-.4-25.17,5.68-5.42,4.4-8.87,9.87-8,16.94.67,5.48,1.57,11,2.42,16.44,1,6.11.17,11.59-4.19,16.2-2.22,2.35-2.12,3.94.74,5.56,1.62.92,3.37,1.61,5.5,2.62-4.24,1.71-7.88,3.75-11.87,5-1.08.34-2.14.88-2.22,2.13a2.29,2.29,0,0,0,1.81,2.18c2.44.72,4.89,2.19,7.52.36,1.6-1.12,3.64-.85,5.45-1.69-.16,4.6-2.79,8-4.61,11.68-3,6.07-7,11.69-9.86,17.86-3.29,7.24-6.41,14.64-7.77,22.61-.53,3.1-1.81,6.1-2.16,9.21A159.66,159.66,0,0,0,11,323.62a43.25,43.25,0,0,0,.8,7.28,143.79,143.79,0,0,0,6,19.22c.54,1.41.4,2-1.11,2.62-3,1.16-6.24,2.08-8.72,4.36C1.16,363.33-1,371,.43,380c1.28,7.84,3.48,15.24,8.41,21.58,3.68,4.75,7.61,9.26,14,10.48a29.4,29.4,0,0,0,10.86.17c2.48-.45,3.81.53,5,2.19,3.67,5,5.9,10.42,5.22,16.87-.48,4.49-2.7,7-7.11,7.09a20.16,20.16,0,0,0-2.46.08c-2.37.32-4.37,2.8-3.67,4.81a50.26,50.26,0,0,1,1.07,5.07c1.35,5.5,4.57,9.26,10.08,10.76,2.51.68,3.52,2,3.69,4.59a29.64,29.64,0,0,0,5,14.82,46.74,46.74,0,0,0,12.63,12.25,36.5,36.5,0,0,0,18.58,6.46c6.47.43,13-.91,19.33-2.21,7.72-1.57,15.07-4.79,23-5.56,2.7-.26,5.41-1.27,8-1,4.53.45,9.05.16,13.57.58,6,.56,12,.6,17.83,2.15,4.59,1.24,9.3,1.58,13.92,2.27a83.11,83.11,0,0,0,13.52.56c9.62-.13,19-1.12,28-4.64,8.66-3.37,14.93-9.53,20.22-16.86.77-1.07,1.06-1.31,2.24-.52a103.41,103.41,0,0,0,11.52,7.14,180.6,180.6,0,0,0,18.68,8.19,74.26,74.26,0,0,0,38.15,3.41c10.89-1.88,21.45-5,31-10.79a3.56,3.56,0,0,1,3.09-.71c3.14,1.06,6.36,2,9.4,3.21,5.06,1.92,10.07,1.8,15.15,1.56,6.69-.31,12.65-3.6,19-5.33a65.22,65.22,0,0,1,22.87-2.19c6.65.55,13.18.52,19.49-2.32,5.54-2.49,10.22-9.8,9.93-15.77a131.63,131.63,0,0,0-2.09-17.29c-1-5.42-1.59-10.77,0-16.16a3.19,3.19,0,0,0,.06-.54c.52-7.38,3.29-14.15,5.95-20.89s7.33-12.55,11.26-18.68a53.59,53.59,0,0,0,5.87-11.07C464.64,362.61,457.44,350.43,449.06,345ZM433.67,235.73c2.68,5.27,1.39,15,1.39,15-1.79-5.19-7.25-10-7.25-10C431.59,239,431,230.46,433.67,235.73ZM423.19,258.3c.15.5.77,1.05.35,1.48-2.57,2.58-.83,5.69-1.16,8.54a35.56,35.56,0,0,0,3.29,19.27,3.09,3.09,0,0,1,.39,1.56C425,297,422.72,304.5,418,311.23c-1.35-5.64-4.49-10.33-7.16-15.2-3.81-7-7.33-14.17-13.88-19.25-2.8-2.17-4.66-4.69-3.82-9,.87-4.53-.1-9.36-.28-14.06-.22-6-1-12-1.29-18.08-.08-1.61.3-1.72,1.84-1.42a38.06,38.06,0,0,1,22,13.1C418.33,250.66,421.82,253.76,423.19,258.3Zm-42.09,19c2.95,2.6,5,6,7.73,8.72,4.31,4.38,6.95,9.67,9.85,14.85,4.09,7.31,7.73,14.83,9.79,23a2.51,2.51,0,0,1-1,3c-4.29,3.08-8.27,6.57-12.92,9.14a29.62,29.62,0,0,1-13.33,3.63c-6.65.27-13.36.75-19.9-.62a30.8,30.8,0,0,1-12.52-6.43c-1.8-1.43-3.79-2.48-5.59-3.83-3.94-2.95-6.58-7.06-9.41-10.91a64.67,64.67,0,0,1-11.7-26.36c-.91-4.78-2-9.57-1.84-14.38.21-6.2,1.15-12.28,4.21-18a52.55,52.55,0,0,1,13.84-17.23,36.84,36.84,0,0,1,19.37-7.79c3.83-.39,7.63-.5,11.45-.69,2.46,0,4.93.11,7.38,0,1.49-.09,1.93.48,2,1.84a67.77,67.77,0,0,0,.81,10c1.13,5.75.48,11.57,1.44,17.31.37,2.22.29,4.65.44,7a2.48,2.48,0,0,1-.58,1.76C378.66,273.79,378.8,275.27,381.1,277.29Zm-152,185.94c-.7,1.47-1,3.12-2.14,4.4-4.64,5.29-9.78,9.87-17,11.28-3,.6-5.48,2.4-8.72,2.72a114.93,114.93,0,0,1-25.49-.52c-6.09-.73-12.06-2-18.07-3.1a23,23,0,0,0-3-.19c-3.8-.21-7.61.4-11.4-.72a7.74,7.74,0,0,0-5.37.25c-2,.92-3.85-.67-5.88-.47a149.55,149.55,0,0,0-18,2.81c-5.91,1.32-11.68,3.28-17.47,5.1-3.64,1.14-7.41.45-11.09,1.09a20.61,20.61,0,0,1-13.89-2.26,33.14,33.14,0,0,1-13.9-14.46,27.86,27.86,0,0,1-2.59-10.72c-.23-4.8-1.74-6.52-6.62-6.86a13.12,13.12,0,0,1-4.88-1.64c-.59-.28-1.22-.54-1.22-1.3,0-.94.86-.78,1.41-.95,6.63-2.16,9.34-7.9,10.48-13.69,1.66-8.48-1.53-16.22-6.46-23.25-4.1-5.85-9.68-8.5-16.64-7.87-8.53.78-12.81-4.1-15.78-10.75-2.35-5.27-4.15-10.86-4.18-16.77,0-6.14,2.17-11.16,8.86-13,3-.82,4.5-.11,5.07,2.94a8.23,8.23,0,0,1,.06,3.76c-.44,1.69-1.17,2.5-3.09,2.12-1.76-.35-3.72-.75-5.3.47C12.54,375,13.64,378,18,381c6.82,4.61,14.87.83,17.36-7.2,2-6.35.17-11.68-2.53-17.22a109.65,109.65,0,0,1-8.17-22.14c-1.78-7.38-2.84-14.76-2.17-22.3.94-10.73,1.86-21.38,5.55-31.76,2.34-6.57,5.52-12.63,8.51-18.8,2.25-4.63,4.73-9.19,6.84-13.88a77,77,0,0,0,6-21.2,16.48,16.48,0,0,0-.59-5.41c-.44-2.08-3.3-3.16-5.85-2.33-.6.2-1.2.7-1.75.09s-.08-1.2.25-1.73a14.4,14.4,0,0,0,1.48-11.86c-1.61-5.81-1.67-11.87-2.91-17.73a6.33,6.33,0,0,1,1-4.69c4.22-6.73,10.08-10.69,18.2-9.27a42.45,42.45,0,0,0,11.08.86c5.2-.48,10.09-2.15,12.7-7.23,2.21-4.31,1.2-8.67-1.23-12.46a22.38,22.38,0,0,0-11.42-8.93,4.6,4.6,0,0,1-3.3-4c-.41-3.57-.84-7.19,1.51-10.46a22.39,22.39,0,0,0,2.55-5.11c1.45-3.89,4.42-6.49,7.21-9.14a65.25,65.25,0,0,1,12.41-9.29,65.78,65.78,0,0,1,15.64-6.95c3.5-.94,4.21-3.49,2.09-6.24-.22-.29-.56-.57-.6-.89-.73-4.79-.48-9.38,2.84-13.7,1.18,2.06,1.38,4.07,3.2,5.68,5.47,4.82,11.24,4.59,17.27,2a36.84,36.84,0,0,0,16.24-12.86c3.4-4.93,6.58-10,10-14.9,4.54-6.41,10.75-10.8,17.85-14,4.64-2.08,9.59-2.93,14.6-3.79s9.49.21,14.6.86a123.31,123.31,0,0,1-16.13,13c-6.58,4.34-13.09,8.85-20.17,12.4-1.47.74-3.13,1.77-2.47,3.74.61,1.8,2.41,2.52,4.21,2.51A10.1,10.1,0,0,0,176.17,73c5.75-4.33,12.55-6.87,18.42-11.05,4.9-3.48,9.62-7.16,14.23-11,2-1.61,3.69-3.49,6.26-4.23s3.24-3.53,5.16-5.08c7.44-6,14.76-11.92,23.93-15.46,5.61-2.17,11.11-4,17-3.89a24.06,24.06,0,0,1,13.54,4.16c2.75,1.92,6,3.39,8.07,5.88,2.44,3,5.28,5.51,7.66,8.49a80.87,80.87,0,0,0,10.28,10.8c3.27,2.81,6.27,6,10.44,7.79,4.44,1.92,8.71,4,13.73,3.58,1.85-.14,3.33,1.26,5,1.84a37.88,37.88,0,0,1,12,6.79c1.81,1.52,3.81,2.77,5.58,4.35a45.65,45.65,0,0,1,13.09,19.64c.5,1.47,1.47,2.65,2,4.14,2.66,7.44,1.6,15.13,1.5,22.68a23.72,23.72,0,0,1-2.89,11.21c-1.82,3.3-3.33,6.78-5.32,10a6.55,6.55,0,0,1-4.59,3.08c-5.86,1.1-11.75,2.07-17.64,3-4,.65-8.06,1.33-12.12,1.72a48.34,48.34,0,0,1-13.39-.94c-5.58-1-10.71-3.42-16.2-4.65-1.28-.29-1.3-.88-.51-1.65,2.85-2.76,3.27-6.86,5.57-10,1.19-1.62.77-4.06.79-6.13,0-1.35-1.35-1.89-2.48-2.23a2.74,2.74,0,0,0-3.39,1.06q-2.62,4.14-5.18,8.31a134.18,134.18,0,0,1-10.29,14,38,38,0,0,1-6.48,6.93c-3.28,2.47-6.2,5.11-10.7,5.84-4.22.68-8.18,3-12.55,3.52a23.32,23.32,0,0,0-8.49,2.81c-1.88,1-4,2.14-3.55,4.94.5,3.37,2.26,5.44,5.37,6.08,4.72,1,9.27-.43,13.66-1.62,5.23-1.43,10.57-2.89,15.39-5.46,6.53-3.48,13.57-6.24,18.65-12a3.41,3.41,0,0,1,4.14-.94,41.51,41.51,0,0,0,8,2.39,52.91,52.91,0,0,1,9.56,2.35c4.93,1.7,9.76.73,14.57.49a87.75,87.75,0,0,0,16.44-2.39c6-1.46,12.36-1.32,17.75-4.87,4.84-3.19,9.36-6.45,10.94-12.63.67-2.61,3-4.68,4-7.38,1.28-3.4,1.76-7.06,3.51-10.3a5.6,5.6,0,0,0,.19-3.23c-.24-2.43.88-3.41,3.24-2.87a37.38,37.38,0,0,1,17.2,9.32,65.12,65.12,0,0,1,11.53,14.73,28,28,0,0,1,3.57,9.89c.55,3.27,1.88,6.45,2.23,9.78.59,5.66,1.11,11.26-.5,17-1,3.62-1.35,7.48-2.05,11.23-.43,2.31-1.07,4.58-1.35,6.94-.53,4.48-1.82,8.87-2.28,13.35-.52,5-1.27,10.07.56,15.06-5.93-1.54-11.84-3.09-17.76-4.59-1.22-.31-1.45-1.13-1.61-2.21-.48-3.25-.31-6.64-1.07-9.74-1.35-5.47-1.53-11.09-2.86-16.55-1-4-2.27-7.83-2.78-11.91-.43-3.53-5.3-5.32-9.24-3.59-3.12,1.37-4.81,4.19-3.67,7.59,2.65,7.94,3.93,16.11,5.1,24.37.44,3.1.74,6.26,1.33,9.35.31,1.61-.27,2.15-1.8,2.2-2.91.11-5.82.42-8.73.45A76.35,76.35,0,0,0,342.39,228c-8.1,2.7-14.79,7.58-20.63,13.67a24.71,24.71,0,0,0-3.72,5c-1,1.87-1.9,2.14-3.4.6-4.68-4.81-10.81-6.8-17.11-7.67a34.39,34.39,0,0,0-12.66.7,42.08,42.08,0,0,0-15.08,6.79c-1.11.8-1.71,3-3.33,2.27-1.09-.46-1.67-2.08-2.54-3.12a51.61,51.61,0,0,0-17.57-13.9,66.34,66.34,0,0,0-27.59-6.44c-9.2-.2-18.43-.47-27.55,1.17a86.49,86.49,0,0,0-12.91,3.52c-10,3.4-17.78,9.62-24,18-.21.29-.47.54-1,1.11-1.16-2.21-2.3-4.08-3.14-6.07a10.1,10.1,0,0,0-3.89-4.8c-1.5-1-1.61-2-.35-3.32,7.19-7.53,13.3-15.93,19.14-24.5a153.25,153.25,0,0,0,10.38-18.74,99.56,99.56,0,0,0,5.93-15.42c.33-1.11.64-1.92,2-1.33,5.79,2.46,12.09,2.48,18.13,3.76A73.74,73.74,0,0,0,217.67,181c3.84,0,6.76-2.46,7-5.52.27-4.1-4.26-8.2-8.43-8a60.62,60.62,0,0,1-13.48-1.38c-3.66-.68-7.29-1.64-11-2-2.25-.23-4-1.79-6.3-1.67-4.18.22-8.35.51-12.54.66-9.85.35-16.93,5.79-23.23,12.63a9.68,9.68,0,0,0-1.92,4.77c-.34,1.65,1.43,2.86,3.34,2.4,3.35-.8,5.53-3.46,8-5.51a69.66,69.66,0,0,1,7.48-5c.68-.42,1.54-1,2.28-.44s.44,1.55.13,2.3c-2.58,6.11-5.29,12.15-8.28,18.09-3.72,7.36-8.46,14-13.06,20.74a131.85,131.85,0,0,1-12.8,15.22c-3,3.21-3.39,6.64-1.72,10.52a106.1,106.1,0,0,0,5.21,10.72c1.33,2.31,2.5,4.69,3.75,7s1.1,4.14-.66,6c-.31.33-.55.72-.84,1.08-4.25,5.13-3.91,11.88,1.3,16a6.61,6.61,0,0,1,2.73,5.73c0,3.41.91,6.67,1.45,10,.57,3.51-.73,6.31-1.5,9.46-1.81,7.31-7.5,12.58-9.78,19.6-1.65,5-3.28,10-1.16,15.39,1.6,4,4.53,6.26,8.91,6-2.29,1.94-4.87,2-7.3,2.36-3.85.53-7.57,4.42-6.57,7.43.67,2,2.29,3.62,3.31,5.55,4.4,8.27,9.09,16.4,12.83,25a35.17,35.17,0,0,1,2.94,19.64,3.86,3.86,0,0,1-.58,1.51c-2.34,3.25-3,7.14-4.21,10.82-.58,1.73-2,3-2.78,4.61a36.9,36.9,0,0,0-3,26.1,7.81,7.81,0,0,0,6.16,5.48,3.78,3.78,0,0,0,4.21-3.72c.31-4.17,1.51-8.26,1.11-12.49-.2-2.22,1.07-4,1.66-5.81,5.57,1.15,8.4,6.11,12.95,8.62,10.7,5.92,21.5,11.63,33.43,14.67,3.89,1,7.61,2.68,11.67,3,5.05.42,9.73,2.84,14.93,2.66,1.67-.06,3.29,1,5.07.82C229.2,462,229.52,462.43,229.13,463.23Zm-68.58-181.6a39.41,39.41,0,0,0-1.71-10.94c-1.26-4.61.71-8.3,2.82-11.82,5-8.23,11.38-15.25,20.32-19.13a47.06,47.06,0,0,1,16.91-4c1.92-.07,3.83,0,5.75,0,3.19,0,6.37-.1,9.56-.3a49.12,49.12,0,0,1,21.41,3c6.9,2.8,13.19,7,17.71,13.56,2.1,3,4.53,5.84,6.28,9.15a22.51,22.51,0,0,1,2.9,8.95c.16,2.1,1.2,4,1.15,6.15a103.45,103.45,0,0,1-1.72,17.26,71.82,71.82,0,0,1-10.58,25.75c-6.14,9.49-14.22,16.78-24.84,21-5.72,2.25-11.79,2-17.79,2-2.28,0-4.55-.19-6.83-.21-4.71-.05-8.77-1.91-12.9-4-3.32-1.66-5.92-4.18-9-6.13-3.24-2.07-5.24-5.47-7.77-8.31-3.62-4.08-6.1-8.8-8.69-13.44s-5.17-10-3.57-15.57C161.25,290.23,160.47,285.92,160.55,281.63ZM225.75,448c-4-.83-8.25-1-12.32-1.86a179.75,179.75,0,0,1-22.63-6.54c-6.61-2.4-12.47-6.22-19-8.79-3.7-1.47-6.3-4.61-9.48-6.89-1.81-1.3-3.38-2.93-5.13-4.32-.95-.77-.82-1.45-.24-2.34,3.13-4.82,3.65-10.35,4-15.85a33.09,33.09,0,0,0-2.21-14c-1.69-4.26-2.71-8.84-5.39-12.71-3.83-5.52-6.64-11.72-11.24-16.72-.74-.8-.9-1.21.39-1.66a22.45,22.45,0,0,0,13.17-12,15.1,15.1,0,0,0,1.05-7.5c-.35-5.05-7.31-6.78-11.4-3.27,1.18-4.5,2.43-8.15,5.17-11.12a6.35,6.35,0,0,1,.58-.58c1.13-.89,1.39-3.32,2.7-3,1.13.26,2.1,2.15,2.74,3.51,3.32,7,9.12,12.08,14.58,17.15a35.38,35.38,0,0,0,13.81,8.49c2.89.87,5.52,2.91,8.67,3.71,7.64,1.94,15.32,2.76,23.14,1.44,4.29-.72,8.68-.77,12.84-2.33a38.9,38.9,0,0,0,4.31-1.69c5.31-2.74,10.56-5.54,15.13-9.49a114,114,0,0,0,9-9.38,60.52,60.52,0,0,0,8-11.66c1-1.82,1.68-3.84,2.71-5.66,3.73-6.65,4.19-14.13,5.58-21.38a74.93,74.93,0,0,0,1.49-10.75c.22-5-1-9.83-2-14.67-.29-1.42-.56-2.86-1-4.25a2.16,2.16,0,0,1,.85-2.39c5.4-5.15,11.68-8.61,19.26-8.14,4.95.3,9.61,1.36,13.92,5,3.6,3,4,5.51,3,9.45-1.12,4.28-.41,8.49.5,12.89,1.5,7.17,3.37,14.27,4.4,21.58.82,5.87.42,12,4.18,17.51,4.35,6.33,8.78,12.52,14.6,17.5,4.63,4,9.44,7.59,15.32,10,3.7,1.53,7.42,3.15,11.2,4.58,4.32,1.62,8.84.87,13.25,1.12a80.08,80.08,0,0,0,8.29-.43,43.18,43.18,0,0,0,19.07-5.72c3.21-1.77,6.49-3.5,10-5.66a86.17,86.17,0,0,1-.7,21.76,110.17,110.17,0,0,1-2.54,12,98.82,98.82,0,0,1-11.37,25c-4.68,7.53-11,13.4-17.45,19.31a98.05,98.05,0,0,1-13.74,10.19A79.56,79.56,0,0,1,353,433.78c-3.38,1.43-6.74,3.06-10,4.73a50.87,50.87,0,0,1-8.6,3.3c-5.62,1.67-11.08,4.07-16.9,4.86-7.61,1-15,3-22.78,3.48-4.58.27-9.23.47-13.8,1.2-3.7.58-7.44-.55-11.13.19-8.63,1.73-17.09-.93-25.64-1.24A109.72,109.72,0,0,1,225.75,448ZM445.14,379.1c-6.35,8.14-11.8,16.7-15.22,26.61A85,85,0,0,0,425,437.24a33.84,33.84,0,0,0,1.22,6.12c.89,3.93.65,7.95,1.51,11.86,1,4.68-2,8.43-6.93,9.54-3.77.85-7.4.05-11.06-.18-5.55-.34-11.21-.86-16.53.43a117.12,117.12,0,0,0-13.8,4.09c-6.56,2.5-13.24,4.33-20.39,3.44a19.5,19.5,0,0,1-6.29-1.76c-6.07-3-12.66-3.2-19.18-3.84-.86-.08-2-.33-2.51.6s.49,1.86,1.13,2.56c2.66,2.95,2.69,2.94-1.23,4.73a80,80,0,0,1-32.68,7.75,66.77,66.77,0,0,1-23-3.76,145.43,145.43,0,0,1-28.6-14.22,14.39,14.39,0,0,1,8.56-.46c4.81,1.35,9.59.24,14.34.82,1.87.23,3.82-.29,5.72-.2,4.67.21,9.19-.67,13.78-1.29,3.14-.42,6.5.58,9.72-.19a101.58,101.58,0,0,1,12.3-1.89c6.21-.7,12-3.14,18.1-3.9,3.25-.4,5.92-2.34,9-3,4-.8,7.38-3.14,11.05-4.69s7.22-2.9,10.72-4.66a141.91,141.91,0,0,0,15.53-9.37c6.64-4.5,13.24-9.11,18.71-15.05,3.89-4.22,8.32-8.21,11.08-13.11,4.59-8.17,10.11-15.89,12.53-25.32,1.2-4.65,2.81-9.34,4.16-14a44.94,44.94,0,0,0,1.38-9.7c.34-5.69.67-11.41.51-17.11-.11-4.15-.09-8.39-1.12-12.46a3.08,3.08,0,0,1,.75-3.21c4.22-4.65,6.9-10.21,9.3-15.93a5.52,5.52,0,0,1,.29-.77c.76-1.37.79-3.71,2.73-3.64,1.61.06,1.79,2.29,2.67,3.5a35.06,35.06,0,0,1,5.64,10.12c1.92,6.16,1.76,8.78-2.75,13-3.58,3.34-7.89,5.87-10.84,9.93-6.21,8.57-5.18,23.05,8.1,26.64,3.55,1,8.09-.32,10.81-5.57C451.15,369.42,448.78,374.45,445.14,379.1Zm1.48-21.25c-1.88,0-3.33,0-4.78,0a3.53,3.53,0,0,1-3.37-2.71c-.31-.9-.56-2.2.18-2.87s1.63.34,2.45.63C443.54,353.75,444.81,355.87,446.62,357.85Z"/><path class="cls-1" d="M61.78,339.15c-7-.37-12.21-4.63-14.69-12.62a68.41,68.41,0,0,1-1.8-33.12A147.5,147.5,0,0,1,54,262.58a157.85,157.85,0,0,1,9.33-19.07,63.28,63.28,0,0,1,5.42-8.43c1.39-1.68,1.08-3.08-1.1-4.06-4.58-2.05-5.39-3.76-4.37-8.54,1.26-5.9,4.69-10.44,8.77-14.71a104.52,104.52,0,0,1,16.35-13.94c5.48-3.77,10.82-7.76,17.37-9.56a4.11,4.11,0,0,1,2.41-.29c1.12.36,2.45.67,2.83,1.91s-.93,1.87-1.82,2.39c-7.27,4.17-13.79,9.45-20.48,14.42-5.44,4-10.61,8.58-14.38,14.39a16.71,16.71,0,0,0-2.55,6.29c-.33,1.82.38,2.59,2.17,2.46a47.55,47.55,0,0,0,10.88-2.53,80.58,80.58,0,0,0,19.21-9.46c2.67-1.73,5.43-1.75,8.32-1.52,1.68.13,1.53,1.28,1,2.4a12.14,12.14,0,0,1-5.93,5.81c-6.2,3-12.12,6.6-18.74,8.79-2.69.88-5.45,1.32-8.15,2.1-1,.3-1.86.57-2.32,1.62-2.53,5.75-6.41,10.79-8.84,16.6-2.68,6.4-6.31,12.33-8.32,19.11-1.45,4.91-3.67,9.69-5,14.65a114.34,114.34,0,0,0-2.61,13.34,83.47,83.47,0,0,0-.66,16A38.26,38.26,0,0,0,57,329c2.75,5.25,6.71,6,11.37,2.37,5-3.93,7.42-9.56,10.18-15a42.19,42.19,0,0,1,6-9c.86-1,2.1-1.82,3.24-1.54s.89,1.78.86,2.87c-.13,5.17-2.23,9.62-4.62,14.08-2.78,5.2-6.06,9.8-10.83,13.41C70.07,338.61,66.7,339.57,61.78,339.15Z"/><path class="cls-1" d="M205.31,69.31c6.15-.3,11.32,2,16.73,3.17s10.82,1.39,16.15-.35c6.84-2.22,13-6,19.7-8.59,8.74-3.45,17.67-5.26,27.05-2.76a18.78,18.78,0,0,1,9.21,6.08c4,4.51,6,10.36,9.42,15.26,1.28,1.82.25,3.56-2,4a5.22,5.22,0,0,1-5.85-2.51c-2.54-3.76-5.33-7.36-7.78-11.18-4.07-6.33-9.58-6.66-16.89-5.35C261.91,68.76,254.25,74,246,77.66c-10.37,4.64-20.76,5.44-31.36.56-3.62-1.67-7.67-1.54-11.59-1.13a26.21,26.21,0,0,0-17.24,8.83c-.6.67-1.53,1.28-1.07,2.3s1.56.69,2.44.81c2.83.39,5.36-.87,8-1.42a17,17,0,0,1,6-.14c1.26.2,2.66.77,2.75,2.26s-1.26,2-2.35,2.33c-3.56,1.12-7.25,1.8-10.81,2.83a15,15,0,0,1-11.1-.9c-3.88-1.82-5.28-6.3-2.77-9.79,5.5-7.63,12.75-12.5,22.19-14C201.29,69.86,203.44,69,205.31,69.31Z"/><path class="cls-1" d="M260.45,201.65c-1.52,3.23-2.15,6.89-5.76,9.5a44.82,44.82,0,0,1-15.83,7.66c-7.92,1.9-15.9,3.5-23.72-.36a10.37,10.37,0,0,1-5.72-7.42c-1.48-6.46,2.11-10.42,6.87-13.24,7.35-4.35,15.14-7.92,23.79-8.81,6-.62,11.57.47,16.33,4.46C258.87,195.5,259.76,198.33,260.45,201.65Zm-34.52,8.87v.09c.36,0,.73,0,1.09,0,7.82-.4,15.09-2.38,21.36-7.3a3.47,3.47,0,0,0,1.31-3.65c-.26-1.31-1.16-1.85-2.44-2.21-6.85-1.91-12.83,1.09-18.89,3.38a37.13,37.13,0,0,0-6.15,3.48,3.73,3.73,0,0,0-1.79,4.47c.51,1.78,2.13,1.72,3.6,1.74Z"/><path class="cls-1" d="M335.77,189c8-.94,14.79,2.41,21.68,5.5a46.07,46.07,0,0,1,6.85,3.26,15.83,15.83,0,0,1,7.11,9.53c.79,3.14-2.79,9.78-6.12,11.31-5.6,2.57-11.33,2.49-17.1,1.63-5.59-.83-11.21-2.07-16.14-4.87-4.74-2.69-9.58-5.43-11.35-11.46a9.29,9.29,0,0,1,1.88-8.9C325.86,190.85,330.63,189.31,335.77,189Zm18.32,21.58c.91,0,1.82,0,2.73,0,1.41,0,2.84-.18,3.41-1.7a3.24,3.24,0,0,0-1.3-3.85,18.41,18.41,0,0,0-2.45-1.69,67.08,67.08,0,0,0-11.37-5.09,21.29,21.29,0,0,0-11.76-.76c-2.86.65-3.77,3.6-1.59,5.54,1.67,1.48,3.5,3.22,5.43,3.92C342.61,208.88,348.14,210.85,354.09,210.54Z"/><path class="cls-1" d="M372.63,158.28c0,4.82-9.6,11.41-14.11,9.68-4.33-1.67-4.88-4.61-1.73-7.94,2.68-2.84,6.29-4,9.62-5.48S372.61,155.09,372.63,158.28Z"/><path class="cls-1" d="M368,178.26c-3.51,0-6.12-2.16-6.56-4.42a3.3,3.3,0,0,1,2.17-4.14,43.18,43.18,0,0,0,8.4-4.48,5,5,0,0,1,6.78,1.21,4.14,4.14,0,0,1-1.22,6.2C374.25,174.84,371.33,178,368,178.26Z"/><path class="cls-1" d="M241.67,275.55c.12,7.66-5.24,13.38-12.65,13.48s-14.13-5.84-14.22-12.77c-.12-8.39,5.26-14.59,12.75-14.69C236,261.46,241.54,266.9,241.67,275.55Z"/><path class="cls-1" d="M353.92,275.68c.45,6.05-7.51,13.12-12.58,13-7.37-.24-14.95-6.55-14.71-12.57.34-8.48,6.68-14.64,14.34-14.47C347.74,261.75,354.09,268.71,353.92,275.68Z"/><path class="cls-1" d="M508.85,8.63C514.8,1.28,523.59.08,532.49,0a82,82,0,0,1,28.36,5c9.35,3.43,17.75,8.69,23.33,16.69s7.64,19,3.9,30.25C581.2,72.67,562.47,84,546,89.93c13.63,9.36,24,15.08,40.8,18.32a9.54,9.54,0,0,1,7.81,11.23A9.8,9.8,0,0,1,583,126.93c-26.57-5.09-42-16.82-62.24-31.59-1.43.25-2.6.43-3.69.59.12,12.81.4,22.08.4,25.74a9.81,9.81,0,0,1-9.81,9.93,9.68,9.68,0,0,1-9.8-9.66c0-3.55-.88-27.36-.22-51.43a334.26,334.26,0,0,1,2.51-35.09C501.56,24.85,503.06,15.79,508.85,8.63Zm44,12.72a59.36,59.36,0,0,0-20.14-3.7,24.72,24.72,0,0,0-8.59,1.57c-1.35,2.76-3.45,9.49-4.57,17.89a338.66,338.66,0,0,0-2.35,34.06c-.06,2.18-.11,5-.14,6.88a118.05,118.05,0,0,0,19.25-4.87c14.17-4.93,28.05-13.34,33.05-27.63,2.2-6.6,1.17-10.28-1.62-14.16S559.45,23.85,552.84,21.35Z"/><path class="cls-1" d="M659.12,31.81a30.56,30.56,0,0,1,21.66,24.78c1.61,11.06,0,23.07-.94,37.81-1.08,17.38-.82,27.19-.82,27.19.22,4.51-4.18,8.19-9.55,8.3s-8.68-3.49-9.73-7.89A55.47,55.47,0,0,1,623,126.07c-7.68-2-13.82-6.64-17.12-12.55a27.16,27.16,0,0,1-2.25-19.36c3.06-13.5,14.39-25.95,32.94-30.31a65.11,65.11,0,0,1,13-1.61,43.56,43.56,0,0,1,12.22,1.46c-.12-6.56-1-10.61-9.73-13.4-10.31-3.32-18.36-.8-24.72,2.42A29.27,29.27,0,0,0,621,57.33c-1.47,1.46-3.47,5.32-8.75,5.88a11.19,11.19,0,0,1-7.8-2.57c-5-5.31-1.95-12.27,2.34-16.84A49.62,49.62,0,0,1,617,36C629.7,28.93,644.33,27.62,659.12,31.81ZM642,82.87C629.81,85.4,624,92.4,622.74,98.06c-1.1,4.3.1,7.69,5.88,9.14,8,2,15.38.14,21.65-2.79a38,38,0,0,0,7.47-4.56c2.63-2,2-2.18,2.32-6.16.2-3.5.72-7.37-1.3-9.77C655.52,80.32,648.32,81.52,642,82.87Z"/><path class="cls-1" d="M532,145.51c7.24-2,13.77-2,22.09-.94a31.09,31.09,0,0,1,23.06,15.53,33.67,33.67,0,0,1,4,12.55,9.81,9.81,0,1,1-19.55,1.55,12.38,12.38,0,0,0-4.19-7.56,14.33,14.33,0,0,0-2.39-1.48c-8.59-4.22-20.88-1.93-25.27,5.45-1.58,2.55-2.08,6.08-2.54,13.31-.23,3.58-.28,8-.27,11.86H558.9A9.47,9.47,0,1,1,559,214.7H527.43c1.19,29.38,3.84,48.33,3.84,48.33.82,5.26-3.48,10-9.39,10.66s-10.9-3.12-11.48-8.39c0,0-2.55-20.79-3.63-50.65h-4.89a9.5,9.5,0,1,1-.05-19h4.49c-.08-5.65-.15-11.33.33-17.74a39.19,39.19,0,0,1,4.63-16.74C515.75,153,523.7,147.81,532,145.51Z"/><path class="cls-1" d="M635.19,173.81a30.57,30.57,0,0,1,21.67,24.78c1.61,11.06,0,23.07-.94,37.81-1.08,17.38-.82,27.19-.82,27.19.22,4.51-4.19,8.19-9.56,8.3s-8.68-3.49-9.73-7.89a55.44,55.44,0,0,1-36.74,4.07c-7.68-2-13.82-6.64-17.13-12.55a27.22,27.22,0,0,1-2.25-19.36c3.07-13.5,14.4-25.95,32.95-30.31a65,65,0,0,1,13-1.61,43.43,43.43,0,0,1,12.21,1.46c-.12-6.56-1-10.61-9.72-13.4-10.32-3.32-18.37-.8-24.73,2.42a29.42,29.42,0,0,0-6.32,4.61c-1.48,1.46-3.48,5.32-8.75,5.88a11.17,11.17,0,0,1-7.8-2.57c-5-5.31-2-12.27,2.34-16.84A49.53,49.53,0,0,1,593.05,178C605.78,170.93,620.4,169.62,635.19,173.81Zm-17.14,51.06c-12.16,2.53-17.95,9.53-19.24,15.19-1.09,4.3.11,7.69,5.89,9.14,8,2,15.38.14,21.64-2.79a37.77,37.77,0,0,0,7.48-4.56c2.62-2,1.94-2.18,2.31-6.16.2-3.5.73-7.37-1.29-9.77C631.59,222.32,624.39,223.52,618.05,224.87Z"/><path class="cls-1" d="M579,397.06a76.65,76.65,0,0,1-25.16,13.21c-10.38,2.69-22.32,3.38-33.37-1.11-16-7.55-23-23.41-24.09-38.72-1.71-25.19,7.74-42.3,20.12-51.37a47.67,47.67,0,0,1,25.68-7.61c13.85.29,24.75,7.2,29.05,17,4.93,11.77,1,26.74-11.91,36.53-14.57,10.17-31.06,8.55-41.52,4.3-.57-.25-1.61-.76-1.9-.91,0,.57,0,.47,0,.78.76,10.66,5.25,18.63,14,22.34a66,66,0,0,0,17.4,0,60.47,60.47,0,0,0,19.45-9.83c4.25-4.21,10.52-3.33,13.89,1.88A9.39,9.39,0,0,1,579,397.06Zm-48.4-63.35a25.12,25.12,0,0,0-12.23,13.05,30.2,30.2,0,0,0,7.92,4.57c6.28,2.49,11.93,3.61,19.8-1.88,8.17-5.36,8.19-9.93,6.44-13.41C549.38,331.14,538.32,330.54,530.58,333.71Z"/><path class="cls-1" d="M617,295.54s-3.93,29.16-4.69,63.84a221.59,221.59,0,0,0,1,29.63c.44,3.45,1,6.67,2.44,9.19a8.83,8.83,0,0,1-2.64,11.4c-4.27,2.75-10.41,2.2-13.83-1.26-3.71-4.44-4.66-11.5-5.44-17A236.17,236.17,0,0,1,592.73,359a660.61,660.61,0,0,1,4.86-66.08c.62-4.07,5-7,9.91-6.92C613.34,286.05,617.91,290.51,617,295.54Z"/><path class="cls-1" d="M685.19,315.81a30.55,30.55,0,0,1,21.67,24.78c1.61,11.06,0,23.07-.94,37.81-1.08,17.38-.82,27.19-.82,27.19.22,4.51-4.18,8.19-9.56,8.3s-8.68-3.49-9.72-7.89a55.47,55.47,0,0,1-36.75,4.07c-7.68-2-13.82-6.64-17.12-12.55a27.17,27.17,0,0,1-2.26-19.36c3.07-13.5,14.4-26,32.95-30.31a65,65,0,0,1,13-1.61,43.56,43.56,0,0,1,12.22,1.46c-.13-6.56-1-10.61-9.73-13.4-10.31-3.32-18.37-.8-24.72,2.42a29.27,29.27,0,0,0-6.33,4.61c-1.47,1.46-3.47,5.32-8.75,5.88a11.17,11.17,0,0,1-7.8-2.57c-5-5.31-2-12.27,2.34-16.84A49.35,49.35,0,0,1,643.06,320C655.78,312.93,670.41,311.62,685.19,315.81Zm-17.14,51.06c-12.16,2.53-17.94,9.53-19.23,15.19-1.1,4.3.1,7.69,5.88,9.14,8,2,15.38.14,21.65-2.79a38,38,0,0,0,7.47-4.56c2.63-2,1.95-2.18,2.32-6.16.2-3.5.72-7.37-1.3-9.77C681.6,364.32,674.4,365.52,668.05,366.87Z"/></g></g></svg>