<?xml version="1.0" encoding="utf-8"?>
<!-- Generator: Adobe Illustrator 24.0.1, SVG Export Plug-In . SVG Version: 6.00 Build 0)  -->
<svg version="1.1" id="Camada_1" xmlns="http://www.w3.org/2000/svg" xmlns:xlink="http://www.w3.org/1999/xlink" x="0px" y="0px"
	 viewBox="0 0 922.6 331.2" style="enable-background:new 0 0 922.6 331.2;" xml:space="preserve">
<style type="text/css">
	.st0{fill:#FFFFFF;}
	.st1{enable-background:new    ;}
</style>
<title>Rafaela Horizontal</title>
<g id="Camada_2_1_">
	<g id="Camada_2-2">
		<path class="st0" d="M739.9,269.1c0.9-0.9,2.2-1.5,3.5-1.5c1.3,0,2.6,0.5,3.5,1.5c1,1,1.5,2.3,1.5,3.7c0,1.4-0.5,2.7-1.5,3.6
			c-0.9,0.9-2.2,1.4-3.5,1.4c-1.3,0-2.5-0.5-3.5-1.4c-1-0.9-1.6-2.2-1.6-3.6C738.3,271.4,738.9,270.1,739.9,269.1z"/>
		<path class="st0" d="M781.1,278.8c-9.1,0.1-17.4-4.8-21.8-12.7c-4.5-8.5-4.5-18.7,0.1-27.2c2.2-3.8,5.5-7,9.4-9.1
			c4-2.1,8.4-3.2,12.9-3.2c4.8,0,9.6,1.3,13.7,3.8c4,2.3,7.3,5.8,9.4,9.9l-1,2.6v-39.9h5.6v74.7h-5.6v-15.4l1.2,2.7
			c-2.2,4.1-5.5,7.6-9.6,9.9C791,277.6,786.1,278.9,781.1,278.8z M782.5,274c3.6,0.1,7.2-0.8,10.4-2.5c3-1.6,5.6-4,7.5-6.9
			c1.9-2.9,3-6.3,3.3-9.8v-6.1c-0.6-3.2-1.9-6.3-4-8.9c-2-2.6-4.6-4.7-7.5-6.2c-3-1.5-6.3-2.3-9.6-2.3c-3.7,0-7.4,0.9-10.6,2.7
			c-3.1,1.8-5.8,4.4-7.6,7.5c-1.9,3.3-2.9,7.1-2.8,11c-0.1,3.8,0.9,7.5,2.8,10.8c1.9,3.2,4.5,5.8,7.7,7.7
			C775.1,273,778.8,274,782.5,274L782.5,274z"/>
		<path class="st0" d="M842.5,278.8c-4.8,0.1-9.5-1.1-13.6-3.4c-3.9-2.2-7.1-5.4-9.4-9.3c-2.3-4-3.4-8.6-3.4-13.3
			c-0.1-4.6,1.2-9.2,3.6-13.2c2.3-3.9,5.6-7.2,9.6-9.5c4-2.4,8.7-3.6,13.4-3.6c5.4-0.2,10.7,1.7,14.8,5.2c4.1,3.6,7.1,8.2,8.6,13.4
			l-43.6,17l-1.7-4.1l40.1-15.8l-1.2,1.8c-1.5-3.5-3.7-6.6-6.7-9c-3.1-2.5-6.9-3.8-10.9-3.8c-3.7,0-7.3,0.9-10.4,2.9
			c-3.1,1.9-5.6,4.5-7.5,7.6c-1.9,3.3-2.9,7-2.8,10.8c0,3.7,0.9,7.3,2.6,10.5c1.7,3.2,4.3,6,7.4,7.9c3.3,2,7.1,3.1,11,3
			c2.7,0,5.4-0.5,7.9-1.5c2.5-1,4.8-2.3,6.8-4.1l2.8,4.1c-2.4,1.9-5.2,3.5-8.1,4.6C848.9,278.2,845.7,278.8,842.5,278.8z"/>
		<path class="st0" d="M889.4,279.7l-24.8-51.5h6.4l20.9,45.5l-3.4-0.1l20.1-45.4h6.1l-24.5,51.5H889.4z"/>
		<path class="st0" d="M196,163.6c1.6-1.2,3.5-1.3,5.2-1.8c0.8-0.2,1.9-0.1,1.4-1.3c-0.4-1.1,0.3-3.1-2.1-2.8
			c-0.8,0.3-1.7,0.3-2.6,0.1c-0.3-0.1-0.8-0.2-0.8-0.6c0-0.2,0.4-0.5,0.6-0.6c0.7-0.2,1.3-0.4,2-0.5c1.5-0.2,2.1-0.9,1.5-2.4
			c-0.5-1.1-0.6-2.3-0.3-3.5c0.2-1.4,1.6-2.3,3-2.1c0.5,0.1,1,0.3,1.4,0.7c0.9,0.8,1.5,1.7,1.8,2.8c1.4,4.8,2.5,9.6,4.1,14.3
			c1.9,5.6,2.5,11.4,4,17.1c1.2,4.7,2.2,9.5,2.9,14.3c0.7,4.6-1.1,11.1-6.2,13.8c-2.7,1.4-5.4,2.9-8.2,3.1
			c-3.5,0.2-7.1,0.2-10.4-1.5c-1.7-0.6-2.7-2.3-2.4-4.1c0.2-1.4,1.4-2.5,2.9-2.6c1.6,0,3.1,0.2,4.6,0.6c3.4,0.9,7,0.2,9.8-1.8
			c2.7-2,2.7-4.9,2.3-7.8c-0.3-1.9-1-3.7-1.3-5.6c-0.2-1.2-0.6-1.3-1.6-1.1c-0.9,0.1-1.8,0.4-2.7,0.7c-0.3,0.2-0.7,0.2-1-0.1
			c0,0,0-0.1,0-0.1c-0.3-0.5,0.1-0.8,0.5-1c0.6-0.3,1.3-0.5,1.9-0.7c2.2-0.7,2.3-1.1,1.7-3.8c-0.4-1.7-1.5-1.7-2.9-1.4
			s-2.5,0.5-3.7,0.8c-0.6,0.1-1.4,0.2-1.6-0.6s0.6-1.1,1.1-1.2c1.2-0.4,2.5-0.7,3.8-0.9c1.9-0.2,2.3-1.2,2-2.8
			c-0.1-0.7-0.5-1.4-0.6-2.1s-0.5-0.7-1.2-0.6c-2.4,0.1-4.6,1.3-6.9,1.6c-0.7,0.1-1.6,0.3-1.7-0.7s0.7-0.9,1.3-1
			c2.2-0.6,4.4-1.3,6.7-1.8c1-0.2,1.2-0.7,1-1.6c-0.2-0.7-0.2-1.4-0.4-2c-0.4-1.2-1.3-1.1-2.1-0.7c-1.4,0.7-2.8,0.5-4.2,0.7
			c-0.4,0.1-0.9,0-1.1-0.5s0.4-0.7,0.8-0.9c1.3-0.5,2.6-0.8,4-0.9c1.1-0.1,2.1-0.4,1.8-2c-0.5-2.6-1-3-2.9-2.6
			C198.2,164.6,197.4,164.6,196,163.6z"/>
		<path class="st0" d="M197.2,235.8c-6-0.5-11.8-1.7-16.9-5.2c-1.3-1.1-2.9-1.7-4.6-1.6c-2.5,0.2-3.5-1.8-2.6-4
			c0.7-1.6,1.9-2.9,3.6-3.7c2.1-1.1,4.2-1.9,6.4-2.5c1.6-0.5,3.3,0.1,4.1,1.5c0.8,1.3,0.5,3-0.6,3.9c-1.2,1.2-0.2,1.7,0.7,2
			c4.6,1.5,9.1,2.8,14.1,1.5c2.9-0.8,5.9-1.1,8.3-3c1.4-1.1,2.9-2.1,4.4-3.1c1.8-1,4-0.6,5.5,0.9c0.8,1,0.5,3.3-0.7,4.5
			c-2.3,2.3-4.8,4.6-7.8,5.8C206.8,234.5,202.2,236.1,197.2,235.8z"/>
		<path class="st0" d="M308.1,226.7c-2-1.3-2.1-1.4-0.4-3.1c0.6-0.5,1.2-1.1,1.7-1.7c1.5-1.9,3.2-3.8,3.6-6.4
			c0.9-5.1-0.8-9.6-3.3-13.8s-5.9-8.1-8.3-12.4c-0.5-0.8-1-1.6-0.6-2.4c0.8-1.7,0.5-3.4,0.7-5.2c0-1,0.5-1.9,1.3-2.5
			c3.8-3.3,4.1-7.6,0.9-11.5c-0.5-0.7-1.1-1.4-1.8-1.9c-0.3-0.2-0.6-0.5-0.3-0.9c1.1-1.4,0.8-3.2,1.2-4.9c1.1-4.5-0.1-8.6-2.2-12.6
			c-0.6-1.5-2.2-2.5-3.8-2.5c-1.9,0-3.2,0.4-3.8,2.2c-0.2,0.6-0.5,1.1-0.8,1.7c-0.4,0.6-0.8,1.4-1.7,1.3s-1-0.8-1.3-1.5
			c-1.9-4.8-1.1-9.7-0.3-14.5s2.2-9.7,2.9-14.6c1.4-7.6,1.1-15.5-0.7-23c-0.8-3.2-2-6.3-3.6-9.2c-2.7-4.6-5.7-9-10-12.5
			c-3-2.4-6.2-4.5-9.7-6.2c-1.8-0.8-3.8-1-5.7-1.7c1.2-1.4,2.6-2.6,4.3-3.4c1.8-1.1,2-0.9,2.4,1.1c0.1,0.2,0.1,0.4,0.2,0.5
			c1.1,2.7,3,3.8,5.8,3.1c2.3-0.7,3.8-3,3.5-5.4c-0.2-1.5,0.4-2.1,1.6-2.7c2.3-1.3,5-1.1,7.4-1.8c1.5-0.5,3.3-0.7,3.7-2.6
			c0.2-1-2.3-2.1-4.4-2.2c-4.4-0.1-8.7,1.1-12.4,3.5c-1.2,0.7-2.5,1.1-3.9,1c-1.9-0.1-3.8,0.2-5.5,1.1c-0.5,0.2-1,0.8-1.5,0.5
			s0-1,0.1-1.6c0.7-3,0.9-6.1,0.4-9.1c-0.2-1.1-1.2-1.9-2.3-1.8c-1,0-2.4,0-2.6,1.3c-0.4,2.3-1.5,4.4-1.4,6.8c0,1-0.2,1.9-0.5,2.8
			c-2.4-8.4-5.1-16-11.7-21.6c-1.3-0.9-2.4-2-3.3-3.3c-1.2-2.2-3.3-3.2-5.3-4.3c-3.9-2.2-8.4-3.1-12.6-4.7c-0.6-0.3-1.3-0.3-2-0.1
			c-2.7,0.9-4.8-0.7-6.6-2.1c-2.8-2.2-5.3-4.9-7.9-7.3c-4.1-3.7-7.8-7.9-13-10.5c-4.9-2.4-9.7-4.3-15-4.3
			c-5.4-0.1-10.7,1.1-15.5,3.4C161,5,157.9,6.3,155,8.2c-1.9,1.2-3.4,2.9-5.2,4.2c-2.5,1.8-4.4,2.4-7.5,1
			c-4.9-2.2-10.3-1.8-15.5-0.9c-5.8,1.1-11.2,3.7-16.2,6.8c-5.4,3.4-8.7,8.6-12.2,13.7s-6.8,10-13.3,11.8c-1.7,0.5-1.8-0.3-1.6-1.4
			c0.1-1.9,0.3-3.8,0.6-5.7c0.4-2.2-0.7-2.3-2-2.7c-1-0.2-2.1-0.1-3.2,0.2c-2.5,0.7-3.7,2.8-5.3,4.5c-3.7,3.9-6.4,8.3-5.5,13.9
			c0.1,0.7-0.2,0.9-0.8,1.2c-2.5,1.2-5.2,2.2-7.8,3.2c-4.3,1.8-7.8,4.8-11.2,7.7c-3.7,3.3-6.5,7.4-8.3,12c-1.4,3.4-1.8,7-1.3,10.6
			c0.6,3.6,3.4,6.4,7,7c2.3,0.7,4.1,2.6,4.6,5c0.1,0.9,0,1.8-1.1,2.2c-1.7,0.6-3.5,0.7-5.3,0.4c-6.3-1.2-12.1-0.3-17.3,3.9
			c-3.7,3-6.1,6.8-5.5,11.6c0.5,3.8,1.1,7.5,1.7,11.3c0.6,4.2,0.1,7.9-2.9,11.1c-1.5,1.6-1.5,2.7,0.5,3.8c1.1,0.6,2.3,1.1,3.8,1.8
			c-2.9,1.2-5.4,2.6-8.1,3.4c-0.7,0.2-1.5,0.6-1.5,1.5c0,0.7,0.5,1.3,1.3,1.5c1.7,0.5,3.4,1.5,5.2,0.2c1.1-0.8,2.5-0.6,3.7-1.1
			c-0.1,3.2-1.9,5.5-3.2,8c-2.1,4.2-4.8,8-6.8,12.3c-2.3,5-4.4,10.1-5.3,15.5c-0.4,2.1-1.3,4.2-1.5,6.3c-0.6,6-0.8,12-0.5,17.9
			c0,1.7,0.2,3.4,0.5,5c1.1,4.5,2.4,8.9,4.1,13.2c0.4,1,0.3,1.4-0.8,1.8c-2.1,0.8-4.3,1.4-6,3c-4.7,4.3-6.2,9.5-5.1,15.7
			c0.9,5.4,2.4,10.5,5.8,14.8c2.5,3.3,5.2,6.4,9.6,7.2c2.5,0.5,5,0.5,7.4,0.1c1.4-0.3,2.8,0.3,3.5,1.5c2.5,3.4,4,7.1,3.6,11.6
			c-0.3,3.1-1.9,4.8-4.9,4.9c-0.6,0-1.1,0-1.7,0.1c-1.6,0.2-3,1.9-2.5,3.3c0.3,1.1,0.6,2.3,0.7,3.5c0.9,3.8,3.1,6.4,6.9,7.4
			c1.5,0.2,2.6,1.6,2.5,3.1c0.2,3.6,1.4,7.1,3.4,10.2c2.3,3.3,5.3,6.2,8.7,8.4c3.8,2.6,8.2,4.2,12.8,4.4c4.4,0.3,8.9-0.6,13.3-1.5
			c5.3-1.1,10.3-3.3,15.8-3.8c1.9-0.2,3.7-0.9,5.5-0.7c3.1,0.3,6.2,0.1,9.3,0.4c4.1,0.4,8.3,0.4,12.2,1.5c3.2,0.7,6.3,1.2,9.6,1.5
			c3.1,0.4,6.2,0.5,9.3,0.4c6.6-0.1,13-0.8,19.2-3.2c5.9-2.3,10.3-6.5,13.9-11.6c0.5-0.7,0.7-0.9,1.5-0.4c2.5,1.8,5.2,3.4,7.9,4.9
			c4.2,2.1,8.4,4,12.8,5.6c8.4,3,17.4,3.9,26.2,2.3c7.5-1.3,14.7-3.4,21.3-7.4c0.6-0.5,1.4-0.7,2.1-0.5c2.2,0.7,4.4,1.4,6.4,2.2
			c3.5,1.3,6.9,1.2,10.4,1.1c4.6-0.2,8.7-2.5,13-3.7c5.1-1.4,10.4-1.9,15.7-1.5c4.6,0.4,9,0.4,13.4-1.6c3.8-1.7,7-6.7,6.8-10.8
			c-0.2-4-0.7-7.9-1.4-11.9c-0.7-3.7-1.1-7.4,0-11.1c0-0.1,0-0.2,0-0.4c0.4-5.1,2.3-9.7,4.1-14.3s5-8.6,7.7-12.8
			c1.6-2.4,3-4.9,4-7.6C318.8,238.8,313.8,230.4,308.1,226.7z M297.5,151.7c1.8,3.6,1,10.3,1,10.3c-1.2-3.6-5-6.9-5-6.9
			C296.1,154,295.7,148.1,297.5,151.7L297.5,151.7z M290.3,167.2c0.1,0.3,0.5,0.7,0.2,1c-1.8,1.8-0.6,3.9-0.8,5.9
			c-0.5,4.5,0.2,9.1,2.2,13.3c0.2,0.3,0.3,0.7,0.3,1.1c-0.6,5.4-2.5,10.6-5.5,15.1c-0.9-3.9-3.1-7.1-4.9-10.4
			c-2.6-4.8-5-9.7-9.5-13.2c-1.9-1.5-3.2-3.2-2.6-6.2s-0.1-6.4-0.2-9.6c-0.1-4.2-0.7-8.3-0.9-12.4c-0.1-1.1,0.2-1.2,1.3-1
			c5.9,1.2,11.2,4.4,15.1,9C287,162,289.4,164.1,290.3,167.2L290.3,167.2z M261.5,180.2c2,1.8,3.5,4.1,5.3,6c3,3,4.8,6.6,6.8,10.2
			c2.9,4.9,5.2,10.3,6.7,15.8c0.3,0.8,0,1.7-0.7,2.1c-2.9,2.1-5.7,4.5-8.9,6.3c-2.8,1.5-5.9,2.4-9.1,2.5c-4.6,0.2-9.2,0.5-13.7-0.4
			c-3.2-0.8-6.1-2.3-8.6-4.4c-1.2-1-2.6-1.7-3.8-2.6c-2.7-2-4.5-4.8-6.5-7.5c-4-5.3-6.7-11.5-8-18c-0.8-3.2-1.2-6.5-1.3-9.9
			c0-4.3,1-8.5,2.9-12.4c2.3-4.6,5.5-8.6,9.5-11.8c3.8-3,8.4-4.9,13.3-5.3c2.6-0.3,5.2-0.3,7.9-0.5c1.7,0,3.4,0.1,5.1,0
			c1-0.1,1.3,0.3,1.4,1.3c0,2.3,0.2,4.6,0.6,6.9c0.8,3.9,0.3,7.9,1,11.9c0.3,1.5,0.2,3.2,0.3,4.8c0,0.4-0.1,0.9-0.4,1.2
			C259.8,177.8,259.9,178.8,261.5,180.2L261.5,180.2z M157.2,307.8c-0.3,1.1-0.8,2.1-1.5,3c-3.2,3.6-6.7,6.8-11.6,7.7
			c-2.1,0.4-3.8,1.6-6,1.9c-5.8,0.5-11.7,0.4-17.5-0.4c-4.2-0.5-8.3-1.4-12.4-2.1c-0.7-0.1-1.3-0.1-2-0.1c-2.6-0.1-5.2,0.3-7.8-0.5
			c-1.2-0.4-2.5-0.3-3.7,0.2c-1.4,0.6-2.6-0.5-4-0.3c-4.2,0.4-8.3,1-12.4,1.9c-4.1,0.9-8,2.3-12,3.5c-2.5,0.8-5.1,0.3-7.6,0.8
			c-3.3,0.6-6.6,0.1-9.5-1.5c-4.1-2.2-7.5-5.7-9.5-9.9c-1.1-2.3-1.7-4.8-1.8-7.4c-0.2-3.3-1.2-4.5-4.5-4.7c-1.2-0.1-2.3-0.5-3.4-1.1
			c-0.4-0.2-0.8-0.4-0.8-0.9s0.6-0.5,1-0.7c4.6-1.5,6.4-5.4,7.2-9.4c1.1-5.8-1-11.1-4.4-16c-2.4-3.8-6.9-6-11.4-5.4
			c-5.9,0.5-8.8-2.8-10.8-7.4c-1.8-3.6-2.8-7.5-2.9-11.5c0-4.2,1.5-7.6,6.1-8.9c2.1-0.6,3.1-0.1,3.5,2c0.2,0.8,0.2,1.7,0,2.6
			c-0.3,1.2-0.8,1.7-2.1,1.4s-2.6-0.5-3.6,0.3c-3,2.3-2.2,4.4,0.8,6.4c4.7,3.2,10.2,0.6,11.9-4.9c1.4-4.4,0.1-8-1.7-11.8
			c-2.4-4.8-4.3-9.9-5.6-15.2c-1.3-5-1.8-10.1-1.5-15.3c0.6-7.4,1.3-14.7,3.8-21.8c1.7-4.4,3.7-8.7,5.8-12.9
			c1.5-3.2,3.2-6.3,4.7-9.5c2.1-4.6,3.4-9.5,4.1-14.5c0.1-1.3-0.1-2.5-0.4-3.7c-0.3-1.4-2.3-2.2-4-1.6c-0.4,0.1-0.8,0.5-1.2,0.1
			s0-0.8,0.2-1.2c1.5-2.4,1.9-5.4,1-8.1c-1.1-4-1.1-8.1-2-12.2c-0.2-1.1,0.1-2.3,0.7-3.2c2.9-4.6,6.9-7.3,12.5-6.3
			c2.5,0.5,5.1,0.7,7.6,0.6c3.6-0.3,6.9-1.5,8.7-5c1.5-3,0.8-5.9-0.8-8.5c-1.9-2.8-4.6-5-7.8-6.1c-1.2-0.4-2.1-1.4-2.3-2.7
			c-0.3-2.4-0.6-4.9,1-7.2c0.7-1.1,1.3-2.3,1.8-3.5c1-2.7,3-4.5,5-6.3c2.6-2.4,5.4-4.6,8.5-6.3c3.4-2.1,7-3.7,10.7-4.8
			c2.4-0.6,2.9-2.4,1.4-4.3c-0.2-0.2-0.4-0.4-0.4-0.6c-0.5-3.3-0.3-6.4,1.9-9.4c0.8,1.4,1,2.8,2.2,3.9c3.8,3.3,7.7,3.2,11.8,1.4
			c4.5-1.8,8.4-4.9,11.2-8.8c2.3-3.4,4.5-6.9,6.9-10.2c3.1-4.2,7.4-7.6,12.3-9.6c3.2-1.3,6.6-2.2,10-2.6c3.4-0.6,6.5,0.1,10,0.6
			c-3.4,3.3-7.1,6.3-11.1,9c-4.4,3.1-9.1,5.9-13.8,8.5c-1,0.5-2.1,1.2-1.7,2.6c0.5,1.1,1.7,1.8,2.9,1.7c1.5,0.1,3-0.3,4.3-1.2
			c3.9-3,8.6-4.7,12.6-7.6c3.4-2.4,6.6-4.9,9.8-7.5c1.3-1.1,2.5-2.4,4.3-2.9s2.2-2.4,3.5-3.5c5.1-4.1,10.1-8.2,16.4-10.6
			c3.9-1.5,7.6-2.7,11.7-2.7c3.3,0,6.6,1,9.3,2.9c1.9,1.3,4.1,2.3,5.5,4c1.7,2,3.6,3.8,5.3,5.8c2.1,2.7,4.5,5.2,7.1,7.4
			c2.2,1.9,4.3,4.1,7.2,5.3c3,1.3,6,2.7,9.4,2.5c1.3-0.1,2.3,0.9,3.4,1.3c3,1,5.8,2.6,8.2,4.7c1.3,1,2.6,1.9,3.8,3
			c4.1,3.6,7.2,8.3,9,13.5c0.3,1,1,1.8,1.4,2.8c1.8,5.1,1.1,10.4,1,15.6c0,2.7-0.7,5.3-2,7.7c-1.3,2.3-2.3,4.7-3.6,6.9
			c-0.7,1.1-1.8,1.9-3.1,2.1c-4,0.8-8.1,1.4-12.1,2.1c-2.8,0.4-5.5,0.9-8.3,1.2c-3.1,0.2-6.2,0-9.2-0.6c-3.8-0.7-7.3-2.4-11.1-3.2
			c-0.9-0.2-0.9-0.6-0.4-1.1c2-1.9,2.3-4.7,3.8-6.8c0.8-1.1,0.5-2.8,0.6-4.2c0-0.9-0.9-1.3-1.7-1.5c-0.8-0.4-1.8,0-2.3,0.7
			c-1.2,1.9-2.4,3.8-3.6,5.7c-2.1,3.4-4.5,6.6-7.1,9.6c-1.3,1.8-2.8,3.4-4.4,4.8c-2.3,1.7-4.3,3.5-7.3,4c-2.9,0.5-5.6,2.1-8.6,2.4
			c-2,0.3-4,0.9-5.8,1.9c-1.3,0.7-2.7,1.5-2.4,3.4c0.1,2.1,1.6,3.8,3.7,4.2c3.2,0.7,6.4-0.3,9.4-1.1c3.7-0.9,7.2-2.1,10.6-3.8
			c4.5-2.4,9.3-4.3,12.8-8.2c0.7-0.8,1.9-1.1,2.8-0.6c1.8,0.7,3.6,1.3,5.5,1.6c2.2,0.3,4.4,0.9,6.6,1.6c3.4,1.2,6.7,0.5,10,0.3
			c3.8-0.2,7.6-0.7,11.3-1.7c4.1-1,8.5-0.9,12.2-3.3c3.3-2.2,6.4-4.4,7.5-8.7c0.4-1.8,2-3.2,2.7-5.1c0.9-2.3,1.2-4.8,2.4-7.1
			c0.3-0.7,0.3-1.5,0.1-2.2c-0.2-1.7,0.6-2.3,2.2-2c4.4,1,8.5,3.2,11.8,6.4c3.1,3,5.8,6.4,7.9,10.1c1.2,2.1,2.1,4.4,2.5,6.8
			c0.4,2.2,1.3,4.4,1.5,6.7c0.4,3.9,0.8,7.7-0.3,11.6c-0.7,2.5-0.9,5.1-1.4,7.7c-0.3,1.6-0.7,3.1-0.9,4.8c-0.4,3.1-1.3,6.1-1.6,9.1
			c-0.4,3.4-0.9,6.9,0.4,10.3c-4.1-1.1-8.1-2.1-12.2-3.1c-0.8-0.2-1-0.8-1.1-1.5c-0.3-2.2-0.2-4.6-0.7-6.7c-0.9-3.8-1-7.6-2-11.4
			c-0.8-2.7-1.4-5.4-1.9-8.2c-0.3-2.4-3.6-3.7-6.3-2.5c-2.1,0.9-3.3,2.9-2.5,5.2c1.7,5.5,2.9,11.1,3.5,16.7c0.3,2.1,0.5,4.3,0.9,6.4
			c0.2,1.1-0.2,1.5-1.2,1.5c-2,0.1-4,0.3-6,0.3c-5.5,0.2-10.9,1.2-16.1,3c-5.4,1.9-10.3,5.1-14.1,9.4c-1,1-1.9,2.2-2.6,3.4
			c-0.7,1.3-1.3,1.5-2.3,0.4c-3.2-3.3-7.4-4.7-11.7-5.3c-2.9-0.4-5.8-0.2-8.7,0.5c-3.7,0.9-7.2,2.4-10.3,4.7c-0.8,0.6-1.2,2-2.3,1.6
			c-0.8-0.3-1.1-1.4-1.7-2.1c-3.3-4-7.4-7.2-12-9.5c-5.9-2.8-12.4-4.3-18.9-4.4c-6.3-0.1-12.6-0.3-18.9,0.8c-3,0.6-6,1.4-8.8,2.4
			c-6.6,2.3-12.4,6.6-16.5,12.3c-0.1,0.2-0.3,0.4-0.7,0.8c-0.8-1.5-1.6-2.8-2.2-4.2c-0.5-1.3-1.5-2.5-2.7-3.3
			c-1-0.7-1.1-1.4-0.2-2.3c4.8-5.2,9.2-10.9,13.1-16.8c2.7-4.1,5-8.4,7.1-12.9c1.6-3.4,3-6.9,4.1-10.6c0.2-0.8,0.4-1.3,1.4-0.9
			c4,1.7,8.3,1.7,12.4,2.6c3.6,0.8,7.4,1.2,11.1,1.2c2.6,0,4.6-1.7,4.8-3.8c0.2-2.8-2.9-5.6-5.8-5.5c-3.1,0-6.2-0.3-9.3-1
			c-2.5-0.5-5-1.1-7.5-1.4c-1.5-0.2-2.8-1.2-4.3-1.1c-2.9,0.2-5.7,0.3-8.6,0.4c-6.8,0.3-11.6,4-15.9,8.7c-0.7,1-1.2,2.1-1.3,3.3
			c-0.2,1.1,1,2,2.3,1.7c2.3-0.6,3.8-2.4,5.5-3.8c1.6-1.3,3.3-2.4,5.1-3.4c0.5-0.3,1.1-0.7,1.6-0.3s0.3,1.1,0.1,1.6
			c-1.8,4.2-3.6,8.3-5.7,12.4c-2.7,4.9-5.7,9.7-9,14.2c-2.7,3.7-5.6,7.2-8.8,10.4c-1.9,1.9-2.4,4.8-1.2,7.2c1.1,2.5,2.2,5,3.6,7.4
			c0.9,1.6,1.7,3.2,2.6,4.8c0.9,1.3,0.7,3-0.4,4.1c-0.2,0.2-0.4,0.5-0.6,0.7c-2.9,3.5-2.7,8.2,0.9,11c1.3,0.9,2,2.4,1.9,3.9
			c0.1,2.3,0.5,4.6,1,6.8c0.4,2.4-0.5,4.3-1,6.5c-1.3,5-5.2,8.6-6.7,13.4c-1.1,3.5-2.3,6.9-0.8,10.6c1.1,2.8,3.1,4.3,6.1,4.1
			c-1.6,1.3-3.3,1.4-5,1.6c-2.6,0.4-5.2,3-4.5,5.1c0.5,1.4,1.6,2.5,2.3,3.8c3,5.7,6.2,11.3,8.8,17.1c1.9,4.2,2.6,8.9,2,13.5
			c-0.1,0.4-0.2,0.7-0.4,1c-1.6,2.2-2,4.9-2.9,7.4c-0.4,1.2-1.3,2-1.9,3.2c-2.9,5.5-3.6,11.9-2.1,17.9c0.6,2,2.2,3.4,4.2,3.8
			c1.4,0.2,2.7-0.9,2.9-2.3c0-0.1,0-0.2,0-0.3c0.2-2.9,1-5.7,0.8-8.6c-0.1-1.5,0.7-2.7,1.1-4c3.8,0.8,5.8,4.2,8.9,5.9
			c7.3,4.1,14.8,8,22.9,10.1c2.7,0.7,5.2,1.8,8,2.1c3.5,0.3,6.7,2,10.2,1.8c1.1,0,2.3,0.7,3.5,0.6
			C157.3,306.9,157.5,307.2,157.2,307.8z M110.2,183.2c0-2.5-0.4-5.1-1.2-7.5c-0.9-3.2,0.5-5.7,1.9-8.1c3.4-5.7,7.8-10.5,13.9-13.1
			c3.7-1.6,7.6-2.5,11.6-2.7c1.3-0.1,2.6,0,4,0c2.2,0,4.4-0.1,6.6-0.2c5-0.4,10,0.3,14.7,2.1c4.9,1.8,9.1,5.1,12.1,9.3
			c1.6,2,3,4.1,4.3,6.3c1.1,1.9,1.8,4,2,6.1c0.1,1.4,0.8,2.7,0.8,4.2c-0.1,4-0.5,7.9-1.2,11.8c-1.3,6.3-3.8,12.3-7.3,17.6
			c-4,6.5-9.9,11.5-17,14.4c-3.9,1.6-8.1,1.4-12.2,1.4c-1.6,0-3.1-0.1-4.7-0.1c-3.2,0-6-1.3-8.9-2.7c-2.3-1.1-4.1-2.9-6.2-4.2
			s-3.6-3.8-5.3-5.7c-2.3-2.8-4.4-5.9-6-9.2c-1.8-3.3-3.6-6.9-2.4-10.7C110.6,189.1,110.1,186.1,110.2,183.2L110.2,183.2z
			 M154.9,297.3c-2.8-0.6-5.7-0.7-8.4-1.3c-5.3-1.2-10.5-2.7-15.5-4.5c-4.5-1.6-8.6-4.3-13-6c-2.5-1-4.3-3.2-6.5-4.7
			c-1.2-0.9-2.3-2-3.5-3c-0.7-0.5-0.6-1-0.2-1.6c2.1-3.3,2.5-7.1,2.7-10.9c0.2-3.3-0.3-6.6-1.5-9.6c-1.2-2.9-1.9-6.1-3.7-8.7
			c-2.6-3.8-4.6-8-7.7-11.5c-0.5-0.6-0.6-0.8,0.3-1.1c4-1.4,7.3-4.4,9-8.2c0.7-1.6,0.9-3.4,0.7-5.1c-0.3-3.5-5-4.6-7.8-2.3
			c0.8-3.1,1.7-5.6,3.6-7.6c0.1-0.1,0.3-0.3,0.4-0.4c0.8-0.6,1-2.3,1.8-2.1s1.4,1.5,1.9,2.4c2.3,4.8,6.3,8.3,10,11.8
			c2.7,2.6,5.9,4.6,9.5,5.8c2,0.6,3.8,2,5.9,2.6c5.2,1.4,10.6,1.8,15.9,1c2.9-0.5,6-0.5,8.8-1.6c1-0.3,2-0.7,3-1.2
			c3.7-1.7,7.1-3.9,10.3-6.5c2.2-2,4.3-4.2,6.2-6.4c2.1-2.4,4-5.1,5.4-8c0.7-1.3,1.2-2.6,1.9-3.9c2.6-4.6,2.9-9.7,3.8-14.7
			c0.5-2.4,0.8-4.9,1-7.4c0.1-3.4-0.7-6.8-1.4-10.1c-0.2-1-0.4-2-0.7-2.9c-0.2-0.6,0-1.3,0.6-1.6c3.7-3.5,8-5.9,13.2-5.6
			c3.5,0,6.9,1.2,9.6,3.4c2.5,2.1,2.7,3.8,2,6.5c-0.8,2.9-0.3,5.8,0.3,8.9c1,4.9,2.3,9.8,3,14.8c0.6,4,0.3,8.2,2.9,12
			c3,4.3,6,8.6,10,12c3.1,2.8,6.7,5.2,10.5,6.9c2.5,1.1,5.1,2.2,7.7,3.1c3,1.1,6.1,0.6,9.1,0.8c1.9,0,3.8-0.1,5.7-0.3
			c4.6-0.3,9.1-1.6,13.1-3.9c2.2-1.2,4.5-2.4,6.9-3.9c0.5,5,0.3,10-0.5,14.9c-0.4,2.8-1,5.5-1.7,8.2c-1.8,6-4.4,11.8-7.8,17.1
			c-3.2,5.2-7.6,9.2-12,13.3c-2.9,2.6-6.1,4.9-9.4,7c-2.6,1.7-5.3,3.2-8.1,4.4c-2.3,1-4.6,2.1-6.9,3.2c-1.9,0.9-3.9,1.7-5.9,2.3
			c-3.9,1.1-7.6,2.8-11.6,3.3c-5.2,0.7-10.3,2.1-15.6,2.4c-3.1,0.2-6.3,0.3-9.5,0.8c-2.5,0.4-5.1-0.4-7.6,0.1
			c-5.9,1.2-11.7-0.6-17.6-0.9C163.1,298.8,159,298.2,154.9,297.3L154.9,297.3z M305.4,250.1c-4.5,5.5-8,11.6-10.4,18.3
			c-2.5,6.9-3.6,14.3-3.4,21.7c0.1,1.4,0.4,2.8,0.8,4.2c0.6,2.7,0.5,5.5,1,8.1c0.7,3.2-1.4,5.8-4.8,6.5c-2.6,0.6-5.1,0-7.6-0.1
			c-3.8-0.2-7.7-0.6-11.3,0.3c-3.2,0.7-6.4,1.7-9.5,2.8c-4.5,1.7-9.1,3-14,2.4c-1.5-0.2-2.9-0.6-4.3-1.2c-4.2-2.1-8.7-2.2-13.2-2.6
			c-0.6-0.1-1.4-0.2-1.7,0.4s0.3,1.3,0.8,1.8c1.8,2,1.9,2-0.8,3.3c-7,3.3-14.7,5.1-22.4,5.3c-5.4,0.1-10.7-0.8-15.8-2.6
			c-6.9-2.5-13.5-5.8-19.6-9.8c1.9-0.7,3.9-0.8,5.9-0.3c3.3,0.9,6.6,0.2,9.8,0.6c1.3,0.1,2.6-0.2,3.9-0.1c3.2,0,6.3-0.3,9.4-0.9
			c2.1-0.3,4.5,0.4,6.7-0.1c2.8-0.6,5.6-1,8.4-1.3c4.3-0.5,8.2-2.1,12.4-2.7c2.2-0.3,4.1-1.6,6.2-2c2.8-0.5,5.1-2.1,7.6-3.2
			s4.9-2,7.4-3.2c3.7-1.9,7.3-4.1,10.7-6.5c4.5-3.1,9.1-6.3,12.8-10.3c2.7-2.9,5.7-5.6,7.6-9c3.1-5.6,6.9-10.9,8.6-17.4
			c0.8-3.2,1.9-6.4,2.9-9.6c0.5-2.2,0.9-4.4,0.9-6.6c0.2-3.9,0.5-7.8,0.4-11.7c0.1-2.9-0.2-5.7-0.8-8.6c-0.3-0.8-0.1-1.6,0.5-2.2
			c2.7-3.3,4.9-7,6.4-11c0.1-0.2,0.1-0.4,0.2-0.5c0.5-0.9,0.5-2.6,1.9-2.5c1.1,0,1.2,1.6,1.8,2.4c1.7,2.1,3,4.4,3.9,6.9
			c1.3,4.2,1.2,6-1.9,8.9c-2.5,2.3-5.4,4-7.4,6.8c-4.3,5.9-3.6,15.8,5.5,18.3c2.4,0.7,5.5-0.2,7.4-3.8
			C309.5,243.4,307.9,246.9,305.4,250.1z M306.4,235.5c-1.3,0-2.3,0-3.3,0c-1.1,0-2.1-0.8-2.3-1.9c-0.2-0.6-0.4-1.5,0.1-2
			s1.1,0.2,1.7,0.4C304.3,232.7,305.2,234.1,306.4,235.5L306.4,235.5z"/>
		<path class="st0" d="M42.4,222.7c-4.8-0.3-8.4-3.2-10.1-8.7c-2.3-7.4-2.7-15.2-1.2-22.7c1.2-7.2,3.2-14.3,6-21.1
			c1.8-4.5,4-8.9,6.4-13.1c1.1-2,2.3-4,3.7-5.8c0.9-1.1,0.7-2.1-0.8-2.8c-3.1-1.4-3.7-2.6-3-5.9c0.9-4,3.2-7.2,6-10.1
			c3.4-3.5,7.2-6.7,11.2-9.5c3.8-2.6,7.4-5.3,11.9-6.6c0.5-0.2,1.1-0.3,1.6-0.2c0.8,0.3,1.7,0.5,1.9,1.3s-0.6,1.3-1.2,1.6
			c-5,2.9-9.5,6.5-14,9.9c-3.9,2.7-7.2,6-9.9,9.8c-0.9,1.3-1.5,2.8-1.8,4.3c-0.2,1.3,0.3,1.8,1.5,1.7c2.6-0.3,5.1-0.9,7.5-1.7
			c4.7-1.6,9.1-3.7,13.2-6.5c1.7-1,3.7-1.3,5.7-1c1.2,0.1,1,0.9,0.7,1.6c-0.8,1.8-2.3,3.2-4.1,4c-4.3,2.1-8.3,4.5-12.9,6
			c-1.8,0.6-3.7,0.9-5.6,1.4c-0.7,0.2-1.3,0.4-1.6,1.1c-1.7,3.9-4.4,7.4-6.1,11.4c-1.8,4.4-4.3,8.5-5.7,13.1c-1,3.4-2.5,6.6-3.4,10
			c-0.8,3-1.4,6.1-1.8,9.1c-0.5,3.6-0.7,7.3-0.5,11c0.1,3.9,1.1,7.7,2.9,11.1c1.9,3.6,4.6,4.1,7.8,1.6c3.4-2.7,5.1-6.6,7-10.3
			c1.1-2.2,2.5-4.3,4.2-6.2c0.5-0.7,1.4-1.1,2.2-1c0.8,0.2,0.6,1.2,0.6,2c-0.1,3.5-1.5,6.6-3.2,9.7c-1.8,3.6-4.3,6.7-7.4,9.2
			C48,222.4,45.2,223.1,42.4,222.7z"/>
		<path class="st0" d="M140.9,37.5c4.2-0.2,7.8,1.4,11.5,2.2c3.6,0.9,7.5,0.8,11.1-0.2c4.7-1.5,9-4.1,13.5-5.9
			c6-2.4,12.1-3.6,18.6-1.9c2.5,0.7,4.7,2.2,6.3,4.2c2.8,3.1,4.1,7.1,6.5,10.5c0.9,1.3,0.2,2.4-1.4,2.8c-1.6,0.4-3.2-0.3-4-1.7
			c-1.8-2.6-3.7-5-5.3-7.7c-2.8-4.3-6.6-4.6-11.6-3.7c-6.3,1.1-11.5,4.7-17.2,7.2c-7.1,3.2-14.3,3.7-21.5,0.4
			c-2.5-1.1-5.3-1.1-7.9-0.8c-4.6,0.4-8.8,2.6-11.8,6.1c-0.4,0.5-1,0.9-0.7,1.6s1.1,0.5,1.7,0.6c1.9,0.3,3.7-0.6,5.5-1
			c1.3-0.3,2.7-0.3,4.1,0c0.9,0.1,1.8,0.5,1.9,1.5s-0.9,1.4-1.6,1.6c-2.4,0.8-5,1.2-7.4,1.9c-2.5,0.8-5.3,0.6-7.6-0.6
			c-2.3-0.9-3.3-3.5-2.4-5.8c0.1-0.3,0.3-0.6,0.5-0.9c3.5-5.2,9-8.7,15.2-9.6C138.1,37.9,139.6,37.3,140.9,37.5z"/>
		<path class="st0" d="M178.7,128.3c-1,2.2-1.5,4.7-4,6.5c-3.2,2.5-6.9,4.2-10.9,5.3c-5.4,1.3-10.9,2.4-16.3-0.3
			c-2-1-3.5-2.9-3.9-5.1c-1-4.4,1.4-7.2,4.7-9.1c5-3,10.4-5.4,16.3-6.1c4-0.6,8.1,0.5,11.2,3.1C177.6,124.1,178.2,126,178.7,128.3z
			 M155,134.4L155,134.4c0.3,0.1,0.5,0.1,0.8,0.1c5.4-0.3,10.4-1.6,14.7-5c0.8-0.6,1.1-1.6,0.9-2.5c-0.2-0.9-0.8-1.3-1.7-1.5
			c-4.7-1.3-8.8,0.8-13,2.3c-1.5,0.7-2.9,1.5-4.2,2.4c-1.1,0.6-1.6,1.9-1.2,3.1c0.4,1.2,1.5,1.2,2.5,1.2L155,134.4z"/>
		<path class="st0" d="M230.4,119.6c5.5-0.6,10.1,1.7,14.9,3.8c1.6,0.6,3.2,1.4,4.7,2.2c2.4,1.5,4.2,3.8,4.9,6.5
			c0.5,2.1-1.9,6.7-4.2,7.8c-3.9,1.8-7.8,1.7-11.7,1.1c-3.9-0.4-7.6-1.6-11.1-3.4c-3.3-1.8-6.6-3.7-7.8-7.9
			c-0.7-2.1-0.2-4.4,1.3-6.1C223.6,120.9,226.8,119.9,230.4,119.6z M242.9,134.4h1.9c1,0,1.9-0.1,2.4-1.2c0.4-1,0-2.1-0.9-2.6
			c-0.5-0.4-1.1-0.8-1.7-1.2c-2.5-1.4-5.1-2.6-7.8-3.5c-2.6-0.9-5.4-1.1-8.1-0.5c-1.2,0.1-2,1.2-1.9,2.3c0.1,0.6,0.4,1.1,0.8,1.5
			c1.1,1.1,2.3,2,3.7,2.7C235.1,133.3,238.9,134.6,242.9,134.4L242.9,134.4z"/>
		<path class="st0" d="M255.6,98.6c0,3.3-6.6,7.8-9.7,6.6s-3.4-3.2-1.2-5.4c1.8-1.9,4.3-2.7,6.6-3.8S255.6,96.4,255.6,98.6z"/>
		<path class="st0" d="M252.5,112.3c-2.4,0-4.2-1.5-4.5-3c-0.4-1.2,0.3-2.5,1.5-2.8c0,0,0,0,0,0c2-0.8,4-1.8,5.8-3.1
			c1.5-1,3.6-0.7,4.7,0.8c1,1.2,0.8,3-0.5,4c-0.1,0.1-0.2,0.2-0.4,0.3C256.8,109.9,254.8,112.1,252.5,112.3z"/>
		<path class="st0" d="M165.8,179c0.1,5.3-3.6,9.2-8.7,9.2s-9.7-4-9.8-8.8c-0.1-5.8,3.6-10,8.7-10.1
			C161.9,169.4,165.7,173.1,165.8,179z"/>
		<path class="st0" d="M242.8,179.1c0.3,4.2-5.1,9-8.6,8.9c-5.1-0.2-10.3-4.5-10.1-8.6c0.2-5.8,4.6-10,9.8-9.9
			C238.6,169.6,242.9,174.3,242.8,179.1z"/>
		<g class="st1">
			<path class="st0" d="M355.1,63.5c6-7.4,14.7-8.5,23.6-8.6c9.1-0.1,19,1.6,28.4,5c9.4,3.4,17.8,8.7,23.3,16.7
				c5.6,8.1,7.6,19,3.9,30.2c-6.9,20.7-25.6,32.1-42.1,38c13.6,9.4,24,15.1,40.8,18.3c5.3,1,8.9,6,7.8,11.2
				c-1.1,5.2-6.3,8.5-11.6,7.4c-26.6-5.1-42-16.8-62.2-31.6c-1.4,0.3-2.6,0.4-3.7,0.6c0.1,12.8,0.4,22.1,0.4,25.7
				c0.1,5.4-4.3,9.9-9.8,9.9c-5.5,0-9.9-4.4-9.8-9.7c0-3.5-0.9-27.4-0.2-51.4c0.3-12.1,1-24.4,2.5-35.1
				C347.8,79.7,349.3,70.7,355.1,63.5z M399.1,76.2c-6.6-2.5-14.2-3.8-20.1-3.7c-4.3,0-7.6,1.2-8.6,1.6c-1.3,2.8-3.4,9.5-4.6,17.9
				c-1.3,9.9-2,22-2.3,34.1c-0.1,2.2-0.1,5-0.1,6.9c5.1-0.9,11.7-2.3,19.2-4.9c14.2-4.9,28.1-13.3,33-27.6
				c2.2-6.6,1.2-10.3-1.6-14.2C411.2,82.5,405.7,78.7,399.1,76.2z"/>
			<path class="st0" d="M505.3,86.7c12.8,4,20,14.1,21.7,24.8c1.6,11.1,0,23.1-0.9,37.8c-1.1,17.4-0.8,27.2-0.8,27.2
				c0.2,4.5-4.2,8.2-9.6,8.3c-5.5,0.1-8.7-3.5-9.7-7.9c-9.6,4.5-22.6,7.5-36.7,4.1c-7.7-2-13.8-6.6-17.1-12.6
				c-3.3-6-3.8-12.9-2.3-19.4c3.1-13.5,14.4-25.9,32.9-30.3c4.6-1,9-1.5,13-1.6c4.7-0.1,9.1,0.6,12.2,1.5c-0.1-6.6-1-10.6-9.7-13.4
				c-10.3-3.3-18.4-0.8-24.7,2.4c-2.8,1.5-5.1,3.4-6.3,4.6c-1.5,1.5-3.5,5.3-8.7,5.9c-2,0.1-5.4-0.4-7.8-2.6c-5-5.3-2-12.3,2.3-16.8
				c2.4-2.4,5.8-5.2,10.2-7.8C475.9,83.8,490.6,82.5,505.3,86.7z M488.2,137.8c-12.2,2.5-17.9,9.5-19.2,15.2
				c-1.1,4.3,0.1,7.7,5.9,9.1c8,2,15.4,0.1,21.6-2.8c3.1-1.4,5.8-3.2,7.5-4.6c2.6-2,1.9-2.2,2.3-6.2c0.2-3.5,0.7-7.4-1.3-9.8
				C501.7,135.2,494.5,136.4,488.2,137.8z"/>
			<path class="st0" d="M572.5,58.4c7.2-2,13.8-2,22.1-0.9c12,1.7,19.5,9.1,23.1,15.5c3.5,6.4,4,12.4,4,12.5
				c0.5,5.4-3.5,10.3-9,10.7c-5.5,0.4-10.2-3.7-10.6-9.1c-0.1-1.4-1.3-5.3-4.2-7.6c-0.7-0.6-1.5-1-2.4-1.5
				c-8.6-4.2-20.9-1.9-25.3,5.4c-1.6,2.6-2.1,6.1-2.5,13.3c-0.2,3.6-0.3,8-0.3,11.9h31.9c5.4-0.1,9.9,4.1,10,9.4
				c0,5.3-4.5,9.5-9.9,9.5H568c1.2,29.4,3.8,48.3,3.8,48.3c0.8,5.3-3.5,10-9.4,10.7c-5.9,0.6-10.9-3.1-11.5-8.4
				c0,0-2.6-20.8-3.6-50.6h-4.9c-5.4,0.1-10-4.1-10-9.4c0-5.3,4.5-9.6,9.9-9.5h4.5c-0.1-5.7-0.1-11.3,0.3-17.7
				c0.5-6.3,1.8-11.8,4.6-16.7C556.3,65.9,564.2,60.7,572.5,58.4z"/>
			<path class="st0" d="M675.7,86.7c12.8,4,20,14.1,21.7,24.8c1.6,11.1,0,23.1-0.9,37.8c-1.1,17.4-0.8,27.2-0.8,27.2
				c0.2,4.5-4.2,8.2-9.6,8.3c-5.5,0.1-8.7-3.5-9.7-7.9c-9.6,4.5-22.6,7.5-36.7,4.1c-7.7-2-13.8-6.6-17.1-12.6
				c-3.3-6-3.8-12.9-2.3-19.4c3.1-13.5,14.4-25.9,32.9-30.3c4.6-1,9-1.5,13-1.6c4.7-0.1,9.1,0.6,12.2,1.5c-0.1-6.6-1-10.6-9.7-13.4
				c-10.3-3.3-18.4-0.8-24.7,2.4c-2.8,1.5-5.1,3.4-6.3,4.6c-1.5,1.5-3.5,5.3-8.7,5.9c-2,0.1-5.4-0.4-7.8-2.6
				c-5-5.3-1.9-12.3,2.3-16.8c2.4-2.4,5.8-5.2,10.2-7.8C646.3,83.8,660.9,82.5,675.7,86.7z M658.6,137.8
				c-12.2,2.5-17.9,9.5-19.2,15.2c-1.1,4.3,0.1,7.7,5.9,9.1c8,2,15.4,0.1,21.6-2.8c3.1-1.4,5.8-3.2,7.5-4.6c2.6-2,1.9-2.2,2.3-6.2
				c0.2-3.5,0.7-7.4-1.3-9.8C672.1,135.2,664.9,136.4,658.6,137.8z"/>
			<path class="st0" d="M789.9,167.9c-6.9,5.3-15.3,10.3-25.2,13.2c-10.4,2.7-22.3,3.4-33.4-1.1c-16-7.6-23-23.4-24.1-38.7
				C705.6,116.1,715,99,727.4,90c5.9-4.1,16.2-7.8,25.7-7.6c13.8,0.3,24.7,7.2,29,17c4.9,11.8,1,26.7-11.9,36.5
				c-14.6,10.2-31.1,8.5-41.5,4.3c-0.6-0.2-1.6-0.8-1.9-0.9c0,0.6,0,0.5,0,0.8c0.8,10.7,5.3,18.6,14,22.3c4.8,0.8,10.5,0.8,17.4,0
				c6.8-1.9,14-5.7,19.4-9.8c4.3-4.2,10.5-3.3,13.9,1.9C795,158.6,794.2,164.7,789.9,167.9z M741.5,104.6c-4.8,2.3-9.5,6.5-12.2,13
				c2,1.6,4.4,3.2,7.9,4.6c6.3,2.5,11.9,3.6,19.8-1.9c8.2-5.4,8.2-9.9,6.4-13.4C760.3,102,749.2,101.4,741.5,104.6z"/>
			<path class="st0" d="M827.9,66.4c0,0-3.9,29.2-4.7,63.8c-0.3,13.2,0.2,23.1,1,29.6c0.4,3.4,1,6.7,2.4,9.2c2.2,3.8,1,8.6-2.6,11.4
				c-4.3,2.8-10.4,2.2-13.8-1.3c-3.7-4.4-4.7-11.5-5.4-17c-0.9-7.9-1.4-18.4-1.1-32.3c0.8-35.9,4.9-66,4.9-66.1c0.6-4.1,5-7,9.9-6.9
				C824.3,56.9,828.8,61.4,827.9,66.4z"/>
			<path class="st0" d="M896.1,86.7c12.8,4,20,14.1,21.7,24.8c1.6,11.1,0,23.1-0.9,37.8c-1.1,17.4-0.8,27.2-0.8,27.2
				c0.2,4.5-4.2,8.2-9.6,8.3c-5.5,0.1-8.7-3.5-9.7-7.9c-9.6,4.5-22.6,7.5-36.7,4.1c-7.7-2-13.8-6.6-17.1-12.6
				c-3.3-6-3.8-12.9-2.3-19.4c3.1-13.5,14.4-25.9,32.9-30.3c4.6-1,9-1.5,13-1.6c4.7-0.1,9.1,0.6,12.2,1.5c-0.1-6.6-1-10.6-9.7-13.4
				c-10.3-3.3-18.4-0.8-24.7,2.4c-2.8,1.5-5.1,3.4-6.3,4.6c-1.5,1.5-3.5,5.3-8.7,5.9c-2,0.1-5.4-0.4-7.8-2.6
				c-5-5.3-1.9-12.3,2.3-16.8c2.4-2.4,5.8-5.2,10.2-7.8C866.7,83.8,881.3,82.5,896.1,86.7z M879,137.8c-12.2,2.5-17.9,9.5-19.2,15.2
				c-1.1,4.3,0.1,7.7,5.9,9.1c8,2,15.4,0.1,21.6-2.8c3.1-1.4,5.8-3.2,7.5-4.6c2.6-2,1.9-2.2,2.3-6.2c0.2-3.5,0.7-7.4-1.3-9.8
				C892.5,135.2,885.3,136.4,879,137.8z"/>
		</g>
	</g>
</g>
</svg>
