<svg xmlns="http://www.w3.org/2000/svg" viewBox="0 0 922.59 331.18"><defs><style>.cls-1,.cls-2{fill:#fff;}.cls-2{font-size:196.08px;font-family:MelonSlicesBold, Melon Slices;}</style></defs><title>Rafaela Horizontal </title><g id="Camada_2" data-name="Camada 2"><g id="Camada_2-2" data-name="Camada 2"><path class="cls-1" d="M739.94,269.1a4.92,4.92,0,0,1,3.46-1.5,4.82,4.82,0,0,1,3.53,1.5,5,5,0,0,1,1.49,3.69,4.76,4.76,0,0,1-1.49,3.61,5,5,0,0,1-3.53,1.42,5.08,5.08,0,0,1-3.46-1.42,4.62,4.62,0,0,1-1.57-3.61A4.86,4.86,0,0,1,739.94,269.1Z"/><path class="cls-1" d="M781.12,278.83a24.68,24.68,0,0,1-21.85-12.67,28.9,28.9,0,0,1,.06-27.2,23.77,23.77,0,0,1,9.37-9.05,26.91,26.91,0,0,1,12.93-3.18,26.38,26.38,0,0,1,13.7,3.82,23.19,23.19,0,0,1,9.36,9.94l-1,2.55V203.15h5.6v74.67h-5.6V262.4l1.15,2.68a25,25,0,0,1-9.56,9.93A27,27,0,0,1,781.12,278.83Zm1.4-4.84a21.22,21.22,0,0,0,10.38-2.54,21,21,0,0,0,7.52-6.88,20,20,0,0,0,3.25-9.81v-6.12a19.43,19.43,0,0,0-4-8.85,23.5,23.5,0,0,0-7.52-6.18,20.47,20.47,0,0,0-9.62-2.29,21,21,0,0,0-10.64,2.74,20.45,20.45,0,0,0-7.58,7.51,21.47,21.47,0,0,0-2.8,11,21,21,0,0,0,2.8,10.77,21.78,21.78,0,0,0,7.65,7.7A20,20,0,0,0,782.52,274Z"/><path class="cls-1" d="M842.45,278.83a26.87,26.87,0,0,1-13.63-3.43,25,25,0,0,1-9.37-9.3,26.09,26.09,0,0,1-3.37-13.25,25.06,25.06,0,0,1,3.56-13.19,27.32,27.32,0,0,1,9.56-9.49,25.61,25.61,0,0,1,13.37-3.57,21.83,21.83,0,0,1,14.78,5.16A29.19,29.19,0,0,1,866,245.2l-43.57,16.95-1.66-4.08,40.13-15.8-1.15,1.79a22.94,22.94,0,0,0-6.69-9,16.49,16.49,0,0,0-10.89-3.75,19.39,19.39,0,0,0-10.38,2.86,21.67,21.67,0,0,0-7.45,7.65,20.84,20.84,0,0,0-2.81,10.76,21.93,21.93,0,0,0,2.62,10.51,20.54,20.54,0,0,0,7.39,7.9,20.23,20.23,0,0,0,11,3,21,21,0,0,0,7.9-1.53,23.34,23.34,0,0,0,6.76-4.07l2.8,4.07a29.4,29.4,0,0,1-8.09,4.59A26.3,26.3,0,0,1,842.45,278.83Z"/><path class="cls-1" d="M889.43,279.73l-24.84-51.47H871l20.89,45.48-3.44-.13,20.13-45.35h6.11l-24.46,51.47Z"/><path class="cls-1" d="M196,163.62c1.6-1.16,3.5-1.28,5.24-1.82.76-.23,1.94-.1,1.45-1.31-.42-1.05.28-3.12-2.08-2.81a5.32,5.32,0,0,1-2.6.11c-.34-.12-.83-.18-.77-.65,0-.23.37-.51.63-.6a11.63,11.63,0,0,1,2-.51c1.54-.21,2.11-.94,1.48-2.45a5.68,5.68,0,0,1-.33-3.5,2.57,2.57,0,0,1,4.35-1.39,5.76,5.76,0,0,1,1.76,2.84c1.4,4.77,2.48,9.64,4.13,14.32,1.95,5.57,2.47,11.43,4,17.08a132.55,132.55,0,0,1,2.85,14.25c.71,4.61-1.14,11.11-6.18,13.77-2.68,1.42-5.35,2.92-8.24,3.11-3.46.24-7.12.17-10.38-1.48a3.83,3.83,0,0,1-2.42-4.08,3,3,0,0,1,2.85-2.6,17.41,17.41,0,0,1,4.62.57,11.68,11.68,0,0,0,9.8-1.83c2.68-2,2.67-4.9,2.25-7.8-.27-1.9-1-3.74-1.26-5.65-.18-1.16-.63-1.34-1.61-1.06a9.83,9.83,0,0,0-2.7.73.68.68,0,0,1-1-.22c-.26-.52.11-.83.54-1,.63-.26,1.28-.51,1.93-.71,2.16-.67,2.31-1.07,1.66-3.83-.41-1.74-1.54-1.69-2.88-1.39s-2.46.5-3.68.75c-.64.13-1.37.21-1.56-.58s.58-1.07,1.15-1.24a18.93,18.93,0,0,1,3.82-.9c1.9-.18,2.32-1.21,2-2.82-.15-.73-.46-1.42-.62-2.15s-.53-.69-1.21-.64c-2.4.15-4.55,1.28-6.89,1.62-.68.09-1.55.25-1.68-.66s.7-.88,1.31-1c2.23-.59,4.44-1.25,6.68-1.78,1-.24,1.2-.71,1-1.6-.18-.67-.22-1.37-.42-2-.38-1.2-1.33-1.07-2.14-.66-1.36.68-2.82.47-4.22.69-.43.07-.95,0-1.08-.53s.35-.7.77-.86a14.77,14.77,0,0,1,4-.89c1.08-.11,2.15-.45,1.83-2-.54-2.64-1-3-2.87-2.55C198.19,164.59,197.45,164.57,196,163.62Z"/><path class="cls-1" d="M197.23,235.81c-6-.49-11.77-1.74-16.86-5.23a6.78,6.78,0,0,0-4.57-1.64c-2.47.18-3.54-1.78-2.55-4a7.1,7.1,0,0,1,3.55-3.69,34.09,34.09,0,0,1,6.43-2.53,3.51,3.51,0,0,1,4.09,1.54,3,3,0,0,1-.63,3.92c-1.17,1.2-.18,1.67.73,2,4.56,1.48,9.08,2.78,14.05,1.49,2.91-.75,5.94-1.13,8.34-3,1.43-1.13,2.94-2.09,4.42-3.1a4.65,4.65,0,0,1,5.48.86c.79,1,.51,3.25-.74,4.48-2.34,2.28-4.83,4.59-7.78,5.8C206.79,234.45,202.21,236.12,197.23,235.81Z"/><path class="cls-1" d="M308.09,226.67c-2-1.33-2.11-1.35-.36-3.09a21.5,21.5,0,0,0,1.74-1.7c1.55-1.94,3.16-3.83,3.64-6.43.94-5.12-.75-9.55-3.31-13.8s-5.85-8.09-8.31-12.45c-.45-.79-1-1.62-.62-2.45.78-1.68.49-3.45.66-5.17a3.4,3.4,0,0,1,1.28-2.5c3.82-3.28,4.1-7.58.9-11.46a7.7,7.7,0,0,0-1.78-1.91c-.34-.22-.6-.54-.29-.93,1.14-1.45.77-3.24,1.17-4.85,1.12-4.53-.08-8.63-2.21-12.57a4.05,4.05,0,0,0-3.83-2.49c-1.86,0-3.2.35-3.84,2.24a8.31,8.31,0,0,1-.83,1.66c-.39.64-.84,1.36-1.7,1.28s-1-.81-1.28-1.46c-1.88-4.8-1.14-9.69-.32-14.51s2.16-9.72,2.92-14.63a55.37,55.37,0,0,0-.74-23,35.94,35.94,0,0,0-3.59-9.17c-2.72-4.59-5.74-9-10-12.47a47.16,47.16,0,0,0-9.72-6.17c-1.79-.83-3.77-1-5.67-1.71a13,13,0,0,1,4.26-3.4c1.83-1.06,1.95-.93,2.37,1.09a3.85,3.85,0,0,0,.22.52q1.65,4.11,5.79,3.14a4.9,4.9,0,0,0,3.45-5.36c-.23-1.54.41-2.09,1.58-2.71,2.34-1.26,5-1.09,7.43-1.81,1.52-.45,3.34-.71,3.73-2.61.2-.95-2.33-2.08-4.41-2.18A22,22,0,0,0,274,57.11a6.7,6.7,0,0,1-3.93,1,10.38,10.38,0,0,0-5.46,1.09c-.47.24-1,.84-1.5.45s0-1,.06-1.57a22.51,22.51,0,0,0,.38-9.1,2.18,2.18,0,0,0-2.28-1.84c-1.05,0-2.35,0-2.58,1.33-.41,2.26-1.55,4.36-1.35,6.76a13.27,13.27,0,0,1-.45,2.85c-2.38-8.41-5.06-16-11.67-21.58a13.15,13.15,0,0,1-3.26-3.31c-1.22-2.18-3.33-3.17-5.3-4.3-3.93-2.24-8.41-3.12-12.62-4.69a3,3,0,0,0-2-.08c-2.68.89-4.8-.72-6.55-2.07-2.82-2.18-5.28-4.9-7.91-7.31-4.06-3.73-7.8-7.9-13-10.48C189.72,1.82,184.88,0,179.6,0a34.1,34.1,0,0,0-15.52,3.39C161,5,157.89,6.3,155,8.15c-1.92,1.23-3.42,2.89-5.23,4.21-2.46,1.81-4.42,2.37-7.53,1-4.88-2.16-10.33-1.78-15.48-.85-5.85,1.05-11.16,3.71-16.21,6.84-5.43,3.36-8.7,8.63-12.17,13.71s-6.85,10-13.25,11.76c-1.68.46-1.75-.25-1.64-1.41a55.77,55.77,0,0,1,.64-5.73c.42-2.16-.66-2.3-2-2.65a6,6,0,0,0-3.15.21c-2.47.69-3.74,2.79-5.33,4.51C70,43.68,67.25,48,68.12,53.68c.11.72-.2.91-.8,1.2-2.53,1.21-5.18,2.15-7.77,3.2-4.35,1.77-7.83,4.77-11.16,7.75a31.06,31.06,0,0,0-8.3,12,20.24,20.24,0,0,0-1.25,10.61,8.36,8.36,0,0,0,7,7,6.76,6.76,0,0,1,4.57,5c.08.93,0,1.79-1.08,2.15A10.44,10.44,0,0,1,44,103c-6.35-1.22-12.14-.27-17.27,3.9-3.72,3-6.09,6.77-5.5,11.62.46,3.76,1.08,7.53,1.67,11.28.65,4.19.11,7.95-2.88,11.12-1.52,1.61-1.46,2.7.51,3.81,1.11.63,2.31,1.11,3.77,1.79-2.91,1.18-5.4,2.58-8.15,3.43-.74.22-1.46.6-1.52,1.46a1.58,1.58,0,0,0,1.25,1.49c1.67.49,3.35,1.5,5.16.24,1.09-.76,2.49-.58,3.73-1.15-.1,3.16-1.91,5.51-3.16,8-2.09,4.17-4.84,8-6.76,12.25-2.26,5-4.4,10.05-5.33,15.52-.37,2.12-1.25,4.18-1.49,6.31A109.68,109.68,0,0,0,7.57,212a28.66,28.66,0,0,0,.54,5,99.62,99.62,0,0,0,4.09,13.19c.37,1,.28,1.39-.76,1.79-2.09.8-4.28,1.43-6,3C.79,239.25-.71,244.49.3,250.7c.87,5.38,2.38,10.46,5.76,14.81,2.53,3.25,5.22,6.35,9.6,7.19a20.3,20.3,0,0,0,7.45.11,3.13,3.13,0,0,1,3.45,1.51c2.52,3.43,4.05,7.14,3.58,11.57-.33,3.08-1.85,4.8-4.87,4.86a13.64,13.64,0,0,0-1.69.06c-1.63.22-3,1.92-2.52,3.3a34.74,34.74,0,0,1,.74,3.48c.92,3.77,3.13,6.35,6.91,7.38a3,3,0,0,1,2.53,3.15,20.39,20.39,0,0,0,3.4,10.16,31.94,31.94,0,0,0,8.66,8.41,25,25,0,0,0,12.75,4.43c4.44.3,8.9-.62,13.27-1.51,5.29-1.08,10.33-3.29,15.75-3.82,1.86-.18,3.71-.87,5.49-.7,3.11.31,6.21.11,9.31.4,4.1.38,8.26.41,12.23,1.48a85.13,85.13,0,0,0,9.55,1.55,57.18,57.18,0,0,0,9.28.39c6.6-.1,13-.77,19.23-3.19,5.94-2.31,10.25-6.53,13.88-11.56.52-.74.72-.9,1.53-.36a70.93,70.93,0,0,0,7.9,4.89,122.94,122.94,0,0,0,12.82,5.63,51.08,51.08,0,0,0,26.17,2.34c7.48-1.3,14.72-3.43,21.29-7.41a2.44,2.44,0,0,1,2.12-.48c2.16.72,4.37,1.4,6.45,2.2,3.47,1.31,6.91,1.23,10.4,1.07,4.58-.21,8.67-2.47,13-3.66a44.6,44.6,0,0,1,15.68-1.5c4.57.37,9.05.36,13.38-1.59,3.79-1.71,7-6.73,6.81-10.82a90.35,90.35,0,0,0-1.43-11.86c-.68-3.72-1.09-7.39,0-11.09a1.54,1.54,0,0,0,0-.37c.36-5.06,2.27-9.71,4.09-14.34s5-8.61,7.73-12.81a36.76,36.76,0,0,0,4-7.59C318.77,238.76,313.83,230.4,308.09,226.67Zm-10.56-75c1.84,3.61,1,10.25,1,10.25-1.22-3.55-5-6.87-5-6.87C296.1,154,295.69,148.09,297.53,151.71Zm-7.19,15.48c.1.34.53.72.24,1-1.76,1.77-.57,3.9-.8,5.86A24.4,24.4,0,0,0,292,187.29a2.1,2.1,0,0,1,.27,1.07,33.59,33.59,0,0,1-5.53,15.15c-.92-3.88-3.08-7.09-4.9-10.43-2.62-4.78-5-9.72-9.53-13.21-1.92-1.49-3.19-3.22-2.62-6.21s-.07-6.42-.19-9.64c-.15-4.16-.67-8.27-.88-12.41-.06-1.1.2-1.18,1.26-1a26.14,26.14,0,0,1,15.08,9C287,162,289.4,164.08,290.34,167.19Zm-28.88,13c2,1.78,3.46,4.11,5.31,6,3,3,4.77,6.63,6.75,10.18a64.47,64.47,0,0,1,6.72,15.8,1.71,1.71,0,0,1-.72,2.08c-2.93,2.11-5.67,4.5-8.85,6.27a20.38,20.38,0,0,1-9.15,2.49c-4.56.19-9.17.51-13.66-.43a21,21,0,0,1-8.59-4.41c-1.23-1-2.59-1.7-3.83-2.63-2.7-2-4.52-4.84-6.46-7.48A44.52,44.52,0,0,1,221,190a44.85,44.85,0,0,1-1.26-9.86,27.6,27.6,0,0,1,2.88-12.36,36.13,36.13,0,0,1,9.5-11.83,25.31,25.31,0,0,1,13.29-5.34c2.62-.26,5.23-.34,7.85-.47,1.69,0,3.38.07,5.06,0,1-.06,1.33.33,1.37,1.26a45.86,45.86,0,0,0,.56,6.89c.77,3.95.33,7.94,1,11.88.26,1.52.2,3.19.31,4.79a1.71,1.71,0,0,1-.4,1.21C259.79,177.82,259.88,178.83,261.46,180.22ZM157.2,307.79a11.9,11.9,0,0,1-1.47,3c-3.18,3.63-6.71,6.77-11.63,7.74-2.06.41-3.76,1.64-6,1.87a79.9,79.9,0,0,1-17.49-.36c-4.17-.51-8.27-1.37-12.4-2.13a14,14,0,0,0-2-.13c-2.61-.15-5.23.27-7.82-.5a5.3,5.3,0,0,0-3.69.18c-1.39.63-2.64-.46-4-.33a104.68,104.68,0,0,0-12.37,1.93c-4.06.91-8,2.25-12,3.5-2.5.78-5.08.31-7.61.75a14.1,14.1,0,0,1-9.52-1.55,22.69,22.69,0,0,1-9.54-9.92,19,19,0,0,1-1.78-7.36c-.16-3.29-1.19-4.47-4.54-4.71a8.86,8.86,0,0,1-3.35-1.12c-.4-.19-.84-.37-.84-.89s.6-.54,1-.66c4.55-1.47,6.41-5.41,7.19-9.38,1.14-5.82-1-11.13-4.43-15.95a11.84,11.84,0,0,0-11.42-5.4c-5.85.53-8.79-2.82-10.83-7.38A28.74,28.74,0,0,1,7.72,247.5c0-4.21,1.48-7.65,6.07-8.89,2.07-.57,3.1-.08,3.49,2a5.62,5.62,0,0,1,0,2.58c-.3,1.16-.8,1.71-2.11,1.45s-2.56-.51-3.64.33c-3,2.27-2.2,4.35.8,6.38,4.68,3.16,10.21.57,11.92-4.94,1.35-4.35.11-8-1.74-11.82a75,75,0,0,1-5.61-15.19,47.06,47.06,0,0,1-1.49-15.29c.65-7.36,1.28-14.67,3.81-21.79a129.55,129.55,0,0,1,5.84-12.9c1.55-3.18,3.24-6.3,4.7-9.53a52.77,52.77,0,0,0,4.1-14.54,11.25,11.25,0,0,0-.4-3.71c-.3-1.43-2.27-2.17-4-1.6-.41.13-.82.48-1.2.06s-.05-.82.18-1.19a9.86,9.86,0,0,0,1-8.13c-1.11-4-1.15-8.14-2-12.17a4.32,4.32,0,0,1,.7-3.22c2.89-4.61,6.91-7.33,12.48-6.35a29.21,29.21,0,0,0,7.6.58c3.57-.32,6.93-1.47,8.72-5,1.51-3,.82-5.94-.85-8.54A15.29,15.29,0,0,0,48.28,90,3.18,3.18,0,0,1,46,87.28c-.27-2.45-.57-4.93,1-7.18a15.08,15.08,0,0,0,1.75-3.5c1-2.67,3-4.46,5-6.27A44.52,44.52,0,0,1,62.26,64,45.23,45.23,0,0,1,73,59.18c2.4-.64,2.89-2.39,1.43-4.28-.15-.2-.38-.39-.41-.61-.5-3.28-.32-6.43,1.95-9.39.81,1.41,1,2.78,2.2,3.89,3.75,3.31,7.71,3.15,11.84,1.38a25.28,25.28,0,0,0,11.15-8.83c2.33-3.38,4.51-6.87,6.88-10.22a29,29,0,0,1,12.25-9.58,41.3,41.3,0,0,1,10-2.61c3.38-.58,6.51.15,10,.6a83.9,83.9,0,0,1-11.06,9A136.89,136.89,0,0,1,115.41,37c-1,.5-2.14,1.22-1.69,2.57a2.83,2.83,0,0,0,2.89,1.72,7,7,0,0,0,4.26-1.2c3.94-3,8.61-4.71,12.63-7.58,3.36-2.39,6.6-4.91,9.77-7.54,1.33-1.11,2.53-2.39,4.29-2.9s2.22-2.43,3.54-3.49c5.11-4.11,10.12-8.17,16.42-10.61,3.85-1.48,7.62-2.73,11.67-2.66a16.44,16.44,0,0,1,9.3,2.86c1.88,1.31,4.13,2.32,5.53,4,1.67,2,3.63,3.79,5.26,5.83a55.59,55.59,0,0,0,7.05,7.41c2.24,1.93,4.3,4.11,7.16,5.34,3,1.32,6,2.73,9.42,2.46,1.27-.09,2.29.87,3.44,1.27a25.82,25.82,0,0,1,8.23,4.65c1.25,1,2.62,1.91,3.83,3a31.23,31.23,0,0,1,9,13.47c.34,1,1,1.82,1.37,2.84,1.83,5.11,1.1,10.38,1,15.56a16.16,16.16,0,0,1-2,7.69c-1.25,2.27-2.28,4.66-3.65,6.88A4.48,4.48,0,0,1,241,90.68c-4,.75-8.06,1.42-12.1,2.08-2.77.44-5.53.91-8.31,1.18a33.15,33.15,0,0,1-9.2-.64c-3.82-.7-7.34-2.36-11.11-3.2-.88-.19-.89-.6-.35-1.13,2-1.89,2.25-4.7,3.82-6.84.82-1.12.54-2.79.55-4.21,0-.92-.93-1.3-1.71-1.53a1.88,1.88,0,0,0-2.32.73q-1.8,2.84-3.56,5.7a90.53,90.53,0,0,1-7.06,9.61,25.7,25.7,0,0,1-4.44,4.76c-2.25,1.7-4.25,3.51-7.34,4-2.89.47-5.62,2.07-8.61,2.41a16.11,16.11,0,0,0-5.83,1.93c-1.29.69-2.72,1.47-2.43,3.39a4.48,4.48,0,0,0,3.68,4.17c3.24.66,6.36-.29,9.37-1.11a50.38,50.38,0,0,0,10.57-3.75c4.47-2.38,9.3-4.28,12.79-8.21a2.35,2.35,0,0,1,2.84-.64,29.67,29.67,0,0,0,5.49,1.64,35.57,35.57,0,0,1,6.55,1.61c3.39,1.16,6.7.5,10,.34a60.55,60.55,0,0,0,11.28-1.65c4.08-1,8.48-.9,12.18-3.34,3.32-2.18,6.42-4.42,7.51-8.66.45-1.79,2-3.21,2.71-5.06.88-2.34,1.21-4.85,2.41-7.07a3.79,3.79,0,0,0,.13-2.22c-.17-1.66.6-2.34,2.22-2a25.55,25.55,0,0,1,11.8,6.39,44.5,44.5,0,0,1,7.91,10.11,19,19,0,0,1,2.45,6.78c.38,2.24,1.29,4.43,1.53,6.71.41,3.88.76,7.72-.34,11.64-.7,2.48-.93,5.14-1.41,7.71-.29,1.58-.73,3.14-.92,4.76-.37,3.07-1.25,6.08-1.57,9.15-.36,3.43-.87,6.92.39,10.34-4.07-1.06-8.13-2.12-12.19-3.15-.84-.22-1-.78-1.1-1.52-.33-2.22-.22-4.55-.74-6.68-.92-3.75-1.05-7.61-2-11.36a70.52,70.52,0,0,1-1.9-8.16c-.3-2.42-3.64-3.65-6.34-2.47-2.15.94-3.31,2.88-2.53,5.21a93.44,93.44,0,0,1,3.51,16.72c.3,2.13.5,4.29.91,6.41.21,1.11-.19,1.48-1.24,1.51-2,.08-4,.29-6,.31a52.64,52.64,0,0,0-16.11,3,34.92,34.92,0,0,0-14.15,9.38,16.83,16.83,0,0,0-2.55,3.45c-.7,1.28-1.3,1.47-2.33.41-3.21-3.3-7.42-4.66-11.74-5.26a23.71,23.71,0,0,0-8.69.48,28.72,28.72,0,0,0-10.34,4.66c-.76.55-1.18,2-2.29,1.55-.75-.31-1.14-1.42-1.74-2.14A35.4,35.4,0,0,0,169,149.41,45.34,45.34,0,0,0,150.09,145c-6.31-.13-12.65-.32-18.91.8a59.45,59.45,0,0,0-8.85,2.42,34.25,34.25,0,0,0-16.5,12.31c-.14.2-.32.37-.66.76-.8-1.52-1.58-2.79-2.16-4.16a6.9,6.9,0,0,0-2.66-3.29c-1-.67-1.11-1.38-.24-2.28a130.72,130.72,0,0,0,13.13-16.81,105.17,105.17,0,0,0,7.12-12.86,68,68,0,0,0,4.06-10.57c.23-.76.45-1.32,1.4-.92,4,1.69,8.29,1.7,12.43,2.58a50.54,50.54,0,0,0,11.09,1.18c2.63,0,4.64-1.68,4.77-3.79.19-2.81-2.92-5.62-5.78-5.49a41.22,41.22,0,0,1-9.25-1c-2.51-.46-5-1.12-7.53-1.37-1.54-.16-2.77-1.23-4.32-1.14-2.86.15-5.73.34-8.6.44-6.76.25-11.62,4-15.94,8.67a6.68,6.68,0,0,0-1.32,3.27c-.23,1.13,1,2,2.29,1.65,2.31-.55,3.8-2.37,5.51-3.78a45.82,45.82,0,0,1,5.13-3.43c.47-.3,1.06-.7,1.56-.31s.31,1.06.09,1.58c-1.76,4.19-3.63,8.33-5.68,12.41a127.52,127.52,0,0,1-9,14.23,90.18,90.18,0,0,1-8.78,10.44,6.13,6.13,0,0,0-1.18,7.22,72.35,72.35,0,0,0,3.58,7.35c.9,1.59,1.71,3.22,2.57,4.83a3.15,3.15,0,0,1-.45,4.09c-.22.23-.39.5-.58.74-2.92,3.52-2.69,8.16.89,11a4.56,4.56,0,0,1,1.88,3.93,40.17,40.17,0,0,0,1,6.83c.39,2.41-.5,4.33-1,6.49-1.25,5-5.15,8.63-6.71,13.44-1.13,3.47-2.25,6.88-.79,10.57,1.09,2.76,3.1,4.29,6.11,4.13-1.58,1.33-3.34,1.39-5,1.62-2.64.37-5.2,3-4.51,5.1.46,1.37,1.57,2.48,2.27,3.8,3,5.68,6.24,11.26,8.81,17.15a24.13,24.13,0,0,1,2,13.47,2.54,2.54,0,0,1-.4,1c-1.6,2.23-2,4.9-2.88,7.42-.4,1.19-1.35,2.05-1.91,3.17a25.36,25.36,0,0,0-2.09,17.91,5.39,5.39,0,0,0,4.23,3.76,2.6,2.6,0,0,0,2.89-2.56c.21-2.86,1-5.66.76-8.57-.14-1.52.73-2.73,1.14-4,3.82.79,5.76,4.2,8.88,5.92,7.34,4.06,14.75,8,22.94,10.07,2.67.68,5.22,1.83,8,2.06,3.46.29,6.67,2,10.23,1.83,1.15,0,2.26.67,3.48.56C157.25,306.91,157.47,307.24,157.2,307.79Zm-47-124.59a27,27,0,0,0-1.17-7.5c-.87-3.17.48-5.7,1.93-8.11,3.4-5.66,7.81-10.47,13.94-13.13a32.32,32.32,0,0,1,11.6-2.71c1.32-.05,2.63,0,4,0,2.19,0,4.37-.07,6.56-.21a33.73,33.73,0,0,1,14.69,2.07,26.35,26.35,0,0,1,12.14,9.3,61.58,61.58,0,0,1,4.31,6.27,15.37,15.37,0,0,1,2,6.15c.1,1.43.82,2.72.79,4.22a70.39,70.39,0,0,1-1.19,11.83A49.07,49.07,0,0,1,172.45,209a35.72,35.72,0,0,1-17,14.38c-3.92,1.55-8.09,1.36-12.2,1.37-1.56,0-3.13-.12-4.69-.14-3.23,0-6-1.31-8.85-2.73-2.27-1.14-4.06-2.87-6.16-4.21s-3.59-3.75-5.32-5.7a49,49,0,0,1-6-9.22c-1.83-3.28-3.55-6.85-2.45-10.68C110.63,189.1,110.09,186.14,110.15,183.2Zm44.73,114.13c-2.75-.57-5.66-.66-8.45-1.28a122.82,122.82,0,0,1-15.53-4.49c-4.53-1.64-8.56-4.27-13-6-2.54-1-4.32-3.16-6.5-4.72-1.24-.89-2.32-2-3.52-3-.65-.52-.56-1-.16-1.6,2.14-3.31,2.5-7.1,2.73-10.88a22.78,22.78,0,0,0-1.52-9.63c-1.16-2.92-1.86-6.06-3.7-8.72-2.62-3.79-4.55-8-7.71-11.47-.51-.55-.61-.83.27-1.14a15.43,15.43,0,0,0,9-8.22,10.37,10.37,0,0,0,.72-5.14c-.25-3.46-5-4.65-7.83-2.25.81-3.08,1.67-5.58,3.55-7.62a3.78,3.78,0,0,1,.4-.4c.77-.61,1-2.28,1.85-2.08s1.44,1.48,1.88,2.41c2.28,4.82,6.26,8.29,10,11.77a24.42,24.42,0,0,0,9.48,5.82c2,.6,3.79,2,5.95,2.55a38.16,38.16,0,0,0,15.87,1c2.94-.49,6-.52,8.81-1.59a26.76,26.76,0,0,0,3-1.17A51.39,51.39,0,0,0,170.84,223a78.25,78.25,0,0,0,6.19-6.43,41.25,41.25,0,0,0,5.45-8c.7-1.25,1.16-2.64,1.86-3.88,2.56-4.57,2.87-9.69,3.83-14.67a51,51,0,0,0,1-7.37c.15-3.45-.68-6.75-1.37-10.07-.2-1-.38-2-.67-2.92a1.47,1.47,0,0,1,.58-1.64c3.7-3.53,8-5.9,13.21-5.58a15.3,15.3,0,0,1,9.56,3.44c2.46,2.09,2.74,3.78,2,6.48-.77,2.94-.28,5.83.34,8.85,1,4.92,2.32,9.79,3,14.81.56,4,.29,8.24,2.87,12,3,4.34,6,8.59,10,12a39.38,39.38,0,0,0,10.51,6.88c2.54,1.06,5.09,2.17,7.69,3.15,3,1.11,6.07.6,9.09.77a54.8,54.8,0,0,0,5.69-.3,29.63,29.63,0,0,0,13.08-3.92c2.21-1.21,4.45-2.4,6.85-3.88a59.32,59.32,0,0,1-.48,14.92,77.32,77.32,0,0,1-1.74,8.21,68.31,68.31,0,0,1-7.8,17.13c-3.22,5.17-7.56,9.19-12,13.25a66.65,66.65,0,0,1-9.43,7,55,55,0,0,1-8.11,4.41c-2.32,1-4.62,2.1-6.89,3.24a35.41,35.41,0,0,1-5.9,2.27c-3.86,1.14-7.6,2.78-11.59,3.32-5.22.71-10.32,2.08-15.63,2.39-3.14.19-6.33.33-9.47.82-2.54.41-5.1-.37-7.64.14-5.92,1.18-11.72-.64-17.59-.85A76.39,76.39,0,0,1,154.88,297.33ZM305.4,250.07A63.52,63.52,0,0,0,295,268.32,58.5,58.5,0,0,0,291.61,290a23.13,23.13,0,0,0,.83,4.2c.61,2.69.45,5.45,1,8.13.7,3.21-1.35,5.78-4.76,6.55-2.58.58-5.07,0-7.58-.12-3.81-.24-7.69-.6-11.34.29a78.3,78.3,0,0,0-9.47,2.81c-4.5,1.71-9.08,3-14,2.36A13.42,13.42,0,0,1,242,313c-4.17-2.06-8.69-2.2-13.16-2.63-.59-.06-1.4-.23-1.72.41s.33,1.27.77,1.75c1.83,2,1.85,2-.84,3.25a55,55,0,0,1-22.43,5.31,45.61,45.61,0,0,1-15.78-2.58,99,99,0,0,1-19.62-9.75,9.87,9.87,0,0,1,5.87-.32c3.3.93,6.58.17,9.84.57,1.28.15,2.62-.2,3.93-.14a51.7,51.7,0,0,0,9.45-.89c2.15-.28,4.46.4,6.67-.12a71.62,71.62,0,0,1,8.43-1.31c4.27-.47,8.22-2.15,12.42-2.67,2.23-.27,4.06-1.61,6.21-2,2.76-.55,5.06-2.15,7.58-3.22s4.95-2,7.35-3.2A97.5,97.5,0,0,0,257.66,289c4.55-3.09,9.08-6.26,12.83-10.33,2.67-2.89,5.71-5.63,7.6-9,3.15-5.6,6.94-10.9,8.6-17.36.82-3.2,1.92-6.41,2.86-9.62a31.45,31.45,0,0,0,.94-6.65c.24-3.91.46-7.83.35-11.74a39,39,0,0,0-.77-8.55,2.11,2.11,0,0,1,.52-2.2A37.12,37.12,0,0,0,297,202.6c.08-.17.11-.37.2-.53.53-.94.55-2.55,1.88-2.5,1.1,0,1.22,1.57,1.83,2.4a24.08,24.08,0,0,1,3.87,6.95c1.32,4.23,1.21,6-1.89,8.92-2.45,2.29-5.41,4-7.43,6.81-4.27,5.88-3.56,15.81,5.55,18.28,2.44.66,5.55-.22,7.42-3.82C309.52,243.43,307.9,246.88,305.4,250.07Zm1-14.58c-1.29,0-2.28,0-3.28,0a2.44,2.44,0,0,1-2.31-1.87c-.21-.62-.38-1.51.13-2s1.11.24,1.67.44C304.3,232.68,305.17,234.13,306.41,235.49Z"/><path class="cls-1" d="M42.39,222.66c-4.79-.25-8.38-3.18-10.08-8.66a47,47,0,0,1-1.24-22.72,101.37,101.37,0,0,1,6-21.15A110,110,0,0,1,43.45,157a43.46,43.46,0,0,1,3.73-5.78c.94-1.15.74-2.11-.76-2.78-3.14-1.41-3.69-2.58-3-5.87.86-4,3.22-7.16,6-10.08A71.52,71.52,0,0,1,60.65,123c3.76-2.59,7.43-5.32,11.93-6.56a2.82,2.82,0,0,1,1.64-.2c.77.25,1.69.46,1.94,1.31s-.63,1.29-1.24,1.64c-5,2.86-9.46,6.48-14.05,9.89A39.27,39.27,0,0,0,51,138.92a11.61,11.61,0,0,0-1.75,4.31c-.22,1.26.27,1.78,1.49,1.69a31.83,31.83,0,0,0,7.47-1.74,54.68,54.68,0,0,0,13.17-6.48,8.56,8.56,0,0,1,5.71-1c1.16.09,1,.88.7,1.65a8.37,8.37,0,0,1-4.06,4c-4.26,2.07-8.32,4.53-12.86,6-1.85.61-3.74.91-5.59,1.45-.71.2-1.28.38-1.59,1.11-1.74,3.95-4.4,7.4-6.07,11.38-1.84,4.4-4.33,8.47-5.71,13.12-1,3.36-2.51,6.65-3.41,10a80,80,0,0,0-1.79,9.15,57.83,57.83,0,0,0-.45,11,26.19,26.19,0,0,0,2.86,11.1c1.89,3.6,4.6,4.15,7.8,1.62,3.41-2.69,5.09-6.56,7-10.27a29.71,29.71,0,0,1,4.15-6.18,2.52,2.52,0,0,1,2.22-1c.84.21.61,1.22.59,2-.09,3.54-1.53,6.6-3.17,9.66a27,27,0,0,1-7.43,9.2A10.46,10.46,0,0,1,42.39,222.66Z"/><path class="cls-1" d="M140.86,37.53c4.21-.21,7.76,1.39,11.47,2.18a21,21,0,0,0,11.08-.24c4.7-1.53,9-4.1,13.52-5.9,6-2.36,12.12-3.61,18.56-1.89a12.88,12.88,0,0,1,6.32,4.17c2.75,3.09,4.08,7.11,6.46,10.47.88,1.25.17,2.44-1.38,2.77a3.58,3.58,0,0,1-4-1.72c-1.75-2.58-3.66-5-5.34-7.67C194.75,35.35,191,35.13,186,36c-6.26,1.12-11.52,4.69-17.2,7.23-7.12,3.18-14.25,3.73-21.52.38-2.48-1.14-5.26-1.06-7.95-.77a18,18,0,0,0-11.83,6.06c-.41.46-1,.88-.74,1.57s1.08.48,1.68.56c1.94.27,3.68-.6,5.5-1A11.38,11.38,0,0,1,138,50c.86.14,1.82.53,1.88,1.55s-.86,1.37-1.61,1.6c-2.44.77-5,1.24-7.41,1.94a10.29,10.29,0,0,1-7.62-.61,4.44,4.44,0,0,1-1.9-6.72,22.48,22.48,0,0,1,15.23-9.6C138.1,37.91,139.58,37.32,140.86,37.53Z"/><path class="cls-1" d="M178.69,128.33c-1,2.21-1.48,4.72-4,6.51a30.68,30.68,0,0,1-10.86,5.26c-5.43,1.3-10.9,2.4-16.27-.25a7.13,7.13,0,0,1-3.92-5.09c-1-4.43,1.44-7.15,4.71-9.08,5-3,10.39-5.43,16.33-6.05a14.43,14.43,0,0,1,11.2,3.06C177.6,124.1,178.21,126,178.69,128.33ZM155,134.41v.06c.25,0,.5,0,.75,0,5.36-.27,10.36-1.63,14.66-5a2.38,2.38,0,0,0,.9-2.5c-.18-.9-.8-1.27-1.68-1.52-4.7-1.3-8.8.75-13,2.32a26.38,26.38,0,0,0-4.22,2.39,2.57,2.57,0,0,0-1.23,3.07c.35,1.22,1.46,1.17,2.47,1.19Z"/><path class="cls-1" d="M230.36,119.62c5.47-.64,10.15,1.65,14.88,3.77a31.52,31.52,0,0,1,4.7,2.24,10.82,10.82,0,0,1,4.87,6.54c.54,2.15-1.91,6.71-4.19,7.76-3.85,1.76-7.78,1.71-11.74,1.12a31.61,31.61,0,0,1-11.07-3.35c-3.25-1.84-6.57-3.72-7.79-7.86a6.4,6.4,0,0,1,1.29-6.1C223.56,120.91,226.84,119.86,230.36,119.62Zm12.57,14.81h1.87c1,0,1.95-.12,2.35-1.16a2.23,2.23,0,0,0-.9-2.64,11.17,11.17,0,0,0-1.68-1.16,45.5,45.5,0,0,0-7.8-3.49,14.65,14.65,0,0,0-8.07-.53,2.13,2.13,0,0,0-1.09,3.8,13.07,13.07,0,0,0,3.73,2.69C235.05,133.29,238.85,134.64,242.93,134.43Z"/><path class="cls-1" d="M255.65,98.57c0,3.3-6.58,7.83-9.68,6.64s-3.35-3.16-1.19-5.45c1.84-1.94,4.32-2.73,6.6-3.75S255.64,96.38,255.65,98.57Z"/><path class="cls-1" d="M252.49,112.28c-2.41,0-4.2-1.49-4.5-3a2.25,2.25,0,0,1,1.49-2.84,29.54,29.54,0,0,0,5.76-3.08,3.4,3.4,0,0,1,4.65.83,2.85,2.85,0,0,1-.83,4.26C256.76,109.93,254.76,112.09,252.49,112.28Z"/><path class="cls-1" d="M165.8,179c.09,5.25-3.59,9.17-8.68,9.24s-9.69-4-9.75-8.76c-.08-5.75,3.61-10,8.74-10.07C161.94,169.36,165.71,173.09,165.8,179Z"/><path class="cls-1" d="M242.81,179.11c.31,4.16-5.15,9-8.63,8.9-5.05-.16-10.25-4.49-10.09-8.63.23-5.81,4.59-10,9.84-9.92C238.58,169.56,242.93,174.33,242.81,179.11Z"/><text class="cls-2" transform="translate(337.49 182.34)">Rafaela</text></g></g></svg>